<svg xmlns="http://www.w3.org/2000/svg" xmlns:xlink="http://www.w3.org/1999/xlink" width="281"
    zoomAndPan="magnify" viewBox="0 0 210.75 137.249994" height="183"
    preserveAspectRatio="xMidYMid meet" version="1.0">
    <defs>
        <g />
        <clipPath id="e9e814c5d6">
            <path
                d="M 0.449219 0 L 210.054688 0 L 210.054688 136.503906 L 0.449219 136.503906 Z M 0.449219 0 "
                clip-rule="nonzero" />
        </clipPath>
        <clipPath id="99fab05631">
            <path d="M 55 83 L 99 83 L 99 130 L 55 130 Z M 55 83 " clip-rule="nonzero" />
        </clipPath>
        <clipPath id="44636a7ba7">
            <path
                d="M 55.332031 83.894531 L 98.773438 98.402344 L 86.101562 136.359375 L 42.65625 121.851562 Z M 55.332031 83.894531 "
                clip-rule="nonzero" />
        </clipPath>
        <clipPath id="94182a004f">
            <path
                d="M 64.347656 129.09375 L 98.710938 98.382812 L 55.332031 83.894531 Z M 64.347656 129.09375 "
                clip-rule="nonzero" />
        </clipPath>
        <clipPath id="6dd80fb7bf">
            <path d="M 17 11 L 178 11 L 178 121 L 17 121 Z M 17 11 " clip-rule="nonzero" />
        </clipPath>
        <clipPath id="5e63ede0e6">
            <path
                d="M 27.199219 0 L 186.390625 26.867188 L 168.664062 131.902344 L 9.472656 105.035156 Z M 27.199219 0 "
                clip-rule="nonzero" />
        </clipPath>
        <clipPath id="2342ca1483">
            <path
                d="M 106.683594 13.417969 C 62.785156 6.007812 23.230469 23.511719 18.335938 52.519531 C 13.4375 81.523438 45.058594 111.042969 88.957031 118.449219 C 132.855469 125.859375 172.414062 108.351562 177.308594 79.347656 C 182.203125 50.34375 150.582031 20.824219 106.683594 13.417969 Z M 106.683594 13.417969 "
                clip-rule="nonzero" />
        </clipPath>
    </defs>
    <g clip-path="url(#99fab05631)">
        <g clip-path="url(#44636a7ba7)">
            <g clip-path="url(#94182a004f)">
                <path fill="#fd6f25"
                    d="M 55.332031 83.894531 L 98.773438 98.402344 L 86.101562 136.359375 L 42.65625 121.851562 Z M 55.332031 83.894531 "
                    fill-opacity="1" fill-rule="nonzero" />
            </g>
        </g>
    </g>
    <g clip-path="url(#6dd80fb7bf)">
        <g clip-path="url(#5e63ede0e6)">
            <g clip-path="url(#2342ca1483)">
                <path fill="#fd6f25"
                    d="M 27.199219 0 L 185.980469 26.800781 L 168.253906 131.832031 L 9.472656 105.035156 Z M 27.199219 0 "
                    fill-opacity="1" fill-rule="nonzero" />
            </g>
        </g>
    </g>
    <g fill="#ffffff" fill-opacity="1">
        <g transform="translate(41.51744, 47.577299)">
            <g>
                <path
                    d="M 13.890625 -7.234375 L 10.953125 -7.734375 C 10.859375 -7.753906 10.75 -7.738281 10.625 -7.6875 C 9.800781 -7.15625 8.96875 -6.707031 8.125 -6.34375 C 8.101562 -6.34375 8.085938 -6.328125 8.078125 -6.296875 C 8.078125 -6.285156 8.09375 -6.273438 8.125 -6.265625 C 10.476562 -6.160156 12.578125 -6.242188 14.421875 -6.515625 C 14.453125 -6.535156 14.476562 -6.554688 14.5 -6.578125 C 14.519531 -6.609375 14.519531 -6.644531 14.5 -6.6875 L 14.15625 -7.078125 C 14.09375 -7.160156 14.003906 -7.210938 13.890625 -7.234375 Z M 5.109375 -5.25 C 4.398438 -5.0625 3.773438 -4.90625 3.234375 -4.78125 C 2.910156 -4.71875 2.617188 -4.789062 2.359375 -5 C 2.097656 -5.21875 1.953125 -5.492188 1.921875 -5.828125 C 1.878906 -6.171875 1.96875 -6.484375 2.1875 -6.765625 C 2.40625 -7.054688 2.675781 -7.222656 3 -7.265625 C 4.300781 -7.503906 5.5 -7.878906 6.59375 -8.390625 C 6.613281 -8.398438 6.625 -8.421875 6.625 -8.453125 C 6.632812 -8.460938 6.625 -8.472656 6.59375 -8.484375 L 3.6875 -8.96875 C 3.375 -9.019531 3.125 -9.171875 2.9375 -9.421875 C 2.757812 -9.679688 2.695312 -9.972656 2.75 -10.296875 C 2.800781 -10.609375 2.957031 -10.859375 3.21875 -11.046875 C 3.46875 -11.222656 3.75 -11.285156 4.0625 -11.234375 L 9.5625 -10.296875 C 9.707031 -10.273438 9.816406 -10.304688 9.890625 -10.390625 C 10.222656 -10.671875 10.519531 -10.941406 10.78125 -11.203125 L 10.796875 -11.296875 C 10.804688 -11.335938 10.789062 -11.363281 10.75 -11.375 C 9.144531 -11.539062 7.425781 -11.753906 5.59375 -12.015625 C 5.289062 -12.054688 5.039062 -12.207031 4.84375 -12.46875 C 4.65625 -12.707031 4.570312 -12.988281 4.59375 -13.3125 C 4.632812 -13.601562 4.773438 -13.859375 5.015625 -14.078125 C 5.234375 -14.273438 5.503906 -14.347656 5.828125 -14.296875 C 6.296875 -14.222656 6.816406 -14.15625 7.390625 -14.09375 C 7.515625 -14.070312 7.613281 -14.109375 7.6875 -14.203125 L 9.03125 -15.875 C 9.226562 -16.175781 9.519531 -16.375 9.90625 -16.46875 C 10.238281 -16.5625 10.570312 -16.550781 10.90625 -16.4375 L 11.203125 -16.34375 C 11.484375 -16.226562 11.671875 -16.015625 11.765625 -15.703125 C 11.859375 -15.429688 11.8125 -15.164062 11.625 -14.90625 L 10.734375 -13.8125 C 10.703125 -13.789062 10.695312 -13.765625 10.71875 -13.734375 C 10.738281 -13.703125 10.769531 -13.679688 10.8125 -13.671875 C 13.519531 -13.359375 15.503906 -13.144531 16.765625 -13.03125 C 16.816406 -13.019531 16.847656 -13.03125 16.859375 -13.0625 C 16.878906 -13.101562 16.882812 -13.140625 16.875 -13.171875 L 16.625 -13.5625 C 16.46875 -13.832031 16.457031 -14.097656 16.59375 -14.359375 C 16.726562 -14.628906 16.9375 -14.789062 17.21875 -14.84375 L 17.40625 -14.890625 C 17.738281 -14.953125 18.09375 -14.898438 18.46875 -14.734375 C 18.8125 -14.585938 19.085938 -14.359375 19.296875 -14.046875 C 20.140625 -12.691406 20.835938 -11.46875 21.390625 -10.375 C 21.535156 -10.113281 21.539062 -9.835938 21.40625 -9.546875 C 21.269531 -9.273438 21.050781 -9.101562 20.75 -9.03125 L 20.515625 -8.984375 C 20.160156 -8.910156 19.820312 -8.953125 19.5 -9.109375 C 19.175781 -9.273438 18.925781 -9.515625 18.75 -9.828125 L 18.421875 -10.453125 C 18.328125 -10.585938 18.222656 -10.660156 18.109375 -10.671875 C 16.210938 -10.816406 14.941406 -10.925781 14.296875 -11 C 14.160156 -11.019531 14.0625 -10.972656 14 -10.859375 C 13.707031 -10.441406 13.445312 -10.101562 13.21875 -9.84375 C 13.175781 -9.8125 13.171875 -9.773438 13.203125 -9.734375 C 13.203125 -9.703125 13.226562 -9.679688 13.28125 -9.671875 L 21.4375 -8.28125 C 21.75 -8.226562 22 -8.070312 22.1875 -7.8125 C 22.363281 -7.5625 22.425781 -7.28125 22.375 -6.96875 C 22.320312 -6.644531 22.171875 -6.390625 21.921875 -6.203125 C 21.671875 -6.023438 21.382812 -5.960938 21.0625 -6.015625 L 18.078125 -6.53125 C 18.046875 -6.53125 18.019531 -6.523438 18 -6.515625 C 17.976562 -6.503906 17.984375 -6.484375 18.015625 -6.453125 C 18.929688 -5.597656 19.96875 -4.832031 21.125 -4.15625 C 21.414062 -4 21.613281 -3.75 21.71875 -3.40625 C 21.832031 -3.0625 21.816406 -2.738281 21.671875 -2.4375 L 21.671875 -2.421875 C 21.523438 -2.117188 21.296875 -1.910156 20.984375 -1.796875 C 20.671875 -1.679688 20.378906 -1.71875 20.109375 -1.90625 C 18.109375 -3.125 16.457031 -4.453125 15.15625 -5.890625 C 15.144531 -5.898438 15.128906 -5.90625 15.109375 -5.90625 C 15.078125 -5.875 15.066406 -5.851562 15.078125 -5.84375 L 15.109375 -5.6875 C 15.210938 -5.375 15.171875 -5.066406 14.984375 -4.765625 C 14.804688 -4.472656 14.550781 -4.300781 14.21875 -4.25 C 11.894531 -3.894531 9.304688 -3.816406 6.453125 -4.015625 C 6.128906 -4.046875 5.867188 -4.160156 5.671875 -4.359375 C 5.441406 -4.578125 5.304688 -4.847656 5.265625 -5.171875 C 5.253906 -5.253906 5.203125 -5.28125 5.109375 -5.25 Z M 18.796875 2.25 C 15.097656 3.257812 10.628906 3.570312 5.390625 3.1875 C 5.035156 3.15625 4.726562 3.007812 4.46875 2.75 C 4.207031 2.507812 4.050781 2.210938 4 1.859375 C 3.945312 1.535156 4.035156 1.265625 4.265625 1.046875 C 4.484375 0.796875 4.75 0.691406 5.0625 0.734375 C 10.21875 1.117188 14.578125 0.863281 18.140625 -0.03125 C 18.441406 -0.125 18.738281 -0.09375 19.03125 0.0625 C 19.332031 0.238281 19.519531 0.472656 19.59375 0.765625 C 19.695312 1.085938 19.664062 1.382812 19.5 1.65625 C 19.351562 1.9375 19.117188 2.132812 18.796875 2.25 Z M 17.515625 -2.46875 C 17.597656 -2.164062 17.5625 -1.878906 17.40625 -1.609375 C 17.25 -1.316406 17 -1.140625 16.65625 -1.078125 C 13.726562 -0.359375 10.179688 -0.140625 6.015625 -0.421875 C 5.640625 -0.453125 5.320312 -0.585938 5.0625 -0.828125 C 4.8125 -1.066406 4.660156 -1.375 4.609375 -1.75 C 4.566406 -2.0625 4.65625 -2.332031 4.875 -2.5625 C 5.09375 -2.8125 5.363281 -2.914062 5.6875 -2.875 C 9.769531 -2.539062 13.234375 -2.691406 16.078125 -3.328125 C 16.410156 -3.378906 16.703125 -3.335938 16.953125 -3.203125 C 17.234375 -3.054688 17.421875 -2.8125 17.515625 -2.46875 Z M 17.515625 -2.46875 " />
            </g>
        </g>
    </g>
    <g fill="#ffffff" fill-opacity="1">
        <g transform="translate(63.084431, 51.244413)">
            <g>
                <path
                    d="M 8.09375 -10.703125 C 7.40625 -7.535156 6.664062 -5.054688 5.875 -3.265625 C 5.082031 -1.453125 4.097656 0.0859375 2.921875 1.359375 C 2.703125 1.597656 2.429688 1.695312 2.109375 1.65625 C 1.785156 1.613281 1.550781 1.453125 1.40625 1.171875 L 1.09375 0.65625 C 0.894531 0.320312 0.8125 -0.0195312 0.84375 -0.375 C 0.894531 -0.726562 1.039062 -1.046875 1.28125 -1.328125 C 2.164062 -2.359375 2.914062 -3.597656 3.53125 -5.046875 C 4.15625 -6.585938 4.75 -8.617188 5.3125 -11.140625 C 5.363281 -11.265625 5.316406 -11.34375 5.171875 -11.375 L 4.140625 -11.546875 C 3.804688 -11.609375 3.539062 -11.769531 3.34375 -12.03125 C 3.144531 -12.300781 3.078125 -12.609375 3.140625 -12.953125 L 3.15625 -13.046875 C 3.207031 -13.378906 3.367188 -13.644531 3.640625 -13.84375 C 3.921875 -14.039062 4.226562 -14.109375 4.5625 -14.046875 L 5.6875 -13.859375 C 5.820312 -13.835938 5.898438 -13.894531 5.921875 -14.03125 C 6.003906 -14.425781 6.117188 -15.066406 6.265625 -15.953125 C 6.328125 -16.285156 6.488281 -16.550781 6.75 -16.75 C 7.019531 -16.945312 7.335938 -17.015625 7.703125 -16.953125 L 8.015625 -16.90625 C 8.347656 -16.84375 8.617188 -16.664062 8.828125 -16.375 C 9.003906 -16.101562 9.066406 -15.796875 9.015625 -15.453125 C 8.867188 -14.585938 8.753906 -13.957031 8.671875 -13.5625 C 8.648438 -13.425781 8.695312 -13.347656 8.8125 -13.328125 L 12.109375 -12.765625 C 12.460938 -12.703125 12.726562 -12.539062 12.90625 -12.28125 C 13.113281 -11.976562 13.191406 -11.664062 13.140625 -11.34375 L 12.9375 -10.171875 C 12.695312 -8.796875 12.414062 -7.234375 12.09375 -5.484375 C 11.851562 -4.179688 11.613281 -3.035156 11.375 -2.046875 C 11.144531 -1.085938 10.921875 -0.300781 10.703125 0.3125 C 10.503906 0.914062 10.296875 1.414062 10.078125 1.8125 C 9.890625 2.15625 9.671875 2.410156 9.421875 2.578125 C 9.160156 2.742188 8.921875 2.835938 8.703125 2.859375 C 8.441406 2.890625 8.171875 2.882812 7.890625 2.84375 C 7.429688 2.757812 6.710938 2.585938 5.734375 2.328125 C 5.367188 2.242188 5.09375 2.054688 4.90625 1.765625 C 4.707031 1.472656 4.632812 1.148438 4.6875 0.796875 L 4.6875 0.625 C 4.726562 0.300781 4.890625 0.046875 5.171875 -0.140625 C 5.429688 -0.316406 5.722656 -0.359375 6.046875 -0.265625 C 6.546875 -0.128906 6.953125 -0.0351562 7.265625 0.015625 C 7.410156 0.0351562 7.546875 0.00390625 7.671875 -0.078125 C 7.765625 -0.148438 7.90625 -0.367188 8.09375 -0.734375 C 8.226562 -1.015625 8.394531 -1.503906 8.59375 -2.203125 C 8.769531 -2.835938 8.957031 -3.695312 9.15625 -4.78125 C 9.4375 -6.238281 9.679688 -7.582031 9.890625 -8.8125 L 10.140625 -10.3125 C 10.171875 -10.445312 10.128906 -10.523438 10.015625 -10.546875 L 8.328125 -10.828125 C 8.191406 -10.859375 8.113281 -10.816406 8.09375 -10.703125 Z M 16.859375 -11.015625 L 14.953125 0.140625 C 14.929688 0.253906 14.984375 0.328125 15.109375 0.359375 L 17.5 0.765625 C 17.613281 0.773438 17.679688 0.722656 17.703125 0.609375 L 19.609375 -10.546875 C 19.628906 -10.648438 19.582031 -10.707031 19.46875 -10.71875 L 17.078125 -11.125 C 16.953125 -11.15625 16.878906 -11.117188 16.859375 -11.015625 Z M 14.5 2.84375 C 14.445312 3.125 14.289062 3.351562 14.03125 3.53125 C 13.78125 3.71875 13.519531 3.789062 13.25 3.75 L 12.859375 3.6875 C 12.523438 3.625 12.257812 3.445312 12.0625 3.15625 C 11.875 2.894531 11.8125 2.59375 11.875 2.25 L 14.4375 -12.84375 C 14.5 -13.195312 14.660156 -13.472656 14.921875 -13.671875 C 15.203125 -13.867188 15.507812 -13.9375 15.84375 -13.875 L 21.65625 -12.890625 C 21.96875 -12.835938 22.222656 -12.664062 22.421875 -12.375 C 22.628906 -12.09375 22.707031 -11.785156 22.65625 -11.453125 L 20.09375 3.640625 C 20.03125 3.960938 19.851562 4.226562 19.5625 4.4375 C 19.28125 4.644531 18.984375 4.722656 18.671875 4.671875 L 18.140625 4.578125 C 17.847656 4.523438 17.613281 4.367188 17.4375 4.109375 C 17.257812 3.859375 17.195312 3.59375 17.25 3.3125 C 17.269531 3.207031 17.226562 3.148438 17.125 3.140625 L 14.671875 2.71875 C 14.578125 2.695312 14.519531 2.738281 14.5 2.84375 Z M 14.5 2.84375 " />
            </g>
        </g>
    </g>
    <g fill="#ffffff" fill-opacity="1">
        <g transform="translate(84.651423, 54.911527)">
            <g>
                <path
                    d="M 12.65625 -2.5625 C 11.164062 -2.8125 10.332031 -2.414062 10.15625 -1.375 C 9.957031 -0.226562 10.601562 0.46875 12.09375 0.71875 C 12.800781 0.84375 13.34375 0.769531 13.71875 0.5 C 14.09375 0.226562 14.34375 -0.28125 14.46875 -1.03125 L 14.546875 -1.453125 C 14.554688 -1.566406 14.507812 -1.671875 14.40625 -1.765625 C 13.882812 -2.179688 13.300781 -2.445312 12.65625 -2.5625 Z M 11.828125 3.1875 C 10.222656 2.914062 9.046875 2.34375 8.296875 1.46875 C 7.546875 0.59375 7.285156 -0.503906 7.515625 -1.828125 C 7.722656 -3.078125 8.320312 -3.988281 9.3125 -4.5625 C 10.300781 -5.144531 11.601562 -5.296875 13.21875 -5.015625 C 13.832031 -4.910156 14.378906 -4.734375 14.859375 -4.484375 C 14.984375 -4.441406 15.054688 -4.476562 15.078125 -4.59375 L 15.765625 -8.65625 C 15.785156 -8.789062 15.726562 -8.867188 15.59375 -8.890625 L 10.84375 -9.703125 C 10.5 -9.753906 10.226562 -9.921875 10.03125 -10.203125 C 9.832031 -10.492188 9.757812 -10.800781 9.8125 -11.125 C 9.875 -11.457031 10.046875 -11.71875 10.328125 -11.90625 C 10.609375 -12.101562 10.921875 -12.175781 11.265625 -12.125 L 16.015625 -11.3125 C 16.148438 -11.289062 16.226562 -11.347656 16.25 -11.484375 L 16.5625 -13.390625 C 16.625 -13.710938 16.796875 -13.972656 17.078125 -14.171875 C 17.367188 -14.378906 17.675781 -14.457031 18 -14.40625 L 18.296875 -14.34375 C 18.617188 -14.289062 18.878906 -14.117188 19.078125 -13.828125 C 19.285156 -13.546875 19.359375 -13.242188 19.296875 -12.921875 L 18.984375 -11.015625 C 18.960938 -10.878906 19.015625 -10.800781 19.140625 -10.78125 L 21.25 -10.421875 C 21.570312 -10.367188 21.832031 -10.203125 22.03125 -9.921875 C 22.238281 -9.648438 22.3125 -9.347656 22.25 -9.015625 C 22.195312 -8.691406 22.023438 -8.425781 21.734375 -8.21875 C 21.453125 -8.019531 21.148438 -7.945312 20.828125 -8 L 18.71875 -8.359375 C 18.59375 -8.378906 18.519531 -8.320312 18.5 -8.1875 L 17.53125 -2.5 C 17.507812 -2.394531 17.546875 -2.28125 17.640625 -2.15625 C 18.210938 -1.519531 18.945312 -0.566406 19.84375 0.703125 C 20.03125 0.992188 20.09375 1.304688 20.03125 1.640625 C 19.976562 1.984375 19.8125 2.253906 19.53125 2.453125 L 19.421875 2.53125 C 19.148438 2.707031 18.847656 2.765625 18.515625 2.703125 C 18.191406 2.648438 17.921875 2.488281 17.703125 2.21875 L 16.90625 1.0625 C 16.84375 0.957031 16.785156 0.96875 16.734375 1.09375 C 15.910156 2.90625 14.273438 3.601562 11.828125 3.1875 Z M 4.1875 1.71875 L 3.921875 1.71875 C 3.566406 1.695312 3.257812 1.5625 3 1.3125 C 2.75 1.070312 2.613281 0.78125 2.59375 0.4375 C 2.46875 -2.09375 2.632812 -4.726562 3.09375 -7.46875 C 3.5625 -10.207031 4.273438 -12.75 5.234375 -15.09375 C 5.359375 -15.40625 5.582031 -15.632812 5.90625 -15.78125 C 6.238281 -15.925781 6.570312 -15.945312 6.90625 -15.84375 L 7.171875 -15.78125 C 7.484375 -15.675781 7.707031 -15.472656 7.84375 -15.171875 C 7.976562 -14.878906 7.984375 -14.585938 7.859375 -14.296875 C 6.972656 -12.097656 6.300781 -9.664062 5.84375 -7 C 5.394531 -4.332031 5.226562 -1.816406 5.34375 0.546875 C 5.363281 0.878906 5.257812 1.160156 5.03125 1.390625 C 4.800781 1.628906 4.519531 1.738281 4.1875 1.71875 Z M 4.1875 1.71875 " />
            </g>
        </g>
    </g>
    <g fill="#ffffff" fill-opacity="1">
        <g transform="translate(106.218415, 58.578642)">
            <g>
                <path
                    d="M 5.8125 -2.859375 L 5.453125 -0.78125 C 5.429688 -0.65625 5.488281 -0.582031 5.625 -0.5625 L 16.46875 1.296875 C 16.582031 1.304688 16.648438 1.25 16.671875 1.125 L 17.03125 -0.953125 C 17.050781 -1.078125 17.003906 -1.144531 16.890625 -1.15625 L 6.046875 -3.015625 C 5.910156 -3.035156 5.832031 -2.984375 5.8125 -2.859375 Z M 6.578125 -7.421875 L 6.234375 -5.375 C 6.210938 -5.257812 6.269531 -5.191406 6.40625 -5.171875 L 17.25 -3.3125 C 17.363281 -3.300781 17.429688 -3.351562 17.453125 -3.46875 L 17.796875 -5.515625 C 17.816406 -5.628906 17.769531 -5.691406 17.65625 -5.703125 L 6.8125 -7.5625 C 6.675781 -7.582031 6.597656 -7.535156 6.578125 -7.421875 Z M 7.359375 -11.953125 L 7.015625 -9.953125 C 6.992188 -9.816406 7.050781 -9.738281 7.1875 -9.71875 L 18.03125 -7.859375 C 18.144531 -7.847656 18.210938 -7.910156 18.234375 -8.046875 L 18.578125 -10.046875 C 18.585938 -10.160156 18.535156 -10.222656 18.421875 -10.234375 L 7.578125 -12.09375 C 7.441406 -12.113281 7.367188 -12.066406 7.359375 -11.953125 Z M 5.015625 1.796875 C 4.972656 2.046875 4.847656 2.242188 4.640625 2.390625 C 4.472656 2.515625 4.257812 2.554688 4 2.515625 L 3.21875 2.375 C 2.894531 2.320312 2.628906 2.15625 2.421875 1.875 C 2.222656 1.59375 2.15625 1.289062 2.21875 0.96875 L 4.71875 -13.734375 C 4.769531 -14.066406 4.9375 -14.332031 5.21875 -14.53125 C 5.5 -14.738281 5.800781 -14.816406 6.125 -14.765625 L 10.796875 -13.96875 C 10.910156 -13.945312 11 -13.988281 11.0625 -14.09375 C 11.269531 -14.46875 11.515625 -14.941406 11.796875 -15.515625 C 11.953125 -15.835938 12.1875 -16.070312 12.5 -16.21875 C 12.820312 -16.363281 13.148438 -16.390625 13.484375 -16.296875 L 14 -16.140625 C 14.289062 -16.078125 14.515625 -15.890625 14.671875 -15.578125 C 14.816406 -15.273438 14.820312 -14.984375 14.6875 -14.703125 L 14.125 -13.578125 C 14.101562 -13.546875 14.109375 -13.503906 14.140625 -13.453125 C 14.140625 -13.410156 14.160156 -13.390625 14.203125 -13.390625 L 20.65625 -12.296875 C 20.976562 -12.234375 21.238281 -12.054688 21.4375 -11.765625 C 21.632812 -11.484375 21.707031 -11.175781 21.65625 -10.84375 L 19.15625 3.859375 C 19.09375 4.179688 18.921875 4.441406 18.640625 4.640625 C 18.367188 4.835938 18.070312 4.90625 17.75 4.84375 L 16.96875 4.71875 C 16.707031 4.675781 16.515625 4.566406 16.390625 4.390625 C 16.242188 4.179688 16.191406 3.953125 16.234375 3.703125 C 16.242188 3.617188 16.207031 3.570312 16.125 3.5625 L 5.15625 1.703125 C 5.070312 1.679688 5.023438 1.710938 5.015625 1.796875 Z M 5.015625 1.796875 " />
            </g>
        </g>
    </g>
    <g fill="#ffffff" fill-opacity="1">
        <g transform="translate(127.785407, 62.245756)">
            <g>
                <path
                    d="M 5.5625 -4.625 L 4.921875 -0.890625 C 4.898438 -0.785156 4.957031 -0.71875 5.09375 -0.6875 L 9.4375 0.046875 C 9.5625 0.0664062 9.632812 0.0234375 9.65625 -0.078125 L 10.296875 -3.8125 C 10.316406 -3.945312 10.265625 -4.023438 10.140625 -4.046875 L 5.796875 -4.78125 C 5.660156 -4.8125 5.582031 -4.757812 5.5625 -4.625 Z M 6.609375 -10.75 L 6.015625 -7.3125 C 5.992188 -7.195312 6.050781 -7.125 6.1875 -7.09375 L 10.53125 -6.359375 C 10.65625 -6.335938 10.726562 -6.382812 10.75 -6.5 L 11.34375 -9.9375 C 11.351562 -10.050781 11.296875 -10.117188 11.171875 -10.140625 L 6.828125 -10.875 C 6.691406 -10.90625 6.617188 -10.863281 6.609375 -10.75 Z M 18.71875 -8.859375 L 14.375 -9.59375 C 14.238281 -9.613281 14.164062 -9.566406 14.15625 -9.453125 L 13.5625 -6.015625 C 13.539062 -5.898438 13.597656 -5.832031 13.734375 -5.8125 L 18.078125 -5.078125 C 18.203125 -5.054688 18.273438 -5.101562 18.296875 -5.21875 L 18.890625 -8.65625 C 18.898438 -8.769531 18.84375 -8.835938 18.71875 -8.859375 Z M 17.21875 1.171875 L 17.84375 -2.5625 C 17.863281 -2.675781 17.8125 -2.742188 17.6875 -2.765625 L 13.34375 -3.5 C 13.207031 -3.519531 13.128906 -3.472656 13.109375 -3.359375 L 12.484375 0.375 C 12.453125 0.5 12.503906 0.570312 12.640625 0.59375 L 16.984375 1.328125 C 17.109375 1.347656 17.1875 1.296875 17.21875 1.171875 Z M 4.484375 1.734375 C 4.429688 2.003906 4.273438 2.226562 4.015625 2.40625 C 3.765625 2.582031 3.503906 2.648438 3.234375 2.609375 L 2.625 2.5 C 2.300781 2.445312 2.035156 2.273438 1.828125 1.984375 C 1.640625 1.722656 1.570312 1.425781 1.625 1.09375 L 3.953125 -12.578125 C 4.003906 -12.910156 4.164062 -13.164062 4.4375 -13.34375 C 4.726562 -13.550781 5.035156 -13.628906 5.359375 -13.578125 L 11.578125 -12.515625 C 11.703125 -12.492188 11.773438 -12.550781 11.796875 -12.6875 L 12.203125 -15.078125 C 12.265625 -15.421875 12.441406 -15.695312 12.734375 -15.90625 C 13.003906 -16.09375 13.3125 -16.160156 13.65625 -16.109375 L 14 -16.046875 C 14.34375 -15.984375 14.609375 -15.816406 14.796875 -15.546875 C 15.003906 -15.253906 15.078125 -14.9375 15.015625 -14.59375 L 14.609375 -12.203125 C 14.585938 -12.066406 14.644531 -11.988281 14.78125 -11.96875 L 20.984375 -10.921875 C 21.304688 -10.859375 21.570312 -10.679688 21.78125 -10.390625 C 21.96875 -10.140625 22.035156 -9.847656 21.984375 -9.515625 L 19.65625 4.15625 C 19.601562 4.488281 19.441406 4.75 19.171875 4.9375 C 18.878906 5.144531 18.570312 5.21875 18.25 5.15625 L 17.640625 5.0625 C 17.367188 5.007812 17.140625 4.859375 16.953125 4.609375 C 16.773438 4.359375 16.710938 4.097656 16.765625 3.828125 C 16.773438 3.722656 16.734375 3.664062 16.640625 3.65625 L 4.65625 1.609375 C 4.550781 1.585938 4.492188 1.628906 4.484375 1.734375 Z M 4.484375 1.734375 " />
            </g>
        </g>
    </g>
    <g fill="#ffffff" fill-opacity="1">
        <g transform="translate(149.352399, 65.91287)">
            <g>
                <path
                    d="M 11.75 -2.890625 L 11.4375 -2.9375 C 11.101562 -3 10.828125 -3.164062 10.609375 -3.4375 C 10.398438 -3.71875 10.320312 -4.035156 10.375 -4.390625 L 11.515625 -12.984375 C 11.546875 -13.304688 11.695312 -13.570312 11.96875 -13.78125 C 12.238281 -13.988281 12.539062 -14.066406 12.875 -14.015625 L 14.046875 -13.8125 C 14.367188 -13.757812 14.625 -13.585938 14.8125 -13.296875 C 15 -13.003906 15.054688 -12.703125 14.984375 -12.390625 L 13.21875 -3.90625 C 13.144531 -3.550781 12.960938 -3.273438 12.671875 -3.078125 C 12.390625 -2.890625 12.082031 -2.828125 11.75 -2.890625 Z M 9.421875 0.328125 L 9.515625 -0.21875 C 9.578125 -0.550781 9.742188 -0.816406 10.015625 -1.015625 C 10.296875 -1.222656 10.597656 -1.300781 10.921875 -1.25 L 11.671875 -1.125 C 11.992188 -1.0625 12.253906 -0.890625 12.453125 -0.609375 C 12.648438 -0.328125 12.71875 -0.0195312 12.65625 0.3125 L 12.5625 0.859375 C 12.507812 1.191406 12.34375 1.460938 12.0625 1.671875 C 11.78125 1.878906 11.476562 1.953125 11.15625 1.890625 L 10.40625 1.765625 C 10.082031 1.710938 9.820312 1.539062 9.625 1.25 C 9.4375 0.96875 9.367188 0.660156 9.421875 0.328125 Z M 9.421875 0.328125 " />
            </g>
        </g>
    </g>
    <g fill="#ffffff" fill-opacity="1">
        <g transform="translate(25.601655, 75.892905)">
            <g>
                <path
                    d="M 7.359375 -12.890625 L 7.5 -10.75 C 7.507812 -10.601562 7.570312 -10.523438 7.6875 -10.515625 L 8.546875 -10.359375 C 8.671875 -10.335938 8.765625 -10.382812 8.828125 -10.5 C 9.066406 -11 9.382812 -11.671875 9.78125 -12.515625 C 9.800781 -12.554688 9.800781 -12.59375 9.78125 -12.625 C 9.738281 -12.675781 9.695312 -12.707031 9.65625 -12.71875 L 7.546875 -13.078125 C 7.484375 -13.085938 7.4375 -13.070312 7.40625 -13.03125 C 7.382812 -13 7.367188 -12.953125 7.359375 -12.890625 Z M 5.578125 -7.0625 C 7.242188 -7.21875 8.617188 -7.460938 9.703125 -7.796875 C 9.710938 -7.816406 9.71875 -7.832031 9.71875 -7.84375 C 9.726562 -7.863281 9.710938 -7.878906 9.671875 -7.890625 L 5.84375 -8.546875 C 5.71875 -8.566406 5.644531 -8.515625 5.625 -8.390625 L 5.421875 -7.234375 C 5.410156 -7.191406 5.425781 -7.148438 5.46875 -7.109375 C 5.507812 -7.066406 5.546875 -7.050781 5.578125 -7.0625 Z M 19.453125 -7.46875 L 19.578125 -8.234375 C 19.597656 -8.359375 19.546875 -8.429688 19.421875 -8.453125 L 16.15625 -9 C 16.03125 -9.019531 15.957031 -8.96875 15.9375 -8.84375 L 15.8125 -8.078125 C 15.789062 -7.972656 15.84375 -7.910156 15.96875 -7.890625 L 19.234375 -7.34375 C 19.359375 -7.320312 19.429688 -7.363281 19.453125 -7.46875 Z M 18.953125 -4.53125 L 19.09375 -5.3125 C 19.113281 -5.4375 19.0625 -5.507812 18.9375 -5.53125 L 15.671875 -6.078125 C 15.546875 -6.097656 15.472656 -6.046875 15.453125 -5.921875 L 15.3125 -5.140625 C 15.289062 -5.015625 15.34375 -4.941406 15.46875 -4.921875 L 18.734375 -4.375 C 18.859375 -4.351562 18.929688 -4.40625 18.953125 -4.53125 Z M 18.4375 -1.546875 L 18.578125 -2.375 C 18.609375 -2.5 18.5625 -2.570312 18.4375 -2.59375 L 15.171875 -3.140625 C 15.046875 -3.160156 14.96875 -3.109375 14.9375 -2.984375 L 14.796875 -2.15625 C 14.773438 -2.03125 14.828125 -1.957031 14.953125 -1.9375 L 18.21875 -1.390625 C 18.34375 -1.367188 18.414062 -1.421875 18.4375 -1.546875 Z M 3.0625 1.015625 L 2.78125 1.484375 C 2.632812 1.742188 2.410156 1.882812 2.109375 1.90625 C 1.816406 1.925781 1.582031 1.800781 1.40625 1.53125 L 1.09375 1.125 C 0.882812 0.84375 0.769531 0.492188 0.75 0.078125 C 0.707031 -0.265625 0.773438 -0.613281 0.953125 -0.96875 C 1.359375 -1.726562 1.722656 -2.707031 2.046875 -3.90625 C 2.367188 -5.09375 2.695312 -6.691406 3.03125 -8.703125 L 3.265625 -10.046875 C 3.316406 -10.367188 3.472656 -10.625 3.734375 -10.8125 C 4.023438 -11.007812 4.34375 -11.078125 4.6875 -11.015625 L 4.765625 -11 C 4.816406 -10.988281 4.859375 -11.003906 4.890625 -11.046875 C 4.929688 -11.109375 4.953125 -11.15625 4.953125 -11.1875 L 4.8125 -13.375 C 4.8125 -13.488281 4.753906 -13.550781 4.640625 -13.5625 C 4.347656 -13.613281 4.117188 -13.757812 3.953125 -14 C 3.785156 -14.238281 3.726562 -14.5 3.78125 -14.78125 L 3.796875 -14.84375 C 3.847656 -15.164062 4 -15.414062 4.25 -15.59375 C 4.5 -15.769531 4.773438 -15.832031 5.078125 -15.78125 L 7.234375 -15.40625 C 7.367188 -15.382812 7.445312 -15.429688 7.46875 -15.546875 L 7.5 -15.703125 C 7.550781 -16.023438 7.71875 -16.289062 8 -16.5 C 8.28125 -16.707031 8.582031 -16.785156 8.90625 -16.734375 L 9.3125 -16.65625 C 9.644531 -16.601562 9.910156 -16.429688 10.109375 -16.140625 C 10.296875 -15.867188 10.363281 -15.5625 10.3125 -15.21875 L 10.28125 -15.0625 C 10.257812 -14.945312 10.316406 -14.878906 10.453125 -14.859375 L 13.203125 -14.390625 C 13.273438 -14.378906 13.316406 -14.410156 13.328125 -14.484375 C 13.367188 -14.710938 13.472656 -14.890625 13.640625 -15.015625 C 13.828125 -15.140625 14.03125 -15.1875 14.25 -15.15625 L 22.625 -13.71875 C 22.925781 -13.664062 23.171875 -13.503906 23.359375 -13.234375 C 23.554688 -12.972656 23.628906 -12.675781 23.578125 -12.34375 C 23.523438 -12.019531 23.359375 -11.757812 23.078125 -11.5625 C 22.804688 -11.363281 22.519531 -11.289062 22.21875 -11.34375 L 19.640625 -11.78125 C 19.523438 -11.800781 19.441406 -11.765625 19.390625 -11.671875 C 19.316406 -11.472656 19.210938 -11.210938 19.078125 -10.890625 C 19.054688 -10.847656 19.054688 -10.800781 19.078125 -10.75 C 19.078125 -10.707031 19.101562 -10.679688 19.15625 -10.671875 L 21.4375 -10.296875 C 21.789062 -10.234375 22.066406 -10.066406 22.265625 -9.796875 C 22.460938 -9.503906 22.53125 -9.195312 22.46875 -8.875 L 20.96875 0.015625 C 20.90625 0.347656 20.726562 0.613281 20.4375 0.8125 C 20.15625 1.019531 19.847656 1.09375 19.515625 1.03125 L 18 0.78125 C 17.976562 0.769531 17.960938 0.769531 17.953125 0.78125 C 17.941406 0.78125 17.941406 0.796875 17.953125 0.828125 C 18.828125 1.484375 19.648438 2.179688 20.421875 2.921875 C 20.671875 3.179688 20.789062 3.476562 20.78125 3.8125 C 20.78125 4.132812 20.664062 4.429688 20.4375 4.703125 C 20.226562 4.929688 19.953125 5.050781 19.609375 5.0625 C 19.273438 5.070312 19 4.96875 18.78125 4.75 C 18.175781 4.164062 17.503906 3.578125 16.765625 2.984375 C 16.492188 2.773438 16.34375 2.503906 16.3125 2.171875 C 16.28125 1.835938 16.367188 1.539062 16.578125 1.28125 L 17.046875 0.78125 C 17.066406 0.757812 17.070312 0.726562 17.0625 0.6875 C 17.039062 0.632812 17.015625 0.609375 16.984375 0.609375 L 14.78125 0.234375 C 14.75 0.222656 14.71875 0.226562 14.6875 0.25 C 14.65625 0.269531 14.648438 0.3125 14.671875 0.375 L 14.953125 0.921875 C 15.117188 1.222656 15.148438 1.550781 15.046875 1.90625 C 14.941406 2.257812 14.738281 2.507812 14.4375 2.65625 C 13.695312 3.03125 12.859375 3.375 11.921875 3.6875 C 11.535156 3.769531 11.207031 3.734375 10.9375 3.578125 C 10.625 3.421875 10.40625 3.164062 10.28125 2.8125 C 10.175781 2.488281 10.1875 2.195312 10.3125 1.9375 C 10.445312 1.625 10.691406 1.414062 11.046875 1.3125 C 12.179688 0.957031 13.117188 0.582031 13.859375 0.1875 C 13.890625 0.15625 13.90625 0.125 13.90625 0.09375 C 13.882812 0.0820312 13.863281 0.0703125 13.84375 0.0625 L 13.03125 -0.0625 C 12.6875 -0.125 12.410156 -0.300781 12.203125 -0.59375 C 12.015625 -0.851562 11.953125 -1.160156 12.015625 -1.515625 L 13.515625 -10.40625 C 13.578125 -10.738281 13.742188 -11 14.015625 -11.1875 C 14.285156 -11.382812 14.597656 -11.453125 14.953125 -11.390625 L 15.9375 -11.21875 C 16.070312 -11.195312 16.171875 -11.25 16.234375 -11.375 C 16.367188 -11.695312 16.472656 -11.957031 16.546875 -12.15625 C 16.578125 -12.164062 16.582031 -12.207031 16.5625 -12.28125 C 16.539062 -12.300781 16.503906 -12.316406 16.453125 -12.328125 L 13.390625 -12.84375 C 13.316406 -12.863281 13.273438 -12.847656 13.265625 -12.796875 C 13.234375 -12.609375 13.140625 -12.457031 12.984375 -12.34375 C 12.835938 -12.238281 12.675781 -12.203125 12.5 -12.234375 L 12.421875 -12.25 C 12.347656 -12.257812 12.296875 -12.226562 12.265625 -12.15625 C 11.960938 -11.445312 11.640625 -10.765625 11.296875 -10.109375 C 11.265625 -10.066406 11.257812 -10.019531 11.28125 -9.96875 C 11.300781 -9.914062 11.332031 -9.882812 11.375 -9.875 L 11.703125 -9.828125 C 12.023438 -9.773438 12.273438 -9.625 12.453125 -9.375 C 12.628906 -9.125 12.691406 -8.847656 12.640625 -8.546875 C 12.585938 -8.234375 12.4375 -7.984375 12.1875 -7.796875 C 11.9375 -7.617188 11.648438 -7.554688 11.328125 -7.609375 C 11.296875 -7.609375 11.269531 -7.601562 11.25 -7.59375 C 11.21875 -7.550781 11.210938 -7.515625 11.234375 -7.484375 C 11.367188 -7.128906 11.363281 -6.800781 11.21875 -6.5 C 11.070312 -6.175781 10.84375 -5.957031 10.53125 -5.84375 C 9.550781 -5.476562 8.378906 -5.195312 7.015625 -5 C 6.660156 -4.957031 6.332031 -5.035156 6.03125 -5.234375 C 5.75 -5.429688 5.554688 -5.707031 5.453125 -6.0625 L 5.359375 -6.40625 C 5.335938 -6.4375 5.3125 -6.441406 5.28125 -6.421875 C 5.09375 -5.304688 4.898438 -4.359375 4.703125 -3.578125 C 4.703125 -3.535156 4.71875 -3.492188 4.75 -3.453125 C 4.78125 -3.421875 4.816406 -3.40625 4.859375 -3.40625 C 6.734375 -3.601562 8.363281 -3.957031 9.75 -4.46875 C 10.019531 -4.5625 10.28125 -4.5625 10.53125 -4.46875 C 10.789062 -4.351562 10.976562 -4.160156 11.09375 -3.890625 C 11.1875 -3.597656 11.179688 -3.316406 11.078125 -3.046875 C 10.953125 -2.742188 10.765625 -2.535156 10.515625 -2.421875 C 9.117188 -1.835938 7.546875 -1.425781 5.796875 -1.1875 C 5.460938 -1.125 5.164062 -1.195312 4.90625 -1.40625 C 4.644531 -1.613281 4.476562 -1.859375 4.40625 -2.140625 C 4.40625 -2.160156 4.390625 -2.175781 4.359375 -2.1875 C 4.347656 -2.1875 4.34375 -2.175781 4.34375 -2.15625 C 4.0625 -1.238281 3.738281 -0.40625 3.375 0.34375 C 3.363281 0.375 3.367188 0.40625 3.390625 0.4375 C 3.410156 0.46875 3.441406 0.484375 3.484375 0.484375 C 5.878906 0.265625 7.921875 -0.203125 9.609375 -0.921875 C 9.898438 -1.035156 10.1875 -1.039062 10.46875 -0.9375 C 10.738281 -0.8125 10.929688 -0.628906 11.046875 -0.390625 C 11.179688 -0.0976562 11.195312 0.1875 11.09375 0.46875 C 11 0.75 10.804688 0.960938 10.515625 1.109375 C 8.828125 1.941406 6.9375 2.472656 4.84375 2.703125 C 4.488281 2.753906 4.171875 2.671875 3.890625 2.453125 C 3.609375 2.242188 3.421875 1.96875 3.328125 1.625 L 3.171875 1 C 3.171875 0.988281 3.148438 0.984375 3.109375 0.984375 C 3.078125 0.972656 3.0625 0.984375 3.0625 1.015625 Z M 3.0625 1.015625 " />
            </g>
        </g>
    </g>
    <g fill="#ffffff" fill-opacity="1">
        <g transform="translate(47.168646, 79.56002)">
            <g>
                <path
                    d="M 4.546875 1.59375 C 4.503906 1.882812 4.351562 2.117188 4.09375 2.296875 C 3.84375 2.472656 3.578125 2.535156 3.296875 2.484375 L 2.765625 2.40625 C 2.453125 2.34375 2.191406 2.164062 1.984375 1.875 C 1.785156 1.59375 1.710938 1.285156 1.765625 0.953125 L 2.828125 -5.296875 C 2.878906 -5.617188 3.046875 -5.882812 3.328125 -6.09375 C 3.617188 -6.300781 3.921875 -6.375 4.234375 -6.3125 L 4.609375 -6.25 C 4.929688 -6.195312 5.195312 -6.023438 5.40625 -5.734375 C 5.613281 -5.441406 5.691406 -5.132812 5.640625 -4.8125 L 5.03125 -1.1875 C 5 -1.050781 5.039062 -0.972656 5.15625 -0.953125 L 9.453125 -0.21875 C 9.554688 -0.207031 9.625 -0.269531 9.65625 -0.40625 L 10.703125 -6.578125 C 10.722656 -6.703125 10.679688 -6.769531 10.578125 -6.78125 L 5.453125 -7.65625 C 5.109375 -7.71875 4.832031 -7.894531 4.625 -8.1875 C 4.4375 -8.445312 4.367188 -8.738281 4.421875 -9.0625 L 5.28125 -14.125 C 5.332031 -14.445312 5.492188 -14.707031 5.765625 -14.90625 C 6.054688 -15.101562 6.375 -15.171875 6.71875 -15.109375 L 7.046875 -15.0625 C 7.378906 -15 7.644531 -14.828125 7.84375 -14.546875 C 8.03125 -14.273438 8.097656 -13.976562 8.046875 -13.65625 L 7.421875 -9.9375 C 7.398438 -9.820312 7.457031 -9.753906 7.59375 -9.734375 L 10.984375 -9.15625 C 11.085938 -9.144531 11.148438 -9.195312 11.171875 -9.3125 L 12.09375 -14.8125 C 12.15625 -15.132812 12.328125 -15.398438 12.609375 -15.609375 C 12.898438 -15.816406 13.210938 -15.890625 13.546875 -15.828125 L 14.015625 -15.75 C 14.328125 -15.695312 14.585938 -15.523438 14.796875 -15.234375 C 15.003906 -14.941406 15.078125 -14.632812 15.015625 -14.3125 L 14.09375 -8.8125 C 14.070312 -8.695312 14.125 -8.628906 14.25 -8.609375 L 17.625 -8.03125 C 17.757812 -8.007812 17.835938 -8.054688 17.859375 -8.171875 L 18.484375 -11.890625 C 18.535156 -12.210938 18.695312 -12.46875 18.96875 -12.65625 C 19.257812 -12.851562 19.566406 -12.925781 19.890625 -12.875 L 20.21875 -12.8125 C 20.5625 -12.757812 20.835938 -12.59375 21.046875 -12.3125 C 21.234375 -12.039062 21.300781 -11.742188 21.25 -11.421875 L 20.390625 -6.359375 C 20.335938 -6.035156 20.175781 -5.78125 19.90625 -5.59375 C 19.613281 -5.382812 19.296875 -5.304688 18.953125 -5.359375 L 13.84375 -6.234375 C 13.71875 -6.253906 13.644531 -6.203125 13.625 -6.078125 L 12.578125 0.09375 C 12.546875 0.226562 12.59375 0.304688 12.71875 0.328125 L 17.015625 1.0625 C 17.117188 1.082031 17.1875 1.023438 17.21875 0.890625 L 17.828125 -2.734375 C 17.878906 -3.054688 18.050781 -3.320312 18.34375 -3.53125 C 18.632812 -3.738281 18.941406 -3.816406 19.265625 -3.765625 L 19.640625 -3.703125 C 19.960938 -3.648438 20.222656 -3.476562 20.421875 -3.1875 C 20.617188 -2.894531 20.691406 -2.585938 20.640625 -2.265625 L 19.578125 3.984375 C 19.523438 4.316406 19.359375 4.582031 19.078125 4.78125 C 18.796875 4.988281 18.492188 5.066406 18.171875 5.015625 L 17.640625 4.921875 C 17.359375 4.878906 17.125 4.734375 16.9375 4.484375 C 16.757812 4.234375 16.691406 3.960938 16.734375 3.671875 C 16.753906 3.566406 16.71875 3.503906 16.625 3.484375 L 4.734375 1.46875 C 4.628906 1.445312 4.566406 1.488281 4.546875 1.59375 Z M 4.546875 1.59375 " />
            </g>
        </g>
    </g>
    <g fill="#ffffff" fill-opacity="1">
        <g transform="translate(68.735638, 83.227134)">
            <g>
                <path
                    d="M 10.203125 3 C 7.765625 2.582031 6.175781 1.703125 5.4375 0.359375 C 4.695312 -0.984375 4.597656 -3.25 5.140625 -6.4375 C 5.585938 -9.039062 6.148438 -11.832031 6.828125 -14.8125 C 6.910156 -15.15625 7.085938 -15.421875 7.359375 -15.609375 C 7.640625 -15.796875 7.953125 -15.859375 8.296875 -15.796875 L 8.828125 -15.703125 C 9.148438 -15.640625 9.398438 -15.460938 9.578125 -15.171875 C 9.753906 -14.878906 9.804688 -14.578125 9.734375 -14.265625 C 9.078125 -11.191406 8.535156 -8.414062 8.109375 -5.9375 C 7.847656 -4.394531 7.773438 -3.195312 7.890625 -2.34375 C 8.003906 -1.488281 8.269531 -0.878906 8.6875 -0.515625 C 9.113281 -0.148438 9.769531 0.101562 10.65625 0.25 C 13.144531 0.675781 15.46875 -0.664062 17.625 -3.78125 C 17.820312 -4.070312 18.082031 -4.253906 18.40625 -4.328125 C 18.738281 -4.410156 19.050781 -4.367188 19.34375 -4.203125 L 19.609375 -4.03125 C 19.910156 -3.875 20.101562 -3.617188 20.1875 -3.265625 C 20.28125 -2.921875 20.226562 -2.613281 20.03125 -2.34375 C 17.289062 1.863281 14.015625 3.644531 10.203125 3 Z M 10.203125 3 " />
            </g>
        </g>
    </g>
    <g fill="#ffffff" fill-opacity="1">
        <g transform="translate(90.30263, 86.894248)">
            <g>
                <path
                    d="M 7.296875 -3.421875 C 7.359375 -3.773438 7.507812 -4.566406 7.75 -5.796875 C 7.769531 -5.921875 7.722656 -5.992188 7.609375 -6.015625 L 4.375 -6.5625 C 4.050781 -6.625 3.785156 -6.800781 3.578125 -7.09375 C 3.367188 -7.382812 3.289062 -7.691406 3.34375 -8.015625 C 3.40625 -8.347656 3.582031 -8.609375 3.875 -8.796875 C 4.164062 -8.992188 4.472656 -9.0625 4.796875 -9 L 8.140625 -8.4375 C 8.265625 -8.414062 8.335938 -8.472656 8.359375 -8.609375 C 8.546875 -9.359375 8.722656 -10.113281 8.890625 -10.875 C 8.910156 -11.007812 8.863281 -11.082031 8.75 -11.09375 L 5.8125 -11.59375 C 5.476562 -11.65625 5.210938 -11.820312 5.015625 -12.09375 C 4.828125 -12.375 4.757812 -12.675781 4.8125 -13 C 4.875 -13.332031 5.039062 -13.601562 5.3125 -13.8125 C 5.59375 -14.019531 5.898438 -14.09375 6.234375 -14.03125 L 9.3125 -13.515625 C 9.457031 -13.492188 9.539062 -13.546875 9.5625 -13.671875 L 9.8125 -14.765625 C 9.882812 -15.097656 10.066406 -15.351562 10.359375 -15.53125 C 10.660156 -15.71875 10.984375 -15.773438 11.328125 -15.703125 L 11.765625 -15.640625 C 12.078125 -15.566406 12.328125 -15.390625 12.515625 -15.109375 C 12.703125 -14.828125 12.753906 -14.523438 12.671875 -14.203125 L 12.4375 -13.171875 C 12.414062 -13.046875 12.460938 -12.972656 12.578125 -12.953125 L 18.828125 -11.890625 C 19.160156 -11.835938 19.421875 -11.664062 19.609375 -11.375 C 19.804688 -11.082031 19.875 -10.769531 19.8125 -10.4375 C 19.757812 -10.113281 19.59375 -9.851562 19.3125 -9.65625 C 19.039062 -9.46875 18.738281 -9.398438 18.40625 -9.453125 L 11.984375 -10.546875 C 11.847656 -10.566406 11.769531 -10.519531 11.75 -10.40625 C 11.601562 -9.738281 11.429688 -8.976562 11.234375 -8.125 C 11.210938 -7.988281 11.257812 -7.910156 11.375 -7.890625 L 16.4375 -7.03125 C 16.769531 -6.96875 17.03125 -6.800781 17.21875 -6.53125 C 17.414062 -6.257812 17.484375 -5.957031 17.421875 -5.625 C 17.367188 -5.300781 17.203125 -5.03125 16.921875 -4.8125 C 16.648438 -4.601562 16.347656 -4.53125 16.015625 -4.59375 L 10.859375 -5.46875 C 10.734375 -5.488281 10.660156 -5.4375 10.640625 -5.3125 C 10.398438 -4.070312 10.25 -3.273438 10.1875 -2.921875 C 9.957031 -1.554688 10.015625 -0.640625 10.359375 -0.171875 C 10.710938 0.285156 11.625 0.640625 13.09375 0.890625 C 14.6875 1.160156 15.820312 1.144531 16.5 0.84375 C 17.175781 0.550781 17.597656 -0.0703125 17.765625 -1.03125 C 17.785156 -1.132812 17.800781 -1.332031 17.8125 -1.625 C 17.832031 -1.976562 17.957031 -2.28125 18.1875 -2.53125 C 18.414062 -2.78125 18.691406 -2.910156 19.015625 -2.921875 L 19.3125 -2.9375 C 19.65625 -2.957031 19.953125 -2.847656 20.203125 -2.609375 C 20.453125 -2.378906 20.582031 -2.09375 20.59375 -1.75 C 20.582031 -1.207031 20.546875 -0.742188 20.484375 -0.359375 C 20.191406 1.347656 19.414062 2.515625 18.15625 3.140625 C 16.894531 3.773438 15.0625 3.890625 12.65625 3.484375 C 10.238281 3.078125 8.644531 2.378906 7.875 1.390625 C 7.113281 0.410156 6.921875 -1.191406 7.296875 -3.421875 Z M 7.296875 -3.421875 " />
            </g>
        </g>
    </g>
    <g fill="#ffffff" fill-opacity="1">
        <g transform="translate(111.869622, 90.561362)">
            <g>
                <path
                    d="M 5.8125 -2.859375 L 5.453125 -0.78125 C 5.429688 -0.65625 5.488281 -0.582031 5.625 -0.5625 L 16.46875 1.296875 C 16.582031 1.304688 16.648438 1.25 16.671875 1.125 L 17.03125 -0.953125 C 17.050781 -1.078125 17.003906 -1.144531 16.890625 -1.15625 L 6.046875 -3.015625 C 5.910156 -3.035156 5.832031 -2.984375 5.8125 -2.859375 Z M 6.578125 -7.421875 L 6.234375 -5.375 C 6.210938 -5.257812 6.269531 -5.191406 6.40625 -5.171875 L 17.25 -3.3125 C 17.363281 -3.300781 17.429688 -3.351562 17.453125 -3.46875 L 17.796875 -5.515625 C 17.816406 -5.628906 17.769531 -5.691406 17.65625 -5.703125 L 6.8125 -7.5625 C 6.675781 -7.582031 6.597656 -7.535156 6.578125 -7.421875 Z M 7.359375 -11.953125 L 7.015625 -9.953125 C 6.992188 -9.816406 7.050781 -9.738281 7.1875 -9.71875 L 18.03125 -7.859375 C 18.144531 -7.847656 18.210938 -7.910156 18.234375 -8.046875 L 18.578125 -10.046875 C 18.585938 -10.160156 18.535156 -10.222656 18.421875 -10.234375 L 7.578125 -12.09375 C 7.441406 -12.113281 7.367188 -12.066406 7.359375 -11.953125 Z M 5.015625 1.796875 C 4.972656 2.046875 4.847656 2.242188 4.640625 2.390625 C 4.472656 2.515625 4.257812 2.554688 4 2.515625 L 3.21875 2.375 C 2.894531 2.320312 2.628906 2.15625 2.421875 1.875 C 2.222656 1.59375 2.15625 1.289062 2.21875 0.96875 L 4.71875 -13.734375 C 4.769531 -14.066406 4.9375 -14.332031 5.21875 -14.53125 C 5.5 -14.738281 5.800781 -14.816406 6.125 -14.765625 L 10.796875 -13.96875 C 10.910156 -13.945312 11 -13.988281 11.0625 -14.09375 C 11.269531 -14.46875 11.515625 -14.941406 11.796875 -15.515625 C 11.953125 -15.835938 12.1875 -16.070312 12.5 -16.21875 C 12.820312 -16.363281 13.148438 -16.390625 13.484375 -16.296875 L 14 -16.140625 C 14.289062 -16.078125 14.515625 -15.890625 14.671875 -15.578125 C 14.816406 -15.273438 14.820312 -14.984375 14.6875 -14.703125 L 14.125 -13.578125 C 14.101562 -13.546875 14.109375 -13.503906 14.140625 -13.453125 C 14.140625 -13.410156 14.160156 -13.390625 14.203125 -13.390625 L 20.65625 -12.296875 C 20.976562 -12.234375 21.238281 -12.054688 21.4375 -11.765625 C 21.632812 -11.484375 21.707031 -11.175781 21.65625 -10.84375 L 19.15625 3.859375 C 19.09375 4.179688 18.921875 4.441406 18.640625 4.640625 C 18.367188 4.835938 18.070312 4.90625 17.75 4.84375 L 16.96875 4.71875 C 16.707031 4.675781 16.515625 4.566406 16.390625 4.390625 C 16.242188 4.179688 16.191406 3.953125 16.234375 3.703125 C 16.242188 3.617188 16.207031 3.570312 16.125 3.5625 L 5.15625 1.703125 C 5.070312 1.679688 5.023438 1.710938 5.015625 1.796875 Z M 5.015625 1.796875 " />
            </g>
        </g>
    </g>
    <g fill="#ffffff" fill-opacity="1">
        <g transform="translate(133.436614, 94.228477)">
            <g>
                <path
                    d="M 5.5625 -4.625 L 4.921875 -0.890625 C 4.898438 -0.785156 4.957031 -0.71875 5.09375 -0.6875 L 9.4375 0.046875 C 9.5625 0.0664062 9.632812 0.0234375 9.65625 -0.078125 L 10.296875 -3.8125 C 10.316406 -3.945312 10.265625 -4.023438 10.140625 -4.046875 L 5.796875 -4.78125 C 5.660156 -4.8125 5.582031 -4.757812 5.5625 -4.625 Z M 6.609375 -10.75 L 6.015625 -7.3125 C 5.992188 -7.195312 6.050781 -7.125 6.1875 -7.09375 L 10.53125 -6.359375 C 10.65625 -6.335938 10.726562 -6.382812 10.75 -6.5 L 11.34375 -9.9375 C 11.351562 -10.050781 11.296875 -10.117188 11.171875 -10.140625 L 6.828125 -10.875 C 6.691406 -10.90625 6.617188 -10.863281 6.609375 -10.75 Z M 18.71875 -8.859375 L 14.375 -9.59375 C 14.238281 -9.613281 14.164062 -9.566406 14.15625 -9.453125 L 13.5625 -6.015625 C 13.539062 -5.898438 13.597656 -5.832031 13.734375 -5.8125 L 18.078125 -5.078125 C 18.203125 -5.054688 18.273438 -5.101562 18.296875 -5.21875 L 18.890625 -8.65625 C 18.898438 -8.769531 18.84375 -8.835938 18.71875 -8.859375 Z M 17.21875 1.171875 L 17.84375 -2.5625 C 17.863281 -2.675781 17.8125 -2.742188 17.6875 -2.765625 L 13.34375 -3.5 C 13.207031 -3.519531 13.128906 -3.472656 13.109375 -3.359375 L 12.484375 0.375 C 12.453125 0.5 12.503906 0.570312 12.640625 0.59375 L 16.984375 1.328125 C 17.109375 1.347656 17.1875 1.296875 17.21875 1.171875 Z M 4.484375 1.734375 C 4.429688 2.003906 4.273438 2.226562 4.015625 2.40625 C 3.765625 2.582031 3.503906 2.648438 3.234375 2.609375 L 2.625 2.5 C 2.300781 2.445312 2.035156 2.273438 1.828125 1.984375 C 1.640625 1.722656 1.570312 1.425781 1.625 1.09375 L 3.953125 -12.578125 C 4.003906 -12.910156 4.164062 -13.164062 4.4375 -13.34375 C 4.726562 -13.550781 5.035156 -13.628906 5.359375 -13.578125 L 11.578125 -12.515625 C 11.703125 -12.492188 11.773438 -12.550781 11.796875 -12.6875 L 12.203125 -15.078125 C 12.265625 -15.421875 12.441406 -15.695312 12.734375 -15.90625 C 13.003906 -16.09375 13.3125 -16.160156 13.65625 -16.109375 L 14 -16.046875 C 14.34375 -15.984375 14.609375 -15.816406 14.796875 -15.546875 C 15.003906 -15.253906 15.078125 -14.9375 15.015625 -14.59375 L 14.609375 -12.203125 C 14.585938 -12.066406 14.644531 -11.988281 14.78125 -11.96875 L 20.984375 -10.921875 C 21.304688 -10.859375 21.570312 -10.679688 21.78125 -10.390625 C 21.96875 -10.140625 22.035156 -9.847656 21.984375 -9.515625 L 19.65625 4.15625 C 19.601562 4.488281 19.441406 4.75 19.171875 4.9375 C 18.878906 5.144531 18.570312 5.21875 18.25 5.15625 L 17.640625 5.0625 C 17.367188 5.007812 17.140625 4.859375 16.953125 4.609375 C 16.773438 4.359375 16.710938 4.097656 16.765625 3.828125 C 16.773438 3.722656 16.734375 3.664062 16.640625 3.65625 L 4.65625 1.609375 C 4.550781 1.585938 4.492188 1.628906 4.484375 1.734375 Z M 4.484375 1.734375 " />
            </g>
        </g>
    </g>
    <g fill="#ffffff" fill-opacity="1">
        <g transform="translate(155.003605, 97.895591)">
            <g>
                <path
                    d="M 11.75 -2.890625 L 11.4375 -2.9375 C 11.101562 -3 10.828125 -3.164062 10.609375 -3.4375 C 10.398438 -3.71875 10.320312 -4.035156 10.375 -4.390625 L 11.515625 -12.984375 C 11.546875 -13.304688 11.695312 -13.570312 11.96875 -13.78125 C 12.238281 -13.988281 12.539062 -14.066406 12.875 -14.015625 L 14.046875 -13.8125 C 14.367188 -13.757812 14.625 -13.585938 14.8125 -13.296875 C 15 -13.003906 15.054688 -12.703125 14.984375 -12.390625 L 13.21875 -3.90625 C 13.144531 -3.550781 12.960938 -3.273438 12.671875 -3.078125 C 12.390625 -2.890625 12.082031 -2.828125 11.75 -2.890625 Z M 9.421875 0.328125 L 9.515625 -0.21875 C 9.578125 -0.550781 9.742188 -0.816406 10.015625 -1.015625 C 10.296875 -1.222656 10.597656 -1.300781 10.921875 -1.25 L 11.671875 -1.125 C 11.992188 -1.0625 12.253906 -0.890625 12.453125 -0.609375 C 12.648438 -0.328125 12.71875 -0.0195312 12.65625 0.3125 L 12.5625 0.859375 C 12.507812 1.191406 12.34375 1.460938 12.0625 1.671875 C 11.78125 1.878906 11.476562 1.953125 11.15625 1.890625 L 10.40625 1.765625 C 10.082031 1.710938 9.820312 1.539062 9.625 1.25 C 9.4375 0.96875 9.367188 0.660156 9.421875 0.328125 Z M 9.421875 0.328125 " />
            </g>
        </g>
    </g>
</svg>