<svg xmlns="http://www.w3.org/2000/svg" xmlns:xlink="http://www.w3.org/1999/xlink" width="264"
    zoomAndPan="magnify" viewBox="0 0 198 141.000003" height="188"
    preserveAspectRatio="xMidYMid meet" version="1.0">
    <defs>
        <g />
        <clipPath id="4ffd21597f">
            <path
                d="M 0.695312 0 L 197.300781 0 L 197.300781 140.007812 L 0.695312 140.007812 Z M 0.695312 0 "
                clip-rule="nonzero" />
        </clipPath>
        <clipPath id="4db6671f11">
            <path d="M 65 86 L 109 86 L 109 133 L 65 133 Z M 65 86 " clip-rule="nonzero" />
        </clipPath>
        <clipPath id="be55beefdf">
            <path
                d="M 65.308594 86.925781 L 108.683594 101.410156 L 96.027344 139.304688 L 52.65625 124.824219 Z M 65.308594 86.925781 "
                clip-rule="nonzero" />
        </clipPath>
        <clipPath id="bfd7432388">
            <path
                d="M 74.308594 132.054688 L 108.617188 101.390625 L 65.308594 86.925781 Z M 74.308594 132.054688 "
                clip-rule="nonzero" />
        </clipPath>
        <clipPath id="a5b36eebfa">
            <path d="M 18 10 L 167 10 L 167 119 L 18 119 Z M 18 10 " clip-rule="nonzero" />
        </clipPath>
        <clipPath id="f29a0e0a5d">
            <path
                d="M 27.402344 0 L 174.867188 24.886719 L 157.171875 129.753906 L 9.703125 104.863281 Z M 27.402344 0 "
                clip-rule="nonzero" />
        </clipPath>
        <clipPath id="79a5fb5944">
            <path
                d="M 101.054688 12.429688 C 60.378906 5.566406 23.441406 23.476562 18.554688 52.433594 C 13.667969 81.390625 42.679688 110.429688 83.355469 117.296875 C 124.035156 124.160156 160.972656 106.25 165.859375 77.292969 C 170.746094 48.335938 141.734375 19.296875 101.054688 12.429688 Z M 101.054688 12.429688 "
                clip-rule="nonzero" />
        </clipPath>
    </defs>
    <g clip-path="url(#4db6671f11)">
        <g clip-path="url(#be55beefdf)">
            <g clip-path="url(#bfd7432388)">
                <path fill="#fd6f25"
                    d="M 65.308594 86.925781 L 108.683594 101.410156 L 96.027344 139.304688 L 52.65625 124.824219 Z M 65.308594 86.925781 "
                    fill-opacity="1" fill-rule="nonzero" />
            </g>
        </g>
    </g>
    <g clip-path="url(#a5b36eebfa)">
        <g clip-path="url(#f29a0e0a5d)">
            <g clip-path="url(#79a5fb5944)">
                <path fill="#fd6f25"
                    d="M 27.402344 0 L 174.867188 24.886719 L 157.171875 129.753906 L 9.703125 104.863281 Z M 27.402344 0 "
                    fill-opacity="1" fill-rule="nonzero" />
            </g>
        </g>
    </g>
    <g fill="#ffffff" fill-opacity="1">
        <g transform="translate(60.845872, 50.842257)">
            <g>
                <path
                    d="M 8.828125 1.71875 C 6.367188 1.300781 4.519531 0.238281 3.28125 -1.46875 C 2.050781 -3.175781 1.644531 -5.265625 2.0625 -7.734375 C 2.488281 -10.210938 3.546875 -12.054688 5.234375 -13.265625 C 6.929688 -14.472656 9.039062 -14.863281 11.5625 -14.4375 C 12.976562 -14.1875 14.253906 -13.675781 15.390625 -12.90625 C 15.679688 -12.707031 15.847656 -12.4375 15.890625 -12.09375 C 15.941406 -11.75 15.878906 -11.429688 15.703125 -11.140625 C 15.535156 -10.867188 15.289062 -10.707031 14.96875 -10.65625 C 14.65625 -10.601562 14.367188 -10.664062 14.109375 -10.84375 C 13.296875 -11.425781 12.40625 -11.800781 11.4375 -11.96875 C 9.8125 -12.238281 8.429688 -11.945312 7.296875 -11.09375 C 6.160156 -10.238281 5.441406 -8.945312 5.140625 -7.21875 C 4.847656 -5.5 5.109375 -4.039062 5.921875 -2.84375 C 6.742188 -1.65625 7.941406 -0.929688 9.515625 -0.671875 C 10.484375 -0.503906 11.445312 -0.550781 12.40625 -0.8125 C 12.707031 -0.894531 13 -0.859375 13.28125 -0.703125 C 13.570312 -0.554688 13.75 -0.332031 13.8125 -0.03125 C 13.882812 0.3125 13.835938 0.640625 13.671875 0.953125 C 13.515625 1.265625 13.269531 1.46875 12.9375 1.5625 C 11.613281 1.914062 10.242188 1.96875 8.828125 1.71875 Z M 8.828125 1.71875 " />
            </g>
        </g>
    </g>
    <g fill="#ffffff" fill-opacity="1">
        <g transform="translate(75.638445, 53.357492)">
            <g>
                <path
                    d="M 7.859375 -8.21875 C 6.992188 -8.363281 6.265625 -8.164062 5.671875 -7.625 C 5.085938 -7.082031 4.691406 -6.207031 4.484375 -5 C 4.273438 -3.800781 4.359375 -2.84375 4.734375 -2.125 C 5.117188 -1.414062 5.742188 -0.988281 6.609375 -0.84375 C 7.484375 -0.6875 8.21875 -0.878906 8.8125 -1.421875 C 9.414062 -1.972656 9.820312 -2.847656 10.03125 -4.046875 C 10.238281 -5.253906 10.144531 -6.210938 9.75 -6.921875 C 9.363281 -7.628906 8.734375 -8.0625 7.859375 -8.21875 Z M 10.59375 0.40625 C 9.414062 1.28125 7.972656 1.570312 6.265625 1.28125 C 4.554688 1 3.289062 0.25 2.46875 -0.96875 C 1.644531 -2.1875 1.382812 -3.6875 1.6875 -5.46875 C 1.988281 -7.25 2.726562 -8.578125 3.90625 -9.453125 C 5.082031 -10.335938 6.523438 -10.632812 8.234375 -10.34375 C 9.941406 -10.0625 11.207031 -9.304688 12.03125 -8.078125 C 12.851562 -6.859375 13.113281 -5.359375 12.8125 -3.578125 C 12.507812 -1.796875 11.769531 -0.46875 10.59375 0.40625 Z M 10.59375 0.40625 " />
            </g>
        </g>
    </g>
    <g fill="#ffffff" fill-opacity="1">
        <g transform="translate(88.213207, 55.495625)">
            <g>
                <path
                    d="M 5.328125 -5.671875 L 4.4375 -0.515625 C 4.382812 -0.179688 4.21875 0.0820312 3.9375 0.28125 C 3.664062 0.488281 3.363281 0.566406 3.03125 0.515625 L 2.71875 0.46875 C 2.382812 0.40625 2.113281 0.234375 1.90625 -0.046875 C 1.707031 -0.335938 1.632812 -0.648438 1.6875 -0.984375 L 3.171875 -9.71875 C 3.234375 -10.039062 3.40625 -10.304688 3.6875 -10.515625 C 3.976562 -10.722656 4.289062 -10.796875 4.625 -10.734375 L 4.75 -10.71875 C 5.09375 -10.65625 5.363281 -10.484375 5.5625 -10.203125 C 5.769531 -9.921875 5.847656 -9.609375 5.796875 -9.265625 L 5.78125 -9 C 5.769531 -8.988281 5.773438 -8.984375 5.796875 -8.984375 C 5.828125 -8.972656 5.847656 -8.972656 5.859375 -8.984375 C 6.878906 -9.992188 7.921875 -10.40625 8.984375 -10.21875 C 9.671875 -10.101562 10.21875 -9.863281 10.625 -9.5 C 11.039062 -9.132812 11.363281 -8.609375 11.59375 -7.921875 C 11.582031 -7.898438 11.59375 -7.882812 11.625 -7.875 C 11.632812 -7.875 11.648438 -7.882812 11.671875 -7.90625 C 12.796875 -8.957031 13.988281 -9.375 15.25 -9.15625 C 16.445312 -8.957031 17.265625 -8.472656 17.703125 -7.703125 C 18.148438 -6.929688 18.242188 -5.757812 17.984375 -4.1875 L 16.984375 1.625 C 16.929688 1.957031 16.757812 2.222656 16.46875 2.421875 C 16.1875 2.628906 15.878906 2.703125 15.546875 2.640625 L 15.296875 2.59375 C 14.953125 2.539062 14.679688 2.367188 14.484375 2.078125 C 14.285156 1.796875 14.210938 1.488281 14.265625 1.15625 L 15.15625 -4 C 15.34375 -5.125 15.351562 -5.898438 15.1875 -6.328125 C 15.019531 -6.765625 14.632812 -7.035156 14.03125 -7.140625 C 13.507812 -7.222656 13.003906 -7.019531 12.515625 -6.53125 C 12.035156 -6.050781 11.726562 -5.410156 11.59375 -4.609375 L 10.703125 0.546875 C 10.648438 0.878906 10.484375 1.144531 10.203125 1.34375 C 9.921875 1.550781 9.613281 1.628906 9.28125 1.578125 L 9.03125 1.53125 C 8.695312 1.476562 8.425781 1.304688 8.21875 1.015625 C 8.019531 0.734375 7.945312 0.425781 8 0.09375 L 8.890625 -5.0625 C 9.078125 -6.1875 9.082031 -6.960938 8.90625 -7.390625 C 8.738281 -7.828125 8.351562 -8.097656 7.75 -8.203125 C 7.238281 -8.285156 6.738281 -8.082031 6.25 -7.59375 C 5.769531 -7.113281 5.460938 -6.472656 5.328125 -5.671875 Z M 5.328125 -5.671875 " />
            </g>
        </g>
    </g>
    <g fill="#ffffff" fill-opacity="1">
        <g transform="translate(106.343259, 58.578344)">
            <g>
                <path
                    d="M 7.609375 -14.0625 L 7.59375 -13.921875 C 7.539062 -13.597656 7.375 -13.332031 7.09375 -13.125 C 6.820312 -12.925781 6.519531 -12.859375 6.1875 -12.921875 L 5.671875 -13 C 5.335938 -13.0625 5.066406 -13.234375 4.859375 -13.515625 C 4.660156 -13.796875 4.585938 -14.097656 4.640625 -14.421875 L 4.65625 -14.5625 C 4.71875 -14.894531 4.890625 -15.160156 5.171875 -15.359375 C 5.460938 -15.554688 5.773438 -15.625 6.109375 -15.5625 L 6.625 -15.484375 C 6.957031 -15.421875 7.21875 -15.25 7.40625 -14.96875 C 7.601562 -14.695312 7.671875 -14.394531 7.609375 -14.0625 Z M 6.765625 -9.109375 L 5.28125 -0.375 C 5.226562 -0.0390625 5.0625 0.226562 4.78125 0.4375 C 4.507812 0.644531 4.207031 0.71875 3.875 0.65625 L 3.359375 0.578125 C 3.023438 0.515625 2.753906 0.335938 2.546875 0.046875 C 2.347656 -0.234375 2.273438 -0.539062 2.328125 -0.875 L 3.8125 -9.609375 C 3.875 -9.929688 4.046875 -10.195312 4.328125 -10.40625 C 4.617188 -10.613281 4.929688 -10.6875 5.265625 -10.625 L 5.78125 -10.546875 C 6.113281 -10.484375 6.375 -10.304688 6.5625 -10.015625 C 6.757812 -9.734375 6.828125 -9.429688 6.765625 -9.109375 Z M 6.765625 -9.109375 " />
            </g>
        </g>
    </g>
    <g fill="#ffffff" fill-opacity="1">
        <g transform="translate(113.556527, 59.804842)">
            <g>
                <path
                    d="M 5.296875 -5.234375 L 4.484375 -0.5 C 4.429688 -0.164062 4.265625 0.0976562 3.984375 0.296875 C 3.703125 0.503906 3.394531 0.578125 3.0625 0.515625 L 2.71875 0.46875 C 2.382812 0.40625 2.113281 0.234375 1.90625 -0.046875 C 1.707031 -0.335938 1.632812 -0.648438 1.6875 -0.984375 L 3.171875 -9.71875 C 3.234375 -10.039062 3.40625 -10.304688 3.6875 -10.515625 C 3.976562 -10.722656 4.289062 -10.796875 4.625 -10.734375 L 4.78125 -10.71875 C 5.132812 -10.65625 5.410156 -10.484375 5.609375 -10.203125 C 5.804688 -9.921875 5.882812 -9.609375 5.84375 -9.265625 L 5.796875 -8.9375 C 5.796875 -8.925781 5.800781 -8.921875 5.8125 -8.921875 C 5.84375 -8.910156 5.859375 -8.910156 5.859375 -8.921875 C 6.390625 -9.390625 6.992188 -9.726562 7.671875 -9.9375 C 8.359375 -10.15625 9.039062 -10.207031 9.71875 -10.09375 C 11 -9.875 11.875 -9.3125 12.34375 -8.40625 C 12.820312 -7.507812 12.910156 -6.15625 12.609375 -4.34375 L 11.734375 0.734375 C 11.679688 1.066406 11.515625 1.332031 11.234375 1.53125 C 10.953125 1.738281 10.648438 1.8125 10.328125 1.75 L 10 1.703125 C 9.664062 1.640625 9.398438 1.46875 9.203125 1.1875 C 9.003906 0.90625 8.929688 0.597656 8.984375 0.265625 L 9.8125 -4.515625 C 10.019531 -5.765625 10.015625 -6.632812 9.796875 -7.125 C 9.585938 -7.613281 9.113281 -7.921875 8.375 -8.046875 C 7.738281 -8.148438 7.101562 -7.921875 6.46875 -7.359375 C 5.832031 -6.796875 5.441406 -6.085938 5.296875 -5.234375 Z M 5.296875 -5.234375 " />
            </g>
        </g>
    </g>
    <g fill="#ffffff" fill-opacity="1">
        <g transform="translate(126.454274, 61.997893)">
            <g>
                <path
                    d="M 9.375 -7.015625 C 9 -7.679688 8.414062 -8.082031 7.625 -8.21875 C 6.84375 -8.351562 6.175781 -8.164062 5.625 -7.65625 C 5.082031 -7.15625 4.710938 -6.34375 4.515625 -5.21875 C 4.335938 -4.144531 4.425781 -3.257812 4.78125 -2.5625 C 5.144531 -1.875 5.703125 -1.46875 6.453125 -1.34375 C 7.242188 -1.207031 7.925781 -1.390625 8.5 -1.890625 C 9.070312 -2.398438 9.445312 -3.179688 9.625 -4.234375 L 9.65625 -4.453125 C 9.84375 -5.503906 9.75 -6.359375 9.375 -7.015625 Z M 5.28125 0.671875 C 4.019531 0.460938 3.054688 -0.21875 2.390625 -1.375 C 1.722656 -2.53125 1.535156 -3.960938 1.828125 -5.671875 C 2.140625 -7.484375 2.765625 -8.800781 3.703125 -9.625 C 4.648438 -10.457031 5.8125 -10.757812 7.1875 -10.53125 C 8.613281 -10.289062 9.671875 -9.5 10.359375 -8.15625 C 10.378906 -8.144531 10.394531 -8.132812 10.40625 -8.125 C 10.414062 -8.125 10.421875 -8.128906 10.421875 -8.140625 L 10.5 -8.46875 C 10.570312 -8.8125 10.742188 -9.082031 11.015625 -9.28125 C 11.296875 -9.476562 11.613281 -9.550781 11.96875 -9.5 L 12.15625 -9.46875 C 12.488281 -9.40625 12.75 -9.226562 12.9375 -8.9375 C 13.132812 -8.644531 13.203125 -8.335938 13.140625 -8.015625 L 11.640625 0.8125 C 10.953125 4.875 8.648438 6.570312 4.734375 5.90625 C 3.828125 5.75 2.972656 5.492188 2.171875 5.140625 C 1.878906 5.015625 1.679688 4.800781 1.578125 4.5 C 1.484375 4.195312 1.5 3.90625 1.625 3.625 C 1.726562 3.363281 1.914062 3.1875 2.1875 3.09375 C 2.46875 3 2.734375 3.007812 2.984375 3.125 C 3.691406 3.445312 4.375 3.664062 5.03125 3.78125 C 6.144531 3.96875 7.003906 3.8125 7.609375 3.3125 C 8.210938 2.8125 8.640625 1.84375 8.890625 0.40625 L 9.015625 -0.359375 L 8.984375 -0.40625 C 8.960938 -0.40625 8.953125 -0.390625 8.953125 -0.359375 C 7.972656 0.578125 6.75 0.921875 5.28125 0.671875 Z M 5.28125 0.671875 " />
            </g>
        </g>
    </g>
    <g fill="#ffffff" fill-opacity="1">
        <g transform="translate(69.447623, 83.276532)">
            <g>
                <path
                    d="M 6.640625 -1.140625 C 7.484375 -0.992188 8.15625 -1.066406 8.65625 -1.359375 C 9.164062 -1.648438 9.476562 -2.132812 9.59375 -2.8125 C 9.695312 -3.40625 9.597656 -3.914062 9.296875 -4.34375 C 9.003906 -4.769531 8.414062 -5.195312 7.53125 -5.625 C 5.789062 -6.476562 4.570312 -7.375 3.875 -8.3125 C 3.1875 -9.25 2.941406 -10.300781 3.140625 -11.46875 C 3.359375 -12.757812 4.007812 -13.710938 5.09375 -14.328125 C 6.175781 -14.941406 7.582031 -15.101562 9.3125 -14.8125 C 10.59375 -14.59375 11.816406 -14.1875 12.984375 -13.59375 C 13.296875 -13.4375 13.5 -13.191406 13.59375 -12.859375 C 13.695312 -12.523438 13.679688 -12.1875 13.546875 -11.84375 C 13.421875 -11.5625 13.195312 -11.375 12.875 -11.28125 C 12.5625 -11.195312 12.257812 -11.234375 11.96875 -11.390625 C 11.039062 -11.910156 10.054688 -12.257812 9.015625 -12.4375 C 8.203125 -12.570312 7.546875 -12.503906 7.046875 -12.234375 C 6.546875 -11.960938 6.25 -11.539062 6.15625 -10.96875 C 5.976562 -9.945312 6.597656 -9.097656 8.015625 -8.421875 C 9.921875 -7.523438 11.21875 -6.601562 11.90625 -5.65625 C 12.601562 -4.71875 12.84375 -3.609375 12.625 -2.328125 C 12.375 -0.847656 11.695312 0.195312 10.59375 0.8125 C 9.488281 1.4375 8.003906 1.585938 6.140625 1.265625 C 4.804688 1.035156 3.535156 0.53125 2.328125 -0.25 C 2.015625 -0.445312 1.816406 -0.722656 1.734375 -1.078125 C 1.660156 -1.429688 1.707031 -1.769531 1.875 -2.09375 L 1.921875 -2.1875 C 2.066406 -2.445312 2.296875 -2.601562 2.609375 -2.65625 C 2.929688 -2.71875 3.210938 -2.65625 3.453125 -2.46875 C 4.441406 -1.769531 5.503906 -1.328125 6.640625 -1.140625 Z M 6.640625 -1.140625 " />
            </g>
        </g>
    </g>
    <g fill="#ffffff" fill-opacity="1">
        <g transform="translate(82.496091, 85.495211)">
            <g>
                <path
                    d="M 7.859375 -8.21875 C 6.992188 -8.363281 6.265625 -8.164062 5.671875 -7.625 C 5.085938 -7.082031 4.691406 -6.207031 4.484375 -5 C 4.273438 -3.800781 4.359375 -2.84375 4.734375 -2.125 C 5.117188 -1.414062 5.742188 -0.988281 6.609375 -0.84375 C 7.484375 -0.6875 8.21875 -0.878906 8.8125 -1.421875 C 9.414062 -1.972656 9.820312 -2.847656 10.03125 -4.046875 C 10.238281 -5.253906 10.144531 -6.210938 9.75 -6.921875 C 9.363281 -7.628906 8.734375 -8.0625 7.859375 -8.21875 Z M 10.59375 0.40625 C 9.414062 1.28125 7.972656 1.570312 6.265625 1.28125 C 4.554688 1 3.289062 0.25 2.46875 -0.96875 C 1.644531 -2.1875 1.382812 -3.6875 1.6875 -5.46875 C 1.988281 -7.25 2.726562 -8.578125 3.90625 -9.453125 C 5.082031 -10.335938 6.523438 -10.632812 8.234375 -10.34375 C 9.941406 -10.0625 11.207031 -9.304688 12.03125 -8.078125 C 12.851562 -6.859375 13.113281 -5.359375 12.8125 -3.578125 C 12.507812 -1.796875 11.769531 -0.46875 10.59375 0.40625 Z M 10.59375 0.40625 " />
            </g>
        </g>
    </g>
    <g fill="#ffffff" fill-opacity="1">
        <g transform="translate(95.070853, 87.633343)">
            <g>
                <path
                    d="M 7.859375 -8.21875 C 6.992188 -8.363281 6.265625 -8.164062 5.671875 -7.625 C 5.085938 -7.082031 4.691406 -6.207031 4.484375 -5 C 4.273438 -3.800781 4.359375 -2.84375 4.734375 -2.125 C 5.117188 -1.414062 5.742188 -0.988281 6.609375 -0.84375 C 7.484375 -0.6875 8.21875 -0.878906 8.8125 -1.421875 C 9.414062 -1.972656 9.820312 -2.847656 10.03125 -4.046875 C 10.238281 -5.253906 10.144531 -6.210938 9.75 -6.921875 C 9.363281 -7.628906 8.734375 -8.0625 7.859375 -8.21875 Z M 10.59375 0.40625 C 9.414062 1.28125 7.972656 1.570312 6.265625 1.28125 C 4.554688 1 3.289062 0.25 2.46875 -0.96875 C 1.644531 -2.1875 1.382812 -3.6875 1.6875 -5.46875 C 1.988281 -7.25 2.726562 -8.578125 3.90625 -9.453125 C 5.082031 -10.335938 6.523438 -10.632812 8.234375 -10.34375 C 9.941406 -10.0625 11.207031 -9.304688 12.03125 -8.078125 C 12.851562 -6.859375 13.113281 -5.359375 12.8125 -3.578125 C 12.507812 -1.796875 11.769531 -0.46875 10.59375 0.40625 Z M 10.59375 0.40625 " />
            </g>
        </g>
    </g>
    <g fill="#ffffff" fill-opacity="1">
        <g transform="translate(107.645614, 89.771476)">
            <g>
                <path
                    d="M 5.296875 -5.234375 L 4.484375 -0.5 C 4.429688 -0.164062 4.265625 0.0976562 3.984375 0.296875 C 3.703125 0.503906 3.394531 0.578125 3.0625 0.515625 L 2.71875 0.46875 C 2.382812 0.40625 2.113281 0.234375 1.90625 -0.046875 C 1.707031 -0.335938 1.632812 -0.648438 1.6875 -0.984375 L 3.171875 -9.71875 C 3.234375 -10.039062 3.40625 -10.304688 3.6875 -10.515625 C 3.976562 -10.722656 4.289062 -10.796875 4.625 -10.734375 L 4.78125 -10.71875 C 5.132812 -10.65625 5.410156 -10.484375 5.609375 -10.203125 C 5.804688 -9.921875 5.882812 -9.609375 5.84375 -9.265625 L 5.796875 -8.9375 C 5.796875 -8.925781 5.800781 -8.921875 5.8125 -8.921875 C 5.84375 -8.910156 5.859375 -8.910156 5.859375 -8.921875 C 6.390625 -9.390625 6.992188 -9.726562 7.671875 -9.9375 C 8.359375 -10.15625 9.039062 -10.207031 9.71875 -10.09375 C 11 -9.875 11.875 -9.3125 12.34375 -8.40625 C 12.820312 -7.507812 12.910156 -6.15625 12.609375 -4.34375 L 11.734375 0.734375 C 11.679688 1.066406 11.515625 1.332031 11.234375 1.53125 C 10.953125 1.738281 10.648438 1.8125 10.328125 1.75 L 10 1.703125 C 9.664062 1.640625 9.398438 1.46875 9.203125 1.1875 C 9.003906 0.90625 8.929688 0.597656 8.984375 0.265625 L 9.8125 -4.515625 C 10.019531 -5.765625 10.015625 -6.632812 9.796875 -7.125 C 9.585938 -7.613281 9.113281 -7.921875 8.375 -8.046875 C 7.738281 -8.148438 7.101562 -7.921875 6.46875 -7.359375 C 5.832031 -6.796875 5.441406 -6.085938 5.296875 -5.234375 Z M 5.296875 -5.234375 " />
            </g>
        </g>
    </g>
</svg>