<?xml version="1.0" encoding="UTF-8"?>
<svg id="Layer_1" xmlns="http://www.w3.org/2000/svg" version="1.1" viewBox="0 0 813 658.8">
  <!-- Generator: Adobe Illustrator 29.1.0, SVG Export Plug-In . SVG Version: 2.1.0 Build 142)  -->
  <defs>
    <style>
      .st0 {
        fill: #fcc5a0;
      }

      .st1 {
        fill: #2f2e41;
      }

      .st2 {
        fill: #fff;
      }

      .st3 {
        fill: #e4e4e4;
      }

      .st4 {
        fill: #6c63ff;
      }

      .st5 {
        fill: #e6e6e6;
      }
    </style>
  </defs>
  <path class="st3" d="M808.2,35.5H4.8c-2.5,0-4.5-2-4.5-4.5V4.5C.3,2,2.3,0,4.8,0h803.4c2.5,0,4.5,2,4.5,4.5v26.5c0,2.5-2,4.5-4.5,4.5Z"/>
  <circle id="b6c858f0-1926-4bcd-807b-9efaf247b9cf" class="st2" cx="26.4" cy="16.4" r="6.4"/>
  <circle id="b369121d-4d8f-4c1b-b23a-4a491aa6d487" class="st2" cx="50.7" cy="16.4" r="6.4"/>
  <circle id="a3a83b48-e804-404e-aa0f-53d13c62451a" class="st2" cx="74.9" cy="16.4" r="6.4"/>
  <path class="st5" d="M802.1,658.8h-357.3c-6,0-10.9-4.9-10.9-10.9v-252.6c0-6,4.9-10.9,10.9-10.9h357.3c6,0,10.9,4.9,10.9,10.9v252.6c0,6-4.9,10.9-10.9,10.9Z"/>
  <path class="st2" d="M787.3,399.3h-327.6c-6,0-10.9,4.9-10.9,10.9v222.8c0,6,4.9,10.9,10.9,10.9h327.6c6,0,10.9-4.9,10.9-10.9v-222.8c0-6-4.9-10.9-10.9-10.9Z"/>
  <circle class="st0" cx="610.4" cy="495.4" r="44"/>
  <path class="st4" d="M737,602.6c-3.3-15.6-14.9-28.1-30.2-32.5h0c-1.4-.7-2.9-1.2-4.5-1.6l-52.9-10.8-10.6-11.4-45.1,2.9-4.7,13.1-51.8,23,.9-.6c-2.2.9-4.4,1.9-6.5,3.1h-.3c-1.5.8-2.9,1.7-4.1,2.7-13.2,9.1-21.9,23.8-22.2,40.2l-1.4,13.3h242l-8.8-41.4Z"/>
  <path class="st1" d="M658.6,471.8c-3.6-11.2-14.1-20.7-25.9-20.4.9-2.8-.7-6-3-7.7-2.4-1.8-5.3-2.5-8.2-3.1-6-1.2-12.2-2.2-18.1-.8-5.9,1.4-11.6,5.7-12.9,11.6-5.4-5.1-15.4-3.7-19.2,2.7-2,3.3-2.2,7.7-.1,10.9,2.1,3.2,6.1,4.6,9.9,4.8,3.8.2,7.5-.7,11.3-1.1,9-.9,18.5.9,25.8,6.3,7.3,5.4,11.9,14.6,10.6,23.6,2.9-1.9,7.1-.6,9.1,2.2s2.2,6.6,1.2,9.9c-.9,3.3-2.9,6.3-4.8,9.2-3.5,5.3-7,10.6-10.4,16l1.4.9c5.3,2.2,10.9-1.9,14.8-6.2,6.4-7.1,11.6-15.3,15.4-24.2,4.6-10.9,6.8-23.3,3.2-34.5Z"/>
  <path class="st5" d="M468.8,463.3H13.9c-7.7,0-13.9-6.2-13.9-13.9V127.8c0-7.7,6.2-13.9,13.9-13.9h454.9c7.7,0,13.9,6.2,13.9,13.9v321.6c0,7.7-6.2,13.9-13.9,13.9Z"/>
  <path class="st2" d="M449.9,132.8H32.8c-7.7,0-13.9,6.2-13.9,13.9v283.7c0,7.7,6.2,13.9,13.9,13.9h417.1c7.7,0,13.9-6.2,13.9-13.9V146.7c0-7.7-6.2-13.9-13.9-13.9Z"/>
  <path class="st1" d="M301.4,266h0l-.8,1.4c6.8-16.9.6-37.7-11.6-50.4-12.2-12.7-29.2-18.5-45.9-20.8-12.4-1.7-25.3-1.7-37.1,2.9-17.1,6.6-30.1,21.8-41,37.7-5,7.3-9.9,15.5-9.4,24.6.5,8.4,5.5,15.5,9.5,22.7,4.1,7.1,7.5,16,4.6,23.8-1.7,4.6-5.4,8-8.4,11.8s-5.5,8.9-4,13.7c1.2,3.9,4.7,6.4,8.3,7.2,3.6.8,7.4.3,11.1-.3l95.3-14.4c22.2-3.4,37.4-24,34.1-46.2-.7-4.8-2.3-9.4-4.6-13.6Z"/>
  <circle class="st0" cx="230.5" cy="278.5" r="46.6"/>
  <path class="st4" d="M346.7,384c-6.1-13.5-19.2-22.4-34-23.3l-13-.8h0c0,.1-33-19.7-33-19.7.8.9-53.7,2.9-53.7,2.9l-20.2,17.4-8.5.5c-14.8.9-27.8,9.9-34,23.3l-27.5,60.3h54.9l1.3-5.5c1.4,1.7,2.7,3.4,4,5.2h191.2l-27.5-60.3Z"/>
  <path class="st1" d="M274.7,235.3c-1.2-6.4-7.7-9.3-13.3-10.7-16.1-4.1-32.9-5-49.4-2.7-12,1.7-24.3,5.5-33,14.9-6.8,7.3-10.9,17.8-11.2,28.6-.2,6.3.9,12.9,4.1,18.2,3.1,5.3,8.5,9.2,14,9l.6,1.9c23.4-3.3,45.1-17.8,58.8-39.4-2.6,9.2-7.7,17.4-14.7,23.8,15.8-6.3,29.5-16.9,39.7-30.6,2.8-3.7,5.5-8.3,4.5-13.1Z"/>
  <path class="st2" d="M784.4,12h-27.9c-1.1,0-2.1-.9-2.1-2.1,0-1.1.9-2.1,2.1-2.1,0,0,0,0,0,0h27.9c1.1,0,2.1.9,2.1,2.1,0,1.1-.9,2.1-2.1,2.1h0Z"/>
  <path class="st2" d="M784.4,19.8h-27.9c-1.1,0-2.1-.9-2.1-2.1,0-1.1.9-2.1,2.1-2.1,0,0,0,0,0,0h27.9c1.1,0,2.1.9,2.1,2.1,0,1.1-.9,2.1-2.1,2.1h0Z"/>
  <path class="st2" d="M784.4,27.6h-27.9c-1.1,0-2.1-.9-2.1-2.1,0-1.1.9-2.1,2.1-2.1,0,0,0,0,0,0h27.9c1.1,0,2.1.9,2.1,2.1,0,1.1-.9,2.1-2.1,2.1h0Z"/>
</svg>