<?xml version="1.0" encoding="UTF-8"?>
<svg id="Layer_1" xmlns="http://www.w3.org/2000/svg" version="1.1" viewBox="0 0 809.3 629.9">
  <!-- Generator: Adobe Illustrator 29.1.0, SVG Export Plug-In . SVG Version: 2.1.0 Build 142)  -->
  <defs>
    <style>
      .st0 {
        fill: #fd6584;
      }

      .st1 {
        fill: #fcc5a0;
      }

      .st2 {
        fill: #2f2e41;
      }

      .st3 {
        fill: #fff;
      }

      .st4 {
        fill: #f0f0f0;
      }

      .st5 {
        fill: #3f3d56;
      }

      .st6 {
        fill: #f2f2f2;
      }

      .st7 {
        fill: #6c63ff;
      }

      .st8 {
        fill: #e6e6e6;
      }
    </style>
  </defs>
  <path class="st4" d="M168,414.3c-36.6-36-52-73.6-43.5-105.8,10.9-41.3,59.6-69.9,133.4-78.4l.3,2.4c-72.8,8.4-120.7,36.3-131.4,76.7-8.3,31.4,6.9,68.1,42.9,103.5l-1.7,1.7h0Z"/>
  <path class="st4" d="M521.1,542.2c-45.7,0-95.3-6.8-144.6-19.8-61-16.1-116.9-40.5-161.6-70.4l1.3-2c44.6,29.8,100.2,54,160.9,70.1,54.9,14.5,110.1,21.3,159.8,19.5v2.4c-5.2.2-10.5.3-15.8.3h0Z"/>
  <path class="st4" d="M625.8,527.2l-.8-2.3c40.8-13.8,66.4-36.1,73.9-64.3,9.5-35.9-11.2-77.7-58.2-117.5-47.3-40-115.5-73.2-192.1-93.5l.6-2.3c76.9,20.4,145.4,53.7,193,93.9,47.8,40.4,68.8,83,59,119.9-7.7,29.1-33.8,51.9-75.4,66h0Z"/>
  <path class="st4" d="M250.8,543.2c-89.7-39.8-158.9-91.4-194.7-145.4l2-1.3c35.6,53.6,104.4,104.9,193.7,144.5l-1,2.2Z"/>
  <path class="st4" d="M566.3,612.1c-9.3,0-18.7-.2-28.2-.6v-2.4c71.5,3.1,134.6-5.5,182.4-24.7l.9,2.2c-41.7,16.8-94.9,25.5-155,25.5h-.1Z"/>
  <path class="st4" d="M514.2,232.2c-14.8-4.8-30.1-9.3-45.3-13.4-87.8-23.2-174.1-31.5-249.6-23.9l-.2-2.4c75.8-7.7,162.4.6,250.4,23.9,15.3,4.1,30.6,8.6,45.5,13.4l-.7,2.3h0Z"/>
  <path class="st4" d="M111.9,417.9c-36.6-36-52-73.6-43.5-105.8,10.9-41.3,59.6-69.9,133.4-78.4l.3,2.4c-72.8,8.4-120.7,36.3-131.4,76.7-8.3,31.4,6.9,68.1,42.9,103.5l-1.7,1.7h0Z"/>
  <path class="st4" d="M465,545.8c-45.7,0-95.3-6.8-144.6-19.8-61-16.1-116.9-40.5-161.6-70.4l1.3-2c44.6,29.8,100.2,54,160.9,70.1,54.9,14.5,110.1,21.3,159.8,19.5v2.4c-5.2.2-10.5.3-15.8.3h0Z"/>
  <path class="st4" d="M569.8,530.7l-.8-2.3c40.8-13.8,66.4-36.1,73.9-64.3,9.5-35.9-11.2-77.7-58.2-117.5-47.3-40-115.5-73.2-192.1-93.5l.6-2.3c76.9,20.4,145.4,53.7,193,93.9,47.8,40.4,68.8,83,59,119.9-7.7,29.1-33.8,51.9-75.4,66h0Z"/>
  <path class="st4" d="M194.7,546.8C105,507,35.8,455.3,0,401.4l2-1.3c35.6,53.6,104.4,104.9,193.7,144.5l-1,2.2Z"/>
  <path class="st4" d="M510.2,615.7c-9.3,0-18.7-.2-28.2-.6v-2.4c71.5,3.1,134.6-5.5,182.4-24.7l.9,2.2c-41.7,16.8-94.9,25.5-155,25.5h-.1Z"/>
  <path class="st4" d="M458.1,235.8c-14.8-4.8-30.1-9.3-45.3-13.4-87.8-23.2-174.1-31.5-249.6-23.9l-.2-2.4c75.8-7.7,162.4.6,250.4,23.9,15.3,4.1,30.6,8.6,45.5,13.4l-.7,2.3h-.1Z"/>
  <path class="st6" d="M40.7,354c17.1-19.2,44.5-30.9,69.3-23.9-22.9,16.2-39.3,39.9-46.3,67.1-2.7,10.5-4.6,22.4-13.3,28.8-5.4,4-12.6,4.9-19.3,4s-13-3.5-19.2-6.1h-1.7c4.8-25.2,13.3-50.7,30.4-69.9h0Z"/>
  <path class="st3" d="M109.9,330.6c-20.7,5-39.3,16.4-53.2,32.6-3,3.4-5.5,7.3-7.4,11.5-1.7,4.2-2.2,8.7-1.5,13.1.6,4.1,1.6,8.3,1.1,12.5-.5,4.3-2.9,8.2-6.5,10.7-4.4,3.2-9.6,4.6-14.8,5.8-5.7,1.3-11.7,2.7-16.4,6.5-.6.5-1.3-.4-.7-.9,8.1-6.6,19.5-5.8,28.5-10.6,4.2-2.2,7.8-5.8,8.6-10.6.8-4.2-.3-8.5-.9-12.7-.7-4.3-.4-8.7,1-12.9,1.6-4.3,3.9-8.3,6.9-11.8,6.5-8,14.3-14.9,22.9-20.5,9.9-6.4,20.7-11.2,32.2-13.9.7-.2.8,1,0,1.1h.1Z"/>
  <path class="st3" d="M60.8,357.7c-5-5.6-5.2-13.9-.5-19.7.5-.6,1.4.1.9.7-4.4,5.4-4.2,13.2.5,18.3.5.5-.4,1.2-.9.7Z"/>
  <path class="st3" d="M47.3,385.8c7.4.5,14.6-1.8,20.4-6.5.6-.5,1.3.4.7.9-6,4.8-13.6,7.2-21.2,6.7-.7,0-.6-1.2.2-1.1h0Z"/>
  <path class="st3" d="M87.7,338.4c1.4,2.5,4.1,4.1,7,4.3.7,0,.6,1.2-.2,1.1-3.2-.2-6.1-2-7.7-4.7-.2-.3,0-.6,0-.8.3-.2.6-.1.8.1h0Z"/>
  <path class="st6" d="M145.2,409.9h-1.4c-6.1-.1-12.3.2-18.4,1.1-.5,0-.9.1-1.4.2-14.6,2.2-28.7,7.1-41.6,14.5-5.1,2.9-10,6.3-14.6,9.9-6.4,5.1-12.9,11.1-20.3,13.7-.8.3-1.6.5-2.4.7l-34.6-23.9s-.1-.2-.2-.3l-1.4-.9c.2-.2.5-.4.7-.6.1-.1.3-.2.4-.4,0,0,.2-.2.3-.2h0s.2-.1.2-.2c1.3-1.2,2.7-2.3,4-3.5q.9-.8,0,0c10.3-8.8,21.3-16.8,33.3-22.9.4-.2.7-.4,1.1-.5,5.4-2.7,11-5,16.8-6.8,3.2-1,6.4-1.8,9.6-2.4,8.4-1.7,17-2,25.5-1,16.9,2,33,9.4,43.5,22.6.3.3.5.7.8,1h.1Z"/>
  <path class="st3" d="M144.8,410.2c-19.6-8.5-41.3-10.6-62.1-6-4.5.9-8.8,2.5-12.8,4.8-3.8,2.3-7,5.6-9.1,9.6-2,3.6-3.7,7.6-6.6,10.7-3,3.1-7.3,4.8-11.7,4.7-5.4,0-10.4-2.1-15.3-4.2-5.4-2.4-11-4.9-17-4.7-.7,0-.7-1.1,0-1.1,10.5-.4,19,7.1,29.1,8.7,4.7.7,9.7,0,13.3-3.3,3.2-2.9,4.9-7,6.9-10.7,2-3.9,4.9-7.2,8.5-9.7,3.9-2.5,8.1-4.2,12.6-5.3,10-2.5,20.4-3.3,30.7-2.6,11.8.8,23.3,3.6,34.1,8.3.7.3,0,1.3-.6,1h0v-.2Z"/>
  <path class="st3" d="M89.3,402.4c-.6-7.4,4.3-14.2,11.5-16,.7-.2,1,.9.3,1.1-6.7,1.7-11.3,8-10.7,14.9,0,.7-1.1.7-1.1,0Z"/>
  <path class="st3" d="M61.5,416.6c5.6,4.8,12.8,7.4,20.2,7.1.7,0,.7,1.1,0,1.1-7.7.2-15.2-2.4-21-7.5-.6-.5.3-1.3.8-.8h0Z"/>
  <path class="st3" d="M122.3,403.1c-.4,2.9.8,5.7,3,7.6.6.5-.2,1.3-.8.8-2.4-2.1-3.7-5.2-3.3-8.4,0-.3.3-.6.6-.6s.6.3.6.6h0Z"/>
  <path class="st6" d="M712.7,511.6c-9.7-23.9-31.5-44.1-57.2-45.8,16.1,22.9,23.6,50.8,21.1,78.7-1,10.8-3.2,22.6,2.8,31.6,3.8,5.6,10.2,8.9,16.8,10.3,6.6,1.4,13.4,1.1,20.1.7l1.5.7c4-25.5,4.6-52.3-5.1-76.2h0Z"/>
  <path class="st3" d="M655.3,466.3c17.8,11.7,31.5,28.7,39.1,48.6,1.7,4.3,2.7,8.8,3.1,13.3.2,4.5-.9,8.9-3,12.8-1.9,3.7-4.3,7.3-5.3,11.4-1,4.3,0,8.7,2.5,12.3,3,4.5,7.5,7.6,11.9,10.4,5,3.2,10.1,6.4,13.3,11.6.4.6,1.3,0,.9-.6-5.4-9-16.4-12-23.2-19.6-3.2-3.5-5.4-8-4.5-12.9.7-4.2,3.2-7.9,5.1-11.7,2.1-3.8,3.3-8.1,3.4-12.4,0-4.6-.9-9.1-2.5-13.4-3.4-9.7-8.4-18.8-14.7-27-7.1-9.4-15.8-17.5-25.6-23.9-.6-.4-1.1.6-.5,1h0Z"/>
  <path class="st3" d="M692.4,508.4c6.5-3.6,9.5-11.4,7.1-18.4-.2-.7-1.3-.3-1.1.3,2.3,6.6-.5,13.8-6.6,17.1-.6.3,0,1.3.6.9h0Z"/>
  <path class="st3" d="M695.7,539.4c-7.1-2-13.2-6.6-17-12.9-.4-.6-1.3,0-.9.6,4,6.5,10.4,11.3,17.7,13.4.7.2.9-.9.2-1.1h0Z"/>
  <path class="st3" d="M673.6,481.1c-2.2,1.9-5.2,2.5-8,1.7-.7-.2-.9.9-.2,1.1,3.1.9,6.4.2,8.8-1.9.3-.2.3-.5.2-.8-.2-.3-.5-.3-.8-.2h0Z"/>
  <path class="st6" d="M595.5,529.1c.4,0,.9.3,1.3.4,5.8,1.9,11.5,4.3,16.9,7.2.4.2.9.4,1.3.7,13,7,24.7,16.4,34.3,27.6,3.8,4.5,7.3,9.2,10.4,14.3,4.3,6.9,8.4,14.8,14.5,19.7.6.5,1.3,1,2,1.4l40.6-10.9s.2,0,.2-.2l1.6-.4c0-.3-.3-.5-.4-.8,0-.2-.2-.3-.3-.5,0,0,0-.2-.2-.3h0s0-.2,0-.3c-.9-1.5-1.7-3.1-2.6-4.6q-.6-1,0,0c-6.7-11.7-14.4-23-23.7-32.7l-.9-.9c-4.2-4.4-8.7-8.4-13.5-12-2.7-2-5.4-3.8-8.2-5.5-7.3-4.4-15.3-7.6-23.7-9.5-16.6-3.8-34.2-2.2-48.5,6.6-.4.2-.7.5-1.1.7h.1Z"/>
  <path class="st3" d="M595.7,529.6c21.3-1.4,42.5,3.9,60.5,15.3,3.9,2.4,7.5,5.3,10.5,8.8,2.8,3.5,4.7,7.6,5.3,12.1.7,4.1.9,8.4,2.6,12.3,1.8,4,5.2,7,9.4,8.3,5.1,1.7,10.5,1.5,15.8,1.1,5.9-.4,12-1,17.6,1.3.7.3,1.1-.8.4-1.1-9.7-3.9-20.3.3-30.3-1.6-4.7-.9-9.1-3.2-11.4-7.6-2-3.8-2.2-8.2-2.9-12.4-.6-4.3-2.2-8.4-4.8-12-2.8-3.6-6.2-6.7-10.1-9.2-8.6-5.7-18.1-10-28-12.7-11.3-3.2-23.1-4.4-34.9-3.7-.7,0-.5,1.2.2,1.1h.1Z"/>
  <path class="st3" d="M650.6,540.9c3.1-6.8.8-14.8-5.4-18.9-.6-.4-1.3.5-.7.9,5.8,3.8,7.9,11.3,5,17.6-.3.7.8,1,1.1.4h0Z"/>
  <path class="st3" d="M672,563.6c-6.9,2.7-14.5,2.6-21.4,0-.7-.3-1.1.8-.4,1.1,7.1,2.8,15.1,2.8,22.3,0,.7-.3.2-1.3-.5-1h0Z"/>
  <path class="st3" d="M619.2,530.4c-.6,2.8-2.6,5.2-5.4,6.2-.7.3-.2,1.3.5,1,3-1.2,5.2-3.7,5.9-6.8,0-.3,0-.6-.3-.7-.3,0-.6,0-.7.3h0Z"/>
  <circle class="st0" cx="524.7" cy="583.3" r="9.5"/>
  <circle class="st8" cx="558.5" cy="420.7" r="9.5"/>
  <circle class="st8" cx="380.9" cy="156" r="9.5"/>
  <path class="st6" d="M180.8,522.1c0,2.4,0,4.9.2,7.3.2,2.9.5,5.7.9,8.6,1.4,9.6,4.1,18.9,8,27.7.2.4.4.9.6,1.3l.3.7c.1.2.2.4.3.7s.3.6.4.8c.2.3.3.7.5,1h0c.1.4.3.7.5,1,0,0,0,0,.1.2.2.3.4.7.5,1,.2.4.4.7.6,1.1.5.9,1,1.8,1.5,2.7.1.3.3.5.5.8.1.2.3.5.4.7.1.2.2.3.3.5.2.3.3.5.5.8.4.6.8,1.2,1.1,1.8h0c.2.3.4.5.5.8h0c.5.8,1.1,1.6,1.6,2.4h0c.4.6.9,1.3,1.4,1.9h0c.3.4.6.8.9,1.2.2.3.5.7.7,1,0,0,.1,0,.2.2h0c0,0,.1.2.2.3,1.1,1.4,2.2,2.7,3.3,4l.2.2s.1,0,.2.2c.1,0,.2.2.3.3,0,0,.2.2.3.3,5.9,6.6,12.5,12.5,19.8,17.5,1,.7,2,1.3,3,2,.2.2.5.3.8.5,0,0,.1,0,.2.2.1,0,.3.2.4.2s.3.2.4.2c.5.3,1.1.7,1.6,1,.1,0,.3.2.4.2s.3.2.4.2,0,0,0,0h0c.7.4,1.4.8,2,1.1.4.2.8.4,1.1.6.9.5,1.7.9,2.6,1.3.3.2.6.3.9.5.3,0,.5.2.8.4,0,0,.1,0,.2,0,.2,0,.4.2.6.3.2,0,.5.2.7.3.3,0,.5.2.8.3,1,.5,2,.9,3,1.3,3.6,1.5,7.3,2.8,11.1,3.8.2,0,.4,0,.5.2,1.6.4,3.2.9,4.9,1.2,2.9.7,5.7,1.2,8.6,1.6h0c.4,0,.7,0,1,.2h.1q0,0,0,0c.4,0,.8,0,1.1.2h0c.4,0,.7,0,1.1,0,.4,0,.8,0,1.2,0h2.4c2.8.2,5.6.3,8.4.3s6.1,0,9.1-.4h0c.6,0,1.3,0,1.9-.2h2.3c.2,0,.5-.2.8-.2h1.5c5.5-.8,10.9-2,16.2-3.7.3,0,.6-.2.8-.3h.2c.8-.2,1.5-.5,2.2-.8,1-.3,2-.7,3-1.1.3,0,.5-.2.8-.3.5-.2,1.1-.4,1.6-.7.9-.4,1.8-.8,2.8-1.2.8-.4,1.7-.8,2.5-1.2h0c.2,0,.4-.2.6-.3h0c4.6-2.2,9-4.7,13.3-7.6,1.4-.9,2.7-1.8,4-2.8,1.1-.8,2.1-1.6,3.1-2.4,5.1-4.1,9.9-8.6,14.2-13.6h0c.3-.4.6-.7.9-1h.1c.2-.3.4-.6.6-.8h0c.2-.3.5-.6.7-.9,0,0,.1,0,.2-.2h0c.2-.2.4-.5.6-.7,0,0,.2-.2.3-.4h0c.6-.8,1.2-1.5,1.7-2.2.2-.2.3-.4.5-.6.7-1,1.4-2,2.1-3h0c.3-.4.5-.8.8-1.1.2-.4.5-.8.8-1.1.2-.4.5-.8.8-1.2h0c.2-.4.5-.8.7-1.2.2-.3.4-.6.6-.9.1-.2.2-.4.4-.6,0,0,0,0,.1-.2.3-.5.6-1,.8-1.5.3-.6.7-1.2,1-1.7.1-.2.2-.5.4-.7,0,0,0-.2.1-.2.2-.3.3-.6.4-.9.2-.3.3-.6.5-.9.1-.3.3-.6.4-.9.1-.2.2-.4.3-.7h0c0,0,0-.2.1-.3h0c.1-.2.2-.5.3-.7.1-.3.3-.6.4-.9,0-.2.2-.4.3-.6.1-.3.3-.6.4-.9.1-.3.3-.6.4-.9v-.2c0,0,.1-.3.2-.4.2-.4.3-.8.5-1.1.2-.4.3-.8.5-1.3.2-.4.3-.8.5-1.2h0c2.3-6.3,4.1-12.6,5.3-19.1h0c.7-3.7,1.1-7.4,1.4-11.2v-.6c.2-2.5.3-5.1.3-7.6v-3.4c-.7-23.4-9.1-46-23.8-64.2-.3-.4-.6-.8-1-1.2-.3-.4-.7-.8-1-1.2-38.6-45.3-106.7-50.6-151.9-12-8.2,7-15.4,15.3-21.1,24.4-.5.8-1,1.6-1.5,2.4s-.9,1.6-1.4,2.4c-9.1,16.1-13.8,34.3-13.8,52.7h1.1Z"/>
  <path class="st3" d="M284.3,451.7c17.7,4.5,35.9,7.2,54.1,7.8,2.8.2,5.5.1,8.3,0,6.1-.5,11.3-2.4,17.1-3.5,2.8-.5,5.9-.9,8.7-1.4-.6-.8-1.3-1.6-2-2.4-6,.5-12.2,2.2-18.3,3-10.4,1.3-22-.2-29.9-3.8-3.8-1.8-6.8-4-10.6-5.7-.5-.3-1.1-.4-1.7-.5-1.1,0-2.2.2-3.1.8-6.4,3.2-15.7,5.8-24.3,4.4-.6.5.6,1.1,1.6,1.4h0Z"/>
  <path class="st3" d="M246.2,463h-.2c.3-.2.6-.4.9-.7l-.7.7Z"/>
  <path class="st3" d="M194.6,469.4c3.6.3,7.2.5,10.8.6,2.8.1,5.5.1,8.3,0,6.1-.5,11.3-2.4,17.1-3.5,5.3-1,11.8-1.4,15.1-3.5-8.7-1.5-17.7,1.6-26.7,2.7-7.3.9-14.6.5-21.8-1.1-1,1.6-1.9,3.2-2.9,4.8h0Z"/>
  <path class="st7" d="M238.1,617.4c.9.5,1.7.9,2.6,1.3.3.2.6.3.9.5.3,0,.5.2.8.4,0,0,.1,0,.2,0,.2,0,.4.2.6.3.2,0,.5.2.7.3.3,0,.5.2.8.3,1,.5,2,.9,3,1.3,3.6,1.5,7.3,2.8,11.1,3.8.2,0,.4,0,.5.2,1.6.4,3.2.9,4.9,1.2,2.9.7,5.7,1.2,8.6,1.6h0c.4,0,.7,0,1,.2h.1q0,0,0,0c.4,0,.8,0,1.1.2h0c.4,0,.7,0,1.1,0,.4,0,.8,0,1.2,0h2.4c2.8.2,5.6.3,8.4.3s6.1,0,9.1-.4h0c.6,0,1.3,0,1.9-.2h2.3c.2,0,.5-.2.8-.2h1.5c5.5-.8,10.9-2,16.2-3.7.3,0,.6-.2.8-.3-2.6-12.2-10.8-22.5-22-27.9,1.4-1.3,2.3-3,2.7-4.9.5-2.4,0-4.9-1.3-7-1.3-2-3.3-3.4-5.7-3.9l-14.8-3.1c-5-1-9.8,2.2-10.8,7.2-.2.7-.2,1.5-.2,2.2-14.3,9.5-24.5,19.3-31,29.8l.5.2Z"/>
  <circle class="st1" cx="281.9" cy="541.4" r="30.9"/>
  <path class="st2" d="M262.6,568c-3.3-2.2-6.7-6.6-8.9-9.8-6-8.6-8.1-19.4-5.7-29.6.4-2,1.3-3.9,2.7-5.4,1.5-1.4,3.8-2.1,5.6-1.1-1-2.6-.8-5.5.4-8,1.2-2.5,3.1-4.6,5.3-6.3,8.7-6.7,20.3-8.1,30.3-3.6,1.9.9-1.2-6,.8-5.3,2,.8,4.2.7,6.2-.1,1.9-1,8.2,4.7,7.5,2.7,4.7,2.1,6.8,7.7,4.7,12.4-.6,1.3-1.4,2.4-2.5,3.3-1.6,1.3-3.6,2.1-5.3,3.3-6.3,4.5-8.3,12.9-4.7,19.7-1.8-1.2-3.8-2.1-6-2.6s-4.4,0-6.1,1.5c-1.4,1.6-2.1,3.7-1.9,5.8,0,2.1.6,4.2.6,6.3.2,6.1,3.5,17.8-1.3,21.1-3.8,2.6-17.1-1.1-21.6-4.2h-.1Z"/>
  <path class="st3" d="M303.1,386.9c-.7,0-1.3-.1-1.9-.4-1.8-.7-3-2.5-3-4.5v-4.9c0-2.1-1.7-3.9-3.9-3.9s-4.9-2.2-4.9-4.9v-67c0-2.7,2.2-4.9,4.9-4.9h221.8c2.7,0,4.9,2.2,4.9,4.9v67c0,2.7-2.2,4.9-4.9,4.9h-195.9c-1,0-2,.4-2.7,1.1l-11.1,11.1c-.9.9-2.1,1.4-3.4,1.4h0Z"/>
  <path class="st5" d="M303.1,387.9c-.8,0-1.6-.2-2.3-.5-2.2-.9-3.6-3-3.6-5.4v-4.9c0-1.6-1.3-2.9-2.9-2.9-3.2,0-5.9-2.6-5.9-5.9v-67c0-3.2,2.6-5.9,5.9-5.9h221.8c3.2,0,5.9,2.6,5.9,5.9v67c0,3.2-2.6,5.9-5.9,5.9h-195.9c-.8,0-1.5.3-2,.8l-11.1,11.1c-1.1,1.1-2.6,1.7-4.1,1.7h0ZM294.3,297.5c-2.1,0-3.9,1.7-3.9,3.9v67c0,2.1,1.7,3.9,3.9,3.9s4.9,2.2,4.9,4.9v4.9c0,2.1,1.7,3.9,3.9,3.9s2-.4,2.7-1.1l11.1-11.1c.9-.9,2.1-1.4,3.4-1.4h195.9c2.1,0,3.9-1.7,3.9-3.9v-67c0-2.1-1.7-3.9-3.9-3.9h-221.9Z"/>
  <path class="st7" d="M497.1,326.8h-179.9c-1.4,0-2.6-1.2-2.6-2.6s1.2-2.6,2.6-2.6h179.9c1.4,0,2.6,1.2,2.6,2.6s-1.2,2.6-2.6,2.6Z"/>
  <path class="st8" d="M496.8,337.9h-179.5c-1.4,0-2.6-1.2-2.6-2.6s1.2-2.6,2.6-2.6h179.5c1.4,0,2.6,1.2,2.6,2.6s-1.2,2.6-2.6,2.6Z"/>
  <path class="st8" d="M496.6,348.9h-179.4c-1.4,0-2.6-1.2-2.6-2.6s1.2-2.6,2.6-2.6h179.4c1.4,0,2.6,1.2,2.6,2.6s-1.2,2.6-2.6,2.6Z"/>
  <path class="st6" d="M780.4,286.1c0,2.4,0,4.9-.2,7.3-.2,2.9-.5,5.7-.9,8.6-1.4,9.6-4.1,18.9-8,27.7-.2.4-.4.9-.6,1.3l-.3.7c0,.2-.2.4-.3.6,0,.3-.3.6-.4.9-.2.4-.3.7-.5,1h0c-.2.4-.3.7-.5,1v.2c-.2.3-.3.7-.5,1-.2.4-.4.7-.6,1.1-.5.9-1,1.8-1.5,2.6-.2.3-.3.5-.5.8,0,.2-.3.5-.4.7,0,.2-.2.3-.3.5-.2.3-.3.5-.5.8-.4.6-.8,1.2-1.1,1.8h0c-.2.3-.3.5-.5.8h0c-.5.8-1.1,1.6-1.6,2.4h0c-.4.6-.9,1.3-1.3,1.9h0c-.3.4-.6.8-.9,1.2-.2.3-.5.6-.7,1,0,0,0,.1-.2.2h0c0,.1,0,.2-.2.3-1.1,1.4-2.2,2.7-3.3,4l-.2.2s0,.1-.2.2c0,.1-.2.2-.3.3,0,.1-.2.2-.3.3-5.9,6.6-12.5,12.5-19.8,17.5-1,.7-2,1.3-3,1.9-.2.2-.5.3-.8.5,0,0-.2,0-.2.2,0,0-.3.2-.4.2s-.3.2-.4.2c-.5.3-1.1.7-1.6,1,0,0-.3.2-.4.2s-.3.2-.4.2,0,0,0,0h0c-.7.4-1.4.8-2,1.1-.4.2-.8.4-1.1.6-.9.5-1.7.9-2.6,1.3-.3.2-.6.3-.9.5-.3.1-.5.2-.8.4,0,0-.2,0-.2.1-.2,0-.4.2-.7.3-.2.1-.5.2-.7.3-.3.1-.5.2-.8.3-1,.5-2,.9-3,1.3-3.6,1.5-7.3,2.8-11.1,3.8-.2,0-.3,0-.5.2-1.6.5-3.2.9-4.9,1.2-2.8.7-5.7,1.2-8.6,1.6h0c-.3,0-.7,0-1,.2h0s0,0,0,0c-.4,0-.8,0-1.2.2h0c-.4,0-.7,0-1.1.1-.4,0-.8,0-1.2.1h-2.4c-2.8.2-5.6.3-8.4.3s-6.1-.1-9.1-.4h0c-.7,0-1.3-.1-1.9-.2h-2.2c-.2-.1-.5-.2-.8-.2h-1.5c-5.5-.8-10.9-2-16.2-3.7-.3,0-.6-.2-.8-.3h-.2c-.8-.2-1.5-.5-2.2-.8-1-.3-2-.7-3-1.1-.3-.1-.5-.2-.8-.3-.5-.2-1.1-.4-1.6-.7-.9-.4-1.8-.8-2.8-1.2-.8-.4-1.7-.8-2.5-1.2h0c-.2,0-.4-.2-.6-.3h0c-4.6-2.2-9-4.7-13.3-7.6-1.4-.9-2.7-1.8-4-2.8-1.1-.8-2.1-1.6-3.1-2.4-5.1-4.1-9.9-8.6-14.2-13.6h0c-.3-.4-.6-.7-.9-1.1,0,0,0-.1,0-.1-.2-.2-.4-.5-.6-.7h0c-.2-.3-.5-.6-.7-.9,0,0,0-.1-.2-.2h0c-.2-.2-.4-.5-.6-.7,0-.1-.2-.2-.3-.4h0c-.6-.8-1.2-1.5-1.7-2.2-.2-.2-.3-.4-.5-.6-.7-1-1.4-2-2.1-3h0c-.3-.4-.5-.8-.8-1.1-.2-.4-.5-.8-.8-1.1-.2-.4-.5-.8-.8-1.2h0c-.2-.4-.5-.8-.7-1.2-.2-.3-.4-.6-.6-.9,0-.2-.2-.4-.4-.6,0,0,0-.1,0-.2-.3-.5-.6-1-.8-1.5-.3-.6-.7-1.1-1-1.7,0-.2-.2-.5-.4-.7,0,0,0-.2,0-.2-.2-.3-.3-.6-.4-.9-.2-.3-.3-.6-.5-.9,0-.3-.3-.6-.4-.9,0-.2-.2-.4-.3-.7h0c0-.1,0-.2,0-.3h0c0-.2-.2-.5-.3-.7,0-.3-.3-.6-.4-.9,0-.2-.2-.4-.3-.6,0-.3-.3-.6-.4-.9,0-.3-.3-.6-.4-.9v-.2c0-.1,0-.3-.2-.4-.2-.4-.3-.8-.5-1.1-.2-.4-.3-.9-.5-1.3s-.3-.8-.5-1.2h0c-2.3-6.3-4.1-12.6-5.3-19.1h0c-.7-3.7-1.1-7.4-1.4-11.2v-.6c-.2-2.5-.3-5.1-.3-7.6v-3.4c.7-23.4,9.1-46,23.8-64.2.3-.4.6-.8,1-1.2.3-.4.7-.8,1-1.2,38.6-45.3,106.7-50.6,151.9-12,8.2,7,15.4,15.3,21.1,24.4.5.8,1,1.6,1.5,2.4.5.8.9,1.6,1.4,2.4,9.1,16.1,13.8,34.3,13.8,52.8l-1.3.3Z"/>
  <path class="st3" d="M676.9,215.7c-17.7,4.5-35.9,7.2-54.1,7.8-2.8.2-5.5.1-8.3,0-6.1-.5-11.3-2.4-17.1-3.5-2.8-.5-5.9-.9-8.7-1.4.6-.8,1.3-1.6,2-2.4,6,.5,12.2,2.2,18.3,3,10.4,1.3,22-.2,29.9-3.8,3.8-1.8,6.8-4,10.6-5.7.5-.3,1.1-.4,1.7-.5,1.1,0,2.2.2,3.1.8,6.4,3.2,15.7,5.8,24.3,4.4.6.5-.6,1.1-1.6,1.4h-.1Z"/>
  <path class="st3" d="M715,227h.2c-.3-.2-.6-.4-.9-.7l.7.7Z"/>
  <path class="st3" d="M766.6,233.4c-3.6.3-7.2.5-10.8.6-2.8.1-5.5.1-8.3,0-6.1-.5-11.3-2.4-17.1-3.5-5.3-1-11.8-1.4-15.1-3.5,8.7-1.5,17.7,1.6,26.7,2.7,7.3.9,14.6.5,21.8-1.1,1,1.6,1.9,3.2,2.9,4.8h-.1Z"/>
  <ellipse class="st1" cx="660.5" cy="300.2" rx="32.4" ry="33.1"/>
  <path class="st7" d="M723.1,381.4c-.9.5-1.7.9-2.6,1.3-.3.2-.6.3-.9.5-.3.1-.5.2-.8.4,0,0-.2,0-.2.1-.2,0-.4.2-.7.3-.2.1-.5.2-.7.3-.3.1-.5.2-.8.3-1,.5-2,.9-3,1.3-3.6,1.5-7.3,2.8-11.1,3.8-.2,0-.3,0-.5.2-1.6.4-3.2.9-4.9,1.2-2.8.7-5.7,1.2-8.6,1.6h0c-.3,0-.7,0-1,.2h0s0,0,0,0c-.4,0-.8,0-1.2.2h0c-.4,0-.7,0-1.1.1-.4,0-.8,0-1.2.1h-2.4c-2.8.2-5.6.3-8.4.3s-6.1-.1-9.1-.4h0c-.7,0-1.3-.1-1.9-.2h-2.2c-.2-.1-.5-.2-.8-.2h-1.5c-5.5-.8-10.9-2-16.2-3.7-.3,0-.6-.2-.8-.3,2.6-12.2,10.8-22.5,22-27.9-1.4-1.3-2.3-3-2.7-4.9-.5-2.4,0-4.9,1.3-7,1.3-2,3.3-3.4,5.7-3.9l14.8-3.1c5-1,9.8,2.2,10.8,7.2.2.7.2,1.5.2,2.2,14.3,9.5,24.5,19.3,31,29.8l-.5.2Z"/>
  <path class="st2" d="M747.1,285.9c-5.5-6.4-8.1-14.9-12.5-22.2-4.4-7.3-12-13.8-20.1-12.1-5.6,1.2-9.9,6.1-12.1,11.6-2.2,5.5-2.6,11.5-3,17.5,0-12.2-7.9-24-18.9-27.9s-24.3.4-31.2,10.2c-6.3-5.8-15.9-6-22.4-.5-6.2,5.5-7.6,16.1-3,23.2s14.5,9.7,21.7,5.8l2.6,2.4c-1.4,5.1,1.4,11,6.1,12.9,3.8,1.5,9.2,1.3,10.6,5.3,1,2.8-.9,5.8-2.9,7.9-2,2.2-4.3,4.4-4.6,7.3-.4,4.5,4.3,7.6,8.5,8.6,10.2,2.3,21.5-2.4,27.3-11.4,0-.2.2-.3.4-.5,6.6-8.5,9.5-19.4,7.9-30-.3-2.1,0-3.6,1.4-4.1,6.2-2.1,23.5,2.3,28.7,6.4,5.2,4,9.4,9.4,14.5,13.6,5,4.3,11.5,7.6,17.9,6.4,5.1-.9,9.5-4.7,12.4-9.2s4.6-9.7,6.1-14.9c-11.4,6.6-26.9,3.8-35.6-6.3h.2Z"/>
  <path class="st6" d="M82.8,219.1c0,2.4,0,4.9.2,7.3.2,2.9.5,5.7.9,8.6,1.4,9.6,4.1,18.9,8,27.7.2.4.4.9.6,1.3l.3.7c0,.2.2.4.3.6,0,.3.3.6.4.9.2.4.3.7.5,1h0c0,.4.3.7.5,1,0,0,0,.1,0,.2.2.3.4.7.5,1,.2.4.4.7.6,1.1.5.9,1,1.8,1.5,2.6,0,.3.3.5.5.8,0,.2.3.5.4.7s.2.3.3.5c.2.3.3.5.5.8.4.6.8,1.2,1.1,1.8h0c.2.3.4.5.5.8h0c.5.8,1.1,1.6,1.6,2.4h0c.4.6.9,1.3,1.4,1.9h0c.3.4.6.8.9,1.2.2.3.5.6.7,1l.2.2h0c0,.1,0,.2.2.3,1.1,1.4,2.2,2.7,3.3,4l.2.2.2.2c0,.1.2.2.3.3,0,.1.2.2.3.3,5.9,6.6,12.5,12.5,19.8,17.5,1,.7,2,1.3,3,2,.2.2.5.3.8.5,0,0,.1.1.2.1s.3.2.4.2.3.2.4.2c.5.3,1.1.6,1.6,1,.1,0,.3.2.4.2s.3.1.4.2q0,0,0,0h0c.7.4,1.4.8,2,1.1.4.2.8.4,1.1.6.9.5,1.7.9,2.6,1.4.3.1.6.3.9.5.3.1.5.2.8.4,0,0,.1,0,.2.1.2.1.4.2.6.3.2.1.5.2.7.3.3.1.5.2.8.4,1,.5,2,.9,3,1.3,3.6,1.5,7.3,2.8,11.1,3.8.2,0,.4.1.5.1,1.6.4,3.2.9,4.9,1.2,2.9.7,5.7,1.2,8.6,1.6h0c.4,0,.7.1,1,.1h.1q0,0,0,0c.4,0,.8.1,1.1.1h0c.4,0,.7,0,1.1.1.4,0,.8,0,1.2.1h2.4c2.8.2,5.6.3,8.4.3s6.1-.1,9.1-.4h0c.6,0,1.3-.1,1.9-.2h2.3c.2-.1.5-.2.8-.2h1.5c5.5-.8,10.9-2,16.2-3.6.3,0,.6-.2.8-.3h.2c.8-.2,1.5-.5,2.2-.8,1-.3,2-.7,3-1.1.3-.1.5-.2.8-.3.5-.2,1.1-.4,1.6-.6.9-.4,1.8-.8,2.8-1.2.9-.4,1.7-.8,2.5-1.2h0c.2,0,.4-.2.6-.3h0c4.6-2.2,9-4.7,13.3-7.6,1.4-.9,2.7-1.9,4-2.8,1.1-.8,2.1-1.6,3.1-2.4,5.1-4.1,9.9-8.6,14.2-13.6h0c.3-.4.6-.7.9-1.1,0,0,0-.1.1-.1.2-.2.4-.5.6-.7h0c.2-.3.5-.6.7-.9l.2-.2h0c.2-.2.4-.5.6-.7s.2-.2.3-.4h0c.6-.8,1.2-1.5,1.7-2.2.1-.2.3-.4.5-.6.7-1,1.4-2,2.1-3h0c.3-.4.5-.8.8-1.1.2-.4.5-.8.8-1.1.2-.4.5-.8.8-1.2h0c.2-.4.5-.8.7-1.2.2-.3.4-.6.6-.9.1-.2.2-.4.4-.6,0,0,0-.1.1-.2.3-.5.6-1,.8-1.5.3-.6.6-1.1,1-1.7.1-.2.2-.5.4-.7,0,0,0-.2.1-.2.1-.3.3-.6.4-.9s.3-.6.5-.9c.1-.3.3-.6.4-.9.1-.2.2-.4.3-.7h0c0-.1.1-.2.1-.3h0c.1-.2.2-.5.3-.7.1-.3.3-.6.4-.9,0-.2.2-.4.3-.6.1-.3.3-.6.4-.9s.3-.6.4-.9c0,0,0-.2.1-.2,0-.1.1-.3.2-.4.2-.4.3-.8.5-1.1.2-.4.4-.9.5-1.3.2-.4.3-.8.5-1.2h0c2.3-6.3,4.1-12.6,5.3-19.1h0c.7-3.7,1.1-7.4,1.4-11.2v-.6c.2-2.5.3-5.1.3-7.6v-3.4c-.7-23.4-9.1-46-23.8-64.2-.3-.4-.6-.8-1-1.2-.3-.4-.7-.8-1-1.2-38.6-45.3-106.7-50.6-151.9-12-8.2,7-15.4,15.3-21.1,24.4-.5.8-1,1.6-1.5,2.4-.5.8-.9,1.6-1.4,2.4-9.1,16.1-13.8,34.3-13.8,52.7l1,.3Z"/>
  <path class="st3" d="M186.3,148.7c17.7,4.5,35.9,7.2,54.1,7.8,2.8.2,5.5.1,8.3,0,6.1-.5,11.3-2.4,17.1-3.5,2.8-.5,5.9-.9,8.7-1.4-.6-.8-1.3-1.6-2-2.4-6,.5-12.2,2.2-18.3,3-10.4,1.3-22-.2-29.9-3.8-3.8-1.8-6.8-4-10.6-5.7-.5-.3-1.1-.4-1.7-.5-1.1,0-2.2.2-3.1.8-6.4,3.2-15.7,5.8-24.3,4.4-.6.5.6,1.1,1.6,1.4h.1Z"/>
  <path class="st3" d="M148.2,160h-.2c.3-.2.6-.4.9-.7l-.7.7Z"/>
  <path class="st3" d="M96.6,166.4c3.6.3,7.2.5,10.8.6,2.8.1,5.5.1,8.3,0,6.1-.5,11.3-2.4,17.1-3.5,5.3-1,11.8-1.4,15.1-3.5-8.7-1.5-17.7,1.6-26.7,2.7-7.3.9-14.6.5-21.8-1.1-1,1.6-1.9,3.2-2.9,4.8h0Z"/>
  <path class="st7" d="M140.1,314.4c.9.5,1.7.9,2.6,1.4.3.1.6.3.9.5.3.1.5.2.8.4,0,0,.1,0,.2.1.2.1.4.2.6.3.2.1.5.2.7.3.3.1.5.2.8.4,1,.5,2,.9,3,1.3,3.6,1.5,7.3,2.8,11.1,3.8.2,0,.4.1.5.1,1.6.5,3.2.9,4.9,1.2,2.9.7,5.7,1.2,8.6,1.6h0c.4,0,.7.1,1,.1h.1q0,0,0,0c.4,0,.8.1,1.1.1h0c.4,0,.7,0,1.1.1.4,0,.8,0,1.2.1h2.4c2.8.2,5.6.3,8.4.3s6.1-.1,9.1-.4h0c.6,0,1.3-.1,1.9-.2h2.3c.2-.1.5-.2.8-.2h1.5c5.5-.8,10.9-2,16.2-3.6.3,0,.6-.2.8-.3-2.6-12.2-10.8-22.5-22-27.9,1.4-1.3,2.3-3,2.7-4.9.5-2.4,0-4.9-1.3-7-1.3-2-3.3-3.4-5.7-3.9l-14.8-3.1c-5-1-9.8,2.2-10.8,7.2-.2.7-.2,1.5-.2,2.2-14.3,9.5-24.5,19.3-31,29.8l.5.2Z"/>
  <circle class="st1" cx="198.8" cy="229" r="36.1"/>
  <path class="st2" d="M193.6,263.2c-9,2.4-19-.8-26-7s-11.5-14.9-14-23.9c-1.9-6.6-2.7-13.9.2-20.1s10.8-10.4,16.9-7.2c-3.8-4.4-1.9-11.6,2.5-15.4s10.4-4.8,16.2-5.4c8.3-.9,16.9-.9,24.9,1.8s15.1,8.6,17.6,16.6c5.2,2.4,11.4,1,15.1-3.4.9,5.1-1.6,10.2-6.3,12.4l12.2-3.9c2.1,4.4-1.6,9.9-6.3,11.3s-9.7-.1-14.2-2.2-8.8-4.6-13.6-5.4-10.5.8-12.7,5.1c-1.2,2.3-1.2,5-1.9,7.4s-2.4,5-5,5.2c-1.6.1-3.2-.7-4.8-.6-2,.4-3.6,2-4.1,4-.4,2-.4,4,0,6l3.1,23.6.2,1.1h0Z"/>
</svg>