<?xml version="1.0" encoding="UTF-8"?>
<svg id="Layer_1" xmlns="http://www.w3.org/2000/svg" version="1.1" viewBox="0 0 852 663.8">
  <!-- Generator: Adobe Illustrator 29.1.0, SVG Export Plug-In . SVG Version: 2.1.0 Build 142)  -->
  <defs>
    <style>
      .st0 {
        fill: #fcc5a0;
      }

      .st1 {
        fill: #2f2e41;
      }

      .st2 {
        fill: #fff;
      }

      .st3 {
        fill: #f0f0f0;
      }

      .st4 {
        fill: #3f3d56;
      }

      .st5 {
        fill: #f2f2f2;
      }

      .st6 {
        isolation: isolate;
        opacity: .2;
      }

      .st7 {
        fill: #a0616a;
      }

      .st8 {
        fill: #e4e4e4;
      }

      .st9 {
        fill: #6c63ff;
      }
    </style>
  </defs>
  <path class="st3" d="M249.7,554.8v-15.2c0,0-1.4-225.8-1.4-225.8v-8.4c0,0-.8-124.3-.8-124.3-11.1-7-22.7-13.1-34.6-18.5-46.9-20.8-102.7-29.3-148.9-7-24.7,12.4-43.7,33.6-53.4,59.4-.3.7-.5,1.3-.8,2-7.7,22-7.6,45.8,3.6,66.4,20.2,37,65.3,50.7,105.4,63.8,40.1,13.1,84.5,34.3,94.5,75.3-26.2-32.2-73.5-37-105.6-10.9-10.7,8.7-18.8,20.2-23.4,33.2-.7,2-1.4,4.1-2,6.2-1.4,5-2.2,10.2-2.5,15.4-2,39.7,28.5,75.3,64.6,91.9,32.7,15,69.3,17.9,105.4,19.4v-22.9Z"/>
  <path class="st2" d="M249.6,539.6v15.2c-16.2-41.9-49-75.3-90.6-92.4-24.3-9.8-50.6-13.7-76.7-11.4.6-2.1,1.3-4.2,2-6.2,10.1-.7,20.3-.6,30.4.5,36.1,3.7,70,18.9,96.8,43.3,15.7,14.5,28.6,31.8,38,50.9Z"/>
  <path class="st2" d="M248.2,305.3v8.4c-8.4-8.2-17.5-15.6-27.2-22.2-30.1-20.7-64.2-36.4-98.7-48.2-35.4-12.1-72.2-19.8-109.4-23-1.7-.2-3.1-1.7-3-3.4,0-.7.2-1.5.8-2,.5-.5,1.3-.7,2-.6,4.6.4,9.2.8,13.8,1.3,38.2,4.3,75.6,13.3,111.6,26.9,34.7,13,69,29.9,98.3,52.7,4.1,3.1,8.1,6.5,12,10Z"/>
  <circle class="st3" cx="48.8" cy="104.8" r="12.8"/>
  <path class="st4" d="M572.3,157.7h-3.6V57.8C568.6,25.9,542.7,0,510.8,0h-211.7c-31.9,0-57.8,25.9-57.8,57.8v548.1c0,31.9,25.9,57.8,57.8,57.8h211.7c31.9,0,57.8-25.9,57.8-57.8V228.9h3.6v-71.1Z"/>
  <path class="st2" d="M556.3,58.2v547.3c0,.8,0,1.6,0,2.4-1.3,22.9-20.2,40.8-43.1,40.8h-212.7c-23,0-41.9-18-43.1-41,0-.7,0-1.5,0-2.2V58.2c0-23.9,19.3-43.2,43.2-43.2h25.8c-4.3,10.5.8,22.5,11.2,26.7,2.5,1,5.1,1.5,7.7,1.5h121.3c11.3,0,20.5-9.2,20.5-20.5,0-2.7-.5-5.3-1.5-7.7h27.6c23.9,0,43.2,19.3,43.2,43.2Z"/>
  <path class="st3" d="M552.4,471h-291.2c-2.1,0-3.9-1.7-3.9-3.9V109.9c0-2.1,1.7-3.9,3.9-3.9h291.2c2.1,0,3.9,1.7,3.9,3.9v357.3c0,2.1-1.7,3.9-3.9,3.9Z"/>
  <path class="st2" d="M531,130.9h-247.9c-2.1,0-3.9,1.7-3.9,3.9v258.1c0,2.1,1.7,3.8,3.9,3.9h247.9c2.1,0,3.9-1.7,3.9-3.9V134.8c0-2.1-1.7-3.9-3.9-3.9Z"/>
  <circle class="st9" cx="278.8" cy="83" r="10"/>
  <path class="st3" d="M326.4,409.5c-17.1-27.5-11.2-62.6-8.3-94.9,4.3-48.4.4-97.1-11.5-144.2,14.1,15.8,23.5,35.3,26.9,56.2,2.8,17.5,1.4,35.4,4.6,52.8,6.8,37.3,34.4,70.9,30.2,108.6-.9,8.3-4.1,17.3-11.5,21.2-8.3,4.5-18.5.9-27.3-2.7"/>
  <path class="st9" d="M297.6,420.9c-3.9-3.9-10.2-3.9-14.1,0s-3.9,10.2,0,14.1h0s14.1,14.2,14.1,14.2l14.1-14.1c3.9-3.9,3.9-10.2,0-14.1-3.9-3.9-10.2-3.9-14.1,0Z"/>
  <path class="st9" d="M341.6,420.9c-3.9-3.9-10.2-3.9-14.1,0s-3.9,10.2,0,14.1h0s14.1,14.2,14.1,14.2l14.1-14.1c3.9-3.9,3.9-10.2,0-14.1-3.9-3.9-10.2-3.9-14.1,0Z"/>
  <path class="st9" d="M385.6,420.9c-3.9-3.9-10.2-3.9-14.1,0s-3.9,10.2,0,14.1h0s14.1,14.2,14.1,14.2l14.1-14.1c3.9-3.9,3.9-10.2,0-14.1-3.9-3.9-10.2-3.9-14.1,0Z"/>
  <path class="st9" d="M463.3,90.8h-141c-4.3,0-7.7-3.4-7.7-7.7,0-4.3,3.4-7.7,7.7-7.7h141c4.3,0,7.7,3.4,7.7,7.7,0,4.3-3.4,7.7-7.7,7.7h0Z"/>
  <path class="st3" d="M552.4,538h-291.2c-2.1,0-3.9,1.7-3.9,3.9v65.9c1.2,23,20.1,41,43.1,41h212.7c22.9,0,41.9-17.9,43.1-40.8v-66.1c0-2.1-1.7-3.9-3.9-3.9Z"/>
  <path class="st2" d="M531,562.9h-247.9c-2.1,0-3.9,1.7-3.9,3.9v76.4c6.5,3.6,13.7,5.5,21.1,5.5h212.7c7.6,0,15.2-2,21.8-5.9v-76.1c0-2.1-1.7-3.9-3.9-3.9Z"/>
  <circle class="st8" cx="278.8" cy="515" r="10"/>
  <path class="st8" d="M463.3,522.8h-141c-4.3,0-7.7-3.4-7.7-7.7,0-4.3,3.4-7.7,7.7-7.7h141c4.3,0,7.7,3.4,7.7,7.7,0,4.3-3.4,7.7-7.7,7.7h0Z"/>
  <path class="st5" d="M383.6,648.7h-73.3c7.5-14.7,21.2-26.6,37.5-27.3,2.4,0,4.9,0,7.3.5,1,.2,2,.4,3,.7,12.7,3.3,22.5,13.3,25.5,26.1Z"/>
  <path class="st5" d="M500.8,648.7h-99.5c1.5-4.6,2.8-9.2,3.9-13.9,4.5-19.3,9-41,25.5-52,9.2-6.1,20.4-7.1,30.9-4.4.3,0,.7.2,1,.3,12.5,3.5,23.2,11.5,30,22.5,8.4,14.1,10.3,31,8.2,47.5Z"/>
  <path class="st2" d="M359.1,636.9c0,4-.4,7.9-1,11.8h-2.9c1.5-8.8,1.5-17.9-.1-26.7,1,.2,2,.4,3,.7.8,4.7,1.1,9.5,1,14.3Z"/>
  <path class="st2" d="M463,579.6c0,2.2,0,4.3,0,6.5-.4,18-3.1,36-8,53.3-.9,3.1-1.8,6.2-2.8,9.3h-2.9c1.8-5.5,3.4-11,4.7-16.6,4.2-17.1,6.3-34.6,6.2-52.2,0-.8.7-1.5,1.5-1.5.3,0,.7,0,1,.3.3.2.4.6.4.9Z"/>
  <circle class="st5" cx="515.8" cy="592.1" r="6"/>
  <circle class="st9" cx="372" cy="154.2" r="6"/>
  <circle class="st8" cx="483" cy="189.2" r="6"/>
  <circle class="st8" cx="480" cy="311.2" r="6"/>
  <path class="st4" d="M453.4,374.4l-4.1-13c-.7-3-1.6-6-2.6-8.9-4.6-13.8-14.6-41.8-26.5-70.9l-13.9-13.9-3.9-2.5-3.6-2.4-1.6,1.5-15,13.8v.9c-.1,0-9.9,83.1-9.9,83.1,0,0,0,.2,0,.7-.1,1-.3,3-.6,5.8-.6,5.3-1.5,14.6-2.4,26.3h90.6l-6.4-20.4Z"/>
  <polygon class="st6" points="389.2 315.3 385.4 339 411.2 349.6 389.2 315.3"/>
  <path class="st1" d="M435.3,209.1c-12.8-14-34.5-14.9-48.5-2.1-7.1,6.5-11.2,15.7-11.1,25.3v25.6c0,2.6,2.1,4.6,4.6,4.6h59.5c2.5,0,4.6-2.1,4.6-4.6v-25.6c0-8.6-3.2-16.9-9-23.2Z"/>
  <circle class="st0" cx="416.5" cy="235.9" r="25.2"/>
  <path class="st1" d="M435.3,209.1c-3.2-1.3-6.6-1.9-10-1.9h-5.1c-8.8,0-17,4.2-22.1,11.4-.2.2-.3.5-.5.7-3,4.5-4.6,9.7-4.6,15.1v.5h10.8l3.7-10.4.7,10.4h5.6l1.9-5.2.4,5.2c11.7,4.3,23.9,4.1,36.4,0v-.5c0-11.1-6.8-21.1-17.2-25.3Z"/>
  <path class="st1" d="M419.9,260.8c0,0,0-.1,0-.2-3.4-6.5-7.6-16.4-7.9-25.7-.1-5.6,1.2-11,4.9-15.5l.7-.9h-29.3v44l8.9,1.6,5.2.9,12.5,2.2c.3,0,.5,0,.8,0,1.5,0,2.9-.7,3.7-1.9.6-.8.9-1.8.9-2.9,0-.6-.2-1.2-.4-1.8Z"/>
  <path class="st6" d="M373,360.9h0c13.8,16,36.6,20.6,55.5,11.2l5.5-2.7-61-8.5Z"/>
  <path class="st7" d="M657,436.7c.3-6.5,5.9-11.6,12.4-11.3.7,0,1.4.1,2.1.3l15.7-22.1,15.7,6.2-22.5,30.8c-1.9,6.3-8.5,9.9-14.8,8-5.3-1.6-8.8-6.6-8.5-12h0Z"/>
  <path class="st4" d="M674.1,417.7l27.8-46.8-11.3-30.2,15.4-41.2.6.2c.4.2,9.1,4.1,10.5,18.1l17.8,55.8-47.4,61.5-13.3-17.3Z"/>
  <path class="st0" d="M522.9,245.6c6.5.8,11.1,6.7,10.3,13.2,0,.7-.2,1.4-.4,2l20.8,17.3-7.4,15.2-29-24.9c-6.1-2.4-9.2-9.2-6.8-15.4,2-5.1,7.2-8.2,12.7-7.5h0Z"/>
  <path class="st4" d="M540.5,257.3l44.5,34.8,31-9.9,39.9,20.6-.3.6c-.2.4-4.8,9.8-18.9,10l-57,14.8-57.6-57.6,18.3-13.2Z"/>
  <polygon class="st7" points="622 645.7 606.5 645.7 599.2 586 622 586 622 645.7"/>
  <path class="st1" d="M590.8,641.3h34.5v18.8h-48.6v-4.7c0-7.8,6.3-14.1,14.1-14.1h0Z"/>
  <polygon class="st7" points="683.9 645.7 668.4 645.7 661 586 683.9 586 683.9 645.7"/>
  <path class="st1" d="M652.7,641.3h34.5v18.8h-48.6v-4.7c0-7.8,6.3-14.1,14.1-14.1h0Z"/>
  <polygon class="st1" points="689.4 427.8 688.1 516.2 686.9 632.3 659.1 629.8 645.2 469.4 627.5 629.8 598.8 629.8 596 468.2 606.1 432.8 689.4 427.8"/>
  <path class="st4" d="M603.3,433.4l-4.2-.2,19.7-108.3-8-32.7c-.9-3.5,1-7.1,4.4-8.4l14.5-5.4,5.1-14.1,40.4,4.3,1,11c4.4,1.4,40.4,13.4,37.9,27.1-2.5,13.5-16.9,55.9-17.7,58.1l-2.5,60.9-.3.2c-.4.2-28.2,13.9-58.4,13.9-10.6,0-21.6-1.7-31.7-6.3Z"/>
  <circle class="st0" cx="653.3" cy="228.2" r="29.1"/>
  <path class="st1" d="M676.8,256.4c-5.5,5.9-15.8,2.7-16.5-5.3,0-.6,0-1.3,0-1.9.4-3.6,2.4-6.8,1.9-10.6-.1-.9-.5-1.8-1-2.6-4.4-5.9-14.8,2.6-18.9-2.7-2.6-3.3.4-8.4-1.5-12.1-2.6-4.8-10.2-2.5-15.1-5.1-5.3-2.9-5-11.2-1.5-16.1,4.3-6.1,11.8-9.3,19.2-9.8s14.8,1.5,21.7,4.2c7.9,3.1,15.7,7.3,20.5,14.2,5.9,8.4,6.5,19.8,3.5,29.6-1.8,6-7.9,13.3-12.4,18.1Z"/>
  <path class="st9" d="M466,372h-15.6c-1,0-1.9-.8-2-1.8l-3.1-32h25.8l-3.1,32c0,1-1,1.8-2,1.8Z"/>
  <path class="st4" d="M471.1,342.3h-25.7c-1.1,0-2-.9-2-2v-4.8c0-1.1.9-2,2-2h25.7c1.1,0,2,.9,2,2v4.8c0,1.1-.9,2-2,2Z"/>
  <path class="st0" d="M460.6,355.1c-4.2-4.8-11.5-5.2-16.3-.9-.5.5-1,.9-1.4,1.5l-25.4-7.1-8.1,14.4,36,9.6c5.3,3.6,12.5,2.3,16.2-3,3-4.4,2.6-10.4-1-14.3Z"/>
  <path class="st4" d="M419.2,347.3l-12.1-7.7-3.4-1.6-15.6-7.3c.5-1.6,1.8-6.3,3-12.3,2.9-14,5.4-34.9-4.6-38.5-1.4-.5-2.9-.8-4.4-.9-2,0-4.1.4-5.9,1.3-7.5,3.9-10.5,15-10.6,15.4l-9.3,25.5c-.9,1.2-9.7,13.4-8.3,22.5.4,2.6,1.8,5,4,6.5,6.4,4.6,13.2,8.8,20.2,12.5,1.6.8,3.2,1.6,4.8,2.3,8.7,4,16.4,6,22.9,6,2.1,0,4.2-.2,6.3-.7l25.1-.6.2-.7v-.3c0,0,3.4-15.4,3.4-15.4l.9-4.4-16.5-1.7Z"/>
</svg>