<?xml version="1.0" encoding="UTF-8"?>
<svg id="Layer_1" xmlns="http://www.w3.org/2000/svg" version="1.1" viewBox="0 0 910.9 705">
  <!-- Generator: Adobe Illustrator 29.1.0, SVG Export Plug-In . SVG Version: 2.1.0 Build 142)  -->
  <defs>
    <style>
      .st0 {
        fill: #fcc5a0;
      }

      .st1 {
        fill: #cacaca;
      }

      .st2 {
        fill: #2f2e41;
      }

      .st3 {
        fill: #fff;
      }

      .st4 {
        fill: #ffb6b6;
      }

      .st5 {
        fill: #3f3d56;
      }

      .st6 {
        isolation: isolate;
        opacity: .2;
      }

      .st7 {
        fill: #e4e4e4;
      }

      .st8 {
        fill: #6c63ff;
      }

      .st9 {
        fill: #e6e6e6;
      }
    </style>
  </defs>
  <ellipse class="st5" cx="697.3" cy="542.8" rx="48.5" ry="99"/>
  <path class="st1" d="M692.8,704.8c19.4-116.6.2-232.7,0-233.8l-3.8.6c.2,1.2,19.3,116.7,0,232.6l3.8.6Z"/>
  <rect class="st1" x="673.7" y="510" width="3.8" height="49.7" transform="translate(-114.7 878.4) rotate(-61.9)"/>
  <rect class="st1" x="697.1" y="544.8" width="49.7" height="3.8" transform="translate(-172.5 405.4) rotate(-28.2)"/>
  <ellipse class="st9" cx="813.9" cy="386.1" rx="94.9" ry="193.6"/>
  <path class="st1" d="M803.3,702.7c37.9-227.7.4-454.5,0-456.8l-3.8.6c.4,2.3,37.8,228.5,0,455.5l3.8.6Z"/>
  <rect class="st1" x="769.5" y="322.1" width="3.8" height="97.3" transform="translate(80.7 876.2) rotate(-61.9)"/>
  <rect class="st1" x="813.4" y="391.9" width="97.3" height="3.8" transform="translate(-83.8 453.4) rotate(-28.2)"/>
  <path class="st7" d="M593.5,703.3H88.9c-3.9,0-7-3.1-7-7v-318.8c0-3.9,3.1-7,7-7h504.6c3.9,0,7,3.1,7,7v318.8c0,3.9-3.1,7-7,7Z"/>
  <path class="st3" d="M135.3,409.1c-1.7,0-3,1.3-3,3v249.6c0,1.7,1.3,3,3,3h411.8c1.7,0,3-1.3,3-3v-249.6c0-1.7-1.3-3-3-3H135.3Z"/>
  <path class="st9" d="M551.1,473.4v-15.8h-58.2v-49.5h-15.8v49.5h-103.7v-49.5h-15.8v49.5h-159.9v-49.5h-15.8v49.5h-55.3v15.8h55.3v61.5h-55.3v15.8h55.3v65.9h-55.3v15.8h140.5v33.3h15.8v-33.3h74.7v33.3h15.8v-33.3h177.7v-15.8h-177.7v-65.9h177.7v-15.8h-58.2v-61.5h58.2ZM357.6,473.4v19.3h-159.9v-19.3h159.9ZM197.7,508.5h159.9v26.4h-159.9v-26.4ZM197.7,616.6v-65.9h69.4v65.9h-69.4ZM357.6,616.6h-74.7v-65.9h74.7v65.9ZM477.1,534.9h-103.7v-61.5h103.7v61.5Z"/>
  <circle class="st8" cx="365.5" cy="544.8" r="20.2"/>
  <polygon class="st1" points="910.5 705 0 705 0 702.8 910.9 702.8 910.5 705"/>
  <circle class="st8" cx="367.9" cy="300.1" r="124.7"/>
  <polygon class="st8" points="369.1 502.7 329.8 435.4 290.4 368.2 368.3 367.7 446.3 367.2 407.7 435 369.1 502.7"/>
  <circle class="st3" cx="368.9" cy="299.3" r="44.7"/>
  <path class="st2" d="M365,.6s-26.7-7.5-34.6,28.9c-7.9,36.4-2.9,31.9-2.9,31.9l59.5-7s17.9-42.7-22.1-53.8Z"/>
  <path class="st0" d="M326.2,160.5s-40.2,1.9-33.3,17.7c.5,1.1,1,2.2,1.4,3.1,5,11.4,10.7,22.5,17.2,33.2l24.7,41,9-5-25.3-65.8,22.8-1.9-16.4-22.3Z"/>
  <path class="st0" d="M432.3,177.2l13,28.3s9.8,9.8,20.4,48.8,13,37.6,13,37.6l-10.6,3.5-43.3-78.8-21.4-26.9,6.5-14.4,22.3,1.9Z"/>
  <path class="st2" d="M416.5,144.7l18.7,34.8s42.4,83.3,38,83c-4.9-.3-18.8,5.4-23,11-2,2.7-32-63-42.5-77.7l-22.8-17.7s-64.6,10.9-64.7,7.3c0-1.7,21.4,39.8,17,38-5-2.1-16.8,8.1-22,6-2.1-.9-17.3-37.6-23.4-52.7-1.6-3.9,0-8.4,3.8-10.3,4.6-2.4,68.7-17,68.7-17l-1.1-5.7,4.6-9.3,48.8,10.2Z"/>
  <circle class="st0" cx="360.3" cy="39.3" r="18.1"/>
  <path class="st1" d="M418.2,147.5c1,3-5.5,4.7-14.5,3-7.8-1.5-16.4-3.2-23.1-4.6-7.2-1.5-12.4-2.6-12.4-2.6,0,0-1.9,11.6-7.9,10.2-5.2-1.2-20.8-55.5-25-70.5-.6-2.3.3-4.6,2.3-5.9l21.4-13s14.7-5.1,20.1-5.2,14.7-1.5,14.7-1.5c0,0,10.7.9,12.5,8.8s9.6,54.7,9.8,66c.2,12.3-.8,6.3,2.2,15.3Z"/>
  <path class="st2" d="M367.1,16s-7.5,19.9-25.9,28.2l-3-17.7,28.9-10.5Z"/>
  <ellipse class="st4" cx="378" cy="32.3" rx="2.6" ry="4.9"/>
  <path class="st2" d="M352.7,260.2l-35.9,16.5-.2-.5c-3.5-7.7-.2-16.9,7.6-20.4h0s21.9-10.1,21.9-10.1l6.6,14.4Z"/>
  <path class="st2" d="M462.9,293.1l22-9.9h0c7.8-3.5,16.9,0,20.3,7.7l.2.5-36.1,16.2-6.5-14.5Z"/>
  <polygon class="st6" points="403.2 104.5 399 150.8 406.5 151.1 403.2 104.5"/>
  <path class="st0" d="M373.9,190.9c3.4-3.8,3-9.5-.7-12.9-.4-.4-.8-.7-1.3-1l-16.2-81.6-18.6,7.1,21.7,78c-2.4,4.5-.7,10,3.8,12.4,3.7,2,8.4,1.1,11.2-2Z"/>
  <path class="st1" d="M359.9,109.2l-20.4,3.6c-2.2.4-4.4-1.1-4.7-3.3,0-.2,0-.4,0-.6l-.6-20.6c-1.1-6.2,3.1-12.1,9.3-13.1,6.2-1.1,12,3.1,13.1,9.2l6.5,19.5c.7,2.1-.4,4.5-2.6,5.2-.2,0-.4.1-.6.1h0Z"/>
  <path class="st0" d="M389.5,189.5c4.4-2.5,5.9-8.1,3.5-12.4-.3-.5-.6-.9-.9-1.3l10.9-82.5-19.9.8-4.4,80.8c-3.7,3.5-3.9,9.3-.4,13,2.9,3.1,7.6,3.8,11.2,1.7h0Z"/>
  <path class="st1" d="M402.4,107.6l-20.5-3.1c-2.2-.3-3.8-2.4-3.4-4.7,0-.2,0-.4.1-.6l6.1-19.7c1-6.2,6.8-10.4,13-9.5,6.2,1,10.4,6.8,9.5,13v20.6c-.1,2.3-2,4.1-4.2,4.1-.2,0-.4,0-.6,0h0Z"/>
</svg>