<?xml version="1.0" encoding="UTF-8"?>
<svg id="Layer_1" xmlns="http://www.w3.org/2000/svg" version="1.1" viewBox="0 0 727.2 478.4">
  <!-- Generator: Adobe Illustrator 29.1.0, SVG Export Plug-In . SVG Version: 2.1.0 Build 142)  -->
  <defs>
    <style>
      .st0 {
        fill: #2f2e41;
      }

      .st1 {
        fill: #3f3d56;
      }

      .st2 {
        isolation: isolate;
        opacity: .2;
      }

      .st3 {
        fill: #ccc;
      }

      .st4 {
        fill: #6c63ff;
      }

      .st5 {
        fill: #fed2aa;
      }

      .st6 {
        fill: #e6e6e6;
      }
    </style>
  </defs>
  <path class="st4" d="M368.6,78.3l5.6-22.6-13.8-3.4-5.5,22c-3.6-.9-7.3-1.7-11-2.6l5.5-22.2-13.8-3.4-5.6,22.6c-3-.7-5.9-1.4-8.8-2.1l-19-4.7-3.7,14.7s10,2.3,10,2.5c5.6,1.4,6.6,5.1,6.4,8l-6.4,25.8c.5.1,1,.3,1.4.5l-1.5-.4-9,36.1c-.8,2.6-3.6,4.1-6.2,3.3,0,0,0,0,0,0h0c.1.2-10-2.5-10-2.5l-6.8,15.8,17.9,4.5c3.4.8,6.6,1.7,9.8,2.5l-5.7,22.9,13.8,3.4,5.6-22.6c3.7,1,7.3,1.9,11,2.8l-5.6,22.5,13.8,3.4,5.7-22.9c23.5,4.4,41.2,2.6,48.6-18.6,6-17.1-.3-27-12.7-33.4,9-2.1,15.8-8,17.6-20.2h.2c2.5-16.8-10.2-25.8-27.6-31.7ZM364.7,154.2c-4.2,17.1-33.1,7.9-42.4,5.5l7.6-30.3c9.3,2.3,39.3,6.9,34.8,24.8h0ZM369,109.8c-3.9,15.6-27.9,7.6-35.6,5.7l6.8-27.5c7.8,1.9,32.8,5.5,28.7,21.8h.1Z"/>
  <path class="st1" d="M339.2,254.5c-70.3,0-127.2-57-127.2-127.2S268.9,0,339.2,0s127.2,57,127.2,127.2c0,70.2-57,127.2-127.2,127.2ZM339.2,3.4c-68.4,0-123.8,55.4-123.8,123.8s55.4,123.8,123.8,123.8,123.8-55.4,123.8-123.8h0c0-68.4-55.5-123.8-123.8-123.8ZM334.9,206.5l-17.1-4.2,5.6-22.5c-2.6-.6-5.1-1.3-7.7-2l-5.6,22.6-17.1-4.2,5.7-22.9c-.7-.2-1.3-.3-2-.5-2-.5-4-1.1-6.2-1.6l-19.9-5,8.2-19,1.4.4c2,.5,4,1.1,5.8,1.5l-.2-.4,4.5,1.4c1.7.6,3.6-.4,4.2-2.1,0,0,0,0,0,0l8.6-34.5h0s6.8-27.3,6.8-27.3c.1-3.2-1.5-5.2-5.1-6.1l-3.8-1h0c-1.8-.5-4.1-1-6.2-1.5l-1.7-.4,4.5-18.1,20.7,5.2c2.3.6,4.7,1.1,7.1,1.7l5.7-22.6,17.1,4.2-5.5,22.2c1,.2,1.9.5,2.9.7,1.6.4,3.2.7,4.8,1.1l5.5-22,17.2,4.2-5.7,22.8c13.5,4.9,30.2,13.6,27.3,33v.9c-.1,0-.3,0-.3,0-1.7,9.8-6.7,16.4-14.9,19.5,12,7.6,15.2,18.6,10,33.5-8.2,23.5-29.2,23.5-48.9,20l-5.7,22.9ZM322,199.8l10.5,2.6,5.7-22.8,1.6.3c27,5.1,40.5,0,46.7-17.5,5.1-14.5,1.3-24.5-11.8-31.3l-4.1-2.1,4.5-1c9.4-2.2,14.7-8.3,16.3-18.8v-.9c.1,0,.3,0,.3,0,1.5-13.1-6.7-22-26.6-28.9l-1.5-.5,5.6-22.5-10.5-2.6-5.5,22-1.7-.4c-2.1-.5-4.3-1-6.4-1.5-1.5-.4-3.1-.7-4.6-1.1l-1.7-.4,5.5-22.2-10.5-2.6-5.6,22.6-1.6-.4c-3-.7-6-1.4-8.8-2.1l-17.3-4.3-2.8,11.4c2.8.6,5.6,1.3,8.4,2.1,5.2,1.3,7.9,4.9,7.7,9.7v.3s-6.1,24.2-6.1,24.2h0s-.4,1.5-.4,1.5h0s0,0,0,0h0s-9,36.1-9,36.1c-1.1,3.6-4.8,5.6-8.4,4.5,0,0,0,0-.1,0h0c-1.3-.2-3.7-.8-8.6-2.1l-5.4,12.6,16,4c2.1.5,4.2,1.1,6.2,1.6,1.2.3,2.4.6,3.6.9l1.6.4-5.7,22.9,10.4,2.6,5.7-22.7,1.7.5c3.6,1,7.3,1.9,10.9,2.8l1.7.4-5.6,22.5ZM344.6,165.3c-8.3,0-17.3-2.4-23.1-3.9-1-.3-1.9-.5-2.7-.7l-1.7-.4,8.4-33.6,1.7.4c.9.2,2.1.5,3.4.8,9.5,2.1,25.4,5.7,31.1,15,1.7,2.7,2.4,5.8,1.9,9h.1l-.5,2.1c-.8,3.6-3.1,6.8-6.3,8.6-3.4,2-7.7,2.7-12.3,2.7h0ZM321.3,157.8c.3,0,.7.2,1.1.3,8,2.1,24.5,6.4,32.9,1.5,2.1-1.2,3.7-3.2,4.5-5.6l.2-.9c.8-2.9.4-5.9-1.1-8.5-4.9-8-20.6-11.5-28.9-13.4-.6-.1-1.2-.3-1.8-.4l-6.7,27ZM350.8,120.3c-6.8,0-14-1.9-18.7-3.2-.9-.2-1.6-.4-2.3-.6l-1.7-.4,7.6-30.8,1.7.4c.8.2,1.7.4,2.8.6,7.8,1.7,20.8,4.6,25.8,12.6,1.6,2.5,2.2,5.5,1.8,8.5h.1l-.4,2.1c-.8,3.5-2.9,6.5-6,8.3-3.3,1.7-7,2.6-10.7,2.4h0ZM332.3,113.6c.2,0,.5.1.7.2,6.9,1.8,19.8,5.3,26.8,1.1,1.8-1,3.2-2.7,3.9-4.6l.4-1.6c.8-2.7.5-5.6-1-8-4.2-6.8-16.8-9.6-23.6-11.1-.4,0-.8-.2-1.2-.3l-6,24.2Z"/>
  <path class="st5" d="M404.7,227.2c3.2-4.5,9.5-5.6,14-2.4.8.6,1.5,1.2,2.1,2l33.8-11.5-4.7,18-31.4,8.2c-4.6,3.1-10.9,1.9-14-2.7-2.4-3.5-2.3-8.1.2-11.6h0Z"/>
  <path class="st6" d="M670.4,476.9c2.5-26.9,9.4-53.1,20.4-77.7,3.1-6.9,6.4-13.6,10.1-20.1.9-1.7-1.6-3.2-2.6-1.5-13.4,23.9-22.8,49.8-27.8,76.7-1.4,7.5-2.4,15.1-3.1,22.7-.2,1.9,2.8,1.9,3,0h0Z"/>
  <circle class="st6" cx="708.2" cy="364.9" r="19"/>
  <path class="st6" d="M672.4,477.4c1.6-17.4,6.1-34.5,13.2-50.4,2-4.4,4.2-8.8,6.6-13,.3-.5,0-1.1-.4-1.3-.5-.2-1,0-1.3.3-8.7,15.5-14.8,32.3-18,49.7-.9,4.9-1.6,9.8-2,14.7-.1,1.2,1.8,1.2,1.9,0h0Z"/>
  <circle class="st6" cx="696.9" cy="404.8" r="12.3"/>
  <path class="st6" d="M669.9,476.3c-9.4-14.7-16.4-30.9-20.6-47.9-1.2-4.7-2.1-9.5-2.8-14.3,0-.5-.6-.9-1.1-.8-.5,0-.9.5-.8,1.1,2.7,17.5,8.2,34.5,16.4,50.3,2.3,4.4,4.8,8.7,7.5,12.9.7,1.1,2.2-.1,1.5-1.2h0Z"/>
  <circle class="st6" cx="644.5" cy="403.9" r="12.3"/>
  <path class="st5" d="M571.3,298.5c3.1-4.6,1.8-10.9-2.9-13.9-.5-.3-1-.6-1.6-.8l2.6-35.6-16.2,9.1v32.5c-1.8,5.3.9,11,6.2,12.9,4.4,1.6,9.3-.1,11.9-4h0Z"/>
  <path class="st4" d="M567.3,160l4.4,113.4-18-1-4-119,3.8-1.8c4.8-2.3,10.6-.2,12.9,4.6.6,1.2.9,2.4.9,3.7Z"/>
  <polygon class="st5" points="511.6 466.2 499.4 466.2 493.5 418.9 511.6 418.9 511.6 466.2"/>
  <path class="st0" d="M490.6,462.7h23.6v14.9h-38.5c0-8.2,6.7-14.9,14.9-14.9h0Z"/>
  <polygon class="st5" points="613.6 451.6 602.5 456.7 577.3 416.3 593.7 408.7 613.6 451.6"/>
  <path class="st0" d="M593.1,457.2l21.5-9.9h0l6.3,13.5h0l-35,16.2h0c-3.5-7.5-.2-16.3,7.3-19.8Z"/>
  <path class="st0" d="M482.5,311.9l12.6,144.3,17-2,12.6-131.8,69.4,125.8,18-5s-57.9-173.3-62.4-187.8c-4.9-15.9-44-22-44-22l-1.5-1.5c-16.8,22.6-23.5,51.9-21.7,80Z"/>
  <circle class="st5" cx="549.9" cy="114.5" r="24.6"/>
  <path class="st4" d="M565.3,161.9l-17.1,89s-25.9-5.2-35.2-11.4c-3.7-2.5-7-5-9.8-7.4-.5-.5-1.1-.9-1.6-1.3-4.6-4-7.5-6.9-7.5-6.9,0,0,1.5-7.2,3.3-15.8,2-9.6,4.5-20.9,5.7-25.5,2.8-10.1,12.2-21.9,19.5-29.9,5.4-5.9,13.7-8.4,21.5-6.4l13.3,3.4c5.4,1.4,8.8,6.7,7.7,12.2Z"/>
  <path class="st2" d="M524,200.8s-9.2,19.1-22.3,30c-4.6-4-7.5-6.9-7.5-6.9,0,0,1.5-7.2,3.3-15.8,11-5.8,22.4-9.5,26.5-7.3Z"/>
  <path class="st4" d="M540.3,165.9c-.9-.5-1.9-.8-2.8-1.1-4.1-1.1-8.4-.1-11.5,2.7l-54,39.5-42.9,14.4,7.8,18.3,64-15.6,42.4-37.7c5.1-4.9,5.3-12.9.4-18-1-1-2.1-1.8-3.3-2.5Z"/>
  <path class="st0" d="M551.3,138.9c3.5-5.2,6.3-12.5,2.4-17.5-3.8-4.9-11.3-4.2-17.1-6.4-8.1-3-12.8-12.5-11.3-21.1s8.3-15.6,16.5-18.5,17.3-2,25.3,1.4c9.8,4.1,18.3,12,21.8,22.1s1.6,22.1-5.7,29.8c-7.9,8.3-20.2,10.5-31.6,10.4"/>
  <path class="st0" d="M589.9,109.9c1,5.6,7.1,8.8,12.8,9.5s11.5-.2,17,1.3c9.7,2.6,16.1,11.9,19.6,21.3s5.1,19.5,9.6,28.4,13.4,16.8,23.4,15.9c-5.2,13.2-20.2,19.7-33.4,14.4-7.1-2.8-12.6-8.7-15-16-3.7-11.3.5-24.8-5.9-34.8-3.5-5.5-9.7-8.8-15.6-11.7s-12.1-5.9-16.1-11.1-4.8-13.6.1-18"/>
  <path class="st1" d="M709.5,478.1h-320.3c-.7,0-1.2-.5-1.2-1.2s.5-1.2,1.2-1.2h320.3c.7,0,1.2.5,1.2,1.2s-.5,1.2-1.2,1.2h0Z"/>
  <path class="st1" d="M321.5,478.1H1.2c-.7,0-1.2-.5-1.2-1.2,0-.7.5-1.2,1.2-1.2h320.3c.7,0,1.2.5,1.2,1.2,0,.7-.5,1.2-1.2,1.2Z"/>
  <polygon class="st5" points="205.8 465.1 217.5 461.5 209.2 414.6 191.9 419.9 205.8 465.1"/>
  <path class="st0" d="M243.5,465.5l-36.8,11.3h0l-4.4-14.2h0l22.6-6.9c7.9-2.4,16.2,2,18.6,9.9h0Z"/>
  <polygon class="st5" points="101.8 465.4 114.1 465.4 119.9 418.1 101.8 418.1 101.8 465.4"/>
  <path class="st0" d="M137.7,476.8h-38.5s0-14.9,0-14.9h23.6c8.2,0,14.9,6.7,14.9,14.9h0Z"/>
  <path class="st5" d="M104.9,308.3c-3.8-3.3-4.2-9.1-.8-12.9.4-.4.7-.8,1.2-1.1l9.5-119.7,19.3,4.8-15.5,116.8c2.9,4.2,1.9,9.9-2.3,12.8-3.5,2.4-8.2,2.2-11.4-.7Z"/>
  <circle class="st5" cx="150.6" cy="104.6" r="24.6"/>
  <path class="st3" d="M117.1,177c-5.8-8-6-19,.3-26.7,4.1-5,11-9,22.4-9,30.5,0,42.1,24.2,42.1,24.2,0,0,12.6,23.2,5.3,44.2s-7.4,23.2-7.4,23.2l-48.4-4.2s8.2-20.9-14.3-51.7Z"/>
  <path class="st3" d="M102.1,197.9l10.4-34.1c2.6-8.6,11.8-13.5,20.4-10.8.9.3,1.8.7,2.7,1.1h0c7.7,4,10.9,13.2,7.5,21.1l-13.3,30.2-27.7-7.4Z"/>
  <path class="st0" d="M178.8,227.6l41.1,212.7-22.1,6.3-53.7-140.1-24.2,143.2-23.2,3.2s-10.2-189.5,34.8-224.3l47.4-1.1Z"/>
  <path class="st5" d="M234,205.5c-.4.4-.7.9-1,1.3l-49.5,2.4-9.5-29.1-16.6,7.9,15.6,43.4,61.3-12c3.9,4.3,10.6,4.6,14.8.7,4.3-3.9,4.6-10.6.7-14.8-3.9-4.3-10.6-4.6-14.8-.7-.3.3-.6.6-.9.9h0Z"/>
  <path class="st3" d="M149.9,168.5c-1.1-9,5.4-17.1,14.3-18.1,1-.1,2-.1,2.9,0h0c8.6.6,15.3,7.7,15.3,16.3v33l-28.4,4.4-4.2-35.5Z"/>
  <path class="st0" d="M156,129.4c-3.7,0-6.5-3.9-6.4-7.6s2.6-6.9,5.6-9.1,6.5-3.5,9.8-5.1,6.6-3.6,8.7-6.6c2.5-4.1,2.9-9.1,1-13.5-1.9-4.3-5.2-7.9-9.3-10.2-6.2-3.6-13.4-4.7-20.4-3.2-6.9,1.5-17.2,5.7-21.2,11.5l-4.2,11.5c-4.3,5.2-1,12.8,1.7,19s8.2,10.8,14.6,13c6.4,2.1,13.3,2.3,19.8.6"/>
  <path class="st0" d="M133.6,91.2c-1.8-2.9-4.9-4.7-8.2-5.8-13.5-4.5-28,2.8-32.5,16.3-.7,2.2-1.2,4.5-1.3,6.7-.3,6.3,1.6,12.5,2.8,18.7s1.4,13.1-2,18.4c-2.6,4-7,6.6-11.3,8.8-3.6,1.8-7.5,3.5-11.5,3.2s-8-3.5-7.9-7.5c-1.3,2.9-2.2,5.9-2.7,9.1-.3,3.2.5,6.6,2.8,8.8,3.3,3.2,8.6,3,13.1,2.3,9.9-1.5,19.8-4.3,27.6-10.5s13-16.5,10.9-26.2c-.9-4.1-2.9-7.8-4.5-11.6s-2.9-8-2.1-12.1c.9-4.3,3.6-7.9,7.5-10,3.8-2,8.3-2.7,12.5-1.9,2.8.5,6.3,1.2,8-1.1.9-1.5.9-3.4,0-4.8-1-1.4-2.2-2.6-3.6-3.6"/>
</svg>