<?xml version="1.0" encoding="UTF-8"?>
<svg id="Layer_1" xmlns="http://www.w3.org/2000/svg" version="1.1" viewBox="0 0 751.1 683.4">
  <!-- Generator: Adobe Illustrator 29.1.0, SVG Export Plug-In . SVG Version: 2.1.0 Build 142)  -->
  <defs>
    <style>
      .st0 {
        fill: #fcc5a0;
      }

      .st1 {
        fill: #cacaca;
      }

      .st2 {
        fill: #2f2e41;
      }

      .st3 {
        fill: #fff;
      }

      .st4 {
        fill: #ffb6b6;
      }

      .st5 {
        fill: #9e616a;
      }

      .st6 {
        fill: #3f3d56;
      }

      .st7 {
        fill: #a0616a;
      }

      .st8 {
        fill: #ccc;
      }

      .st9 {
        fill: #e4e4e4;
      }

      .st10 {
        fill: #6c63ff;
      }
    </style>
  </defs>
  <path class="st9" d="M650.1,579.1H99.1v-93.5h8.5v-69.6c0-34.2,27.7-61.8,61.9-61.9h411.3c34.2,0,61.8,27.7,61.9,61.9v69.6h7.5v93.5Z"/>
  <path class="st1" d="M665.1,682h-27.4v-.5c0-50.5-41-91.4-91.5-91.5H203.1c-50.5,0-91.4,41-91.5,91.5v.5h-27.4c-13,0-23.6-10.6-23.6-23.6v-152.9c-8-4.5-14.4-28.9-10.2-48.5,2.6-12.2,10.3-27,31.6-28,20.8-.9,36.2,18.6,37.5,37.4.7,9.9-2.2,19.7-8.1,27.5h.3v21.8c45-14.4,90.1-21.8,134-21.8,44.9,0,89.5,7.5,132,22,88.4-28.6,175.9-29.1,260-1.6v-20.3h.3c-6-7.9-8.9-17.7-8.1-27.5,1.5-20.6,18.3-37.3,37.5-37.4h0c22.6,0,30.6,13.6,33.3,25,4.8,20.2-4,46.8-12,51.4v152.9c0,13-10.6,23.6-23.6,23.6Z"/>
  <polygon class="st4" points="511.8 641.1 525.1 650.6 567.8 604 548.3 590 511.8 641.1"/>
  <path class="st2" d="M511.5,634.4l3.7,2.7,18.8,4.5,3.6,11.5h0c9.2,6.6,11.3,19.3,4.7,28.5l-.4.5-42.7-30.5,12.3-17.2Z"/>
  <path class="st2" d="M601.5,516.4h-97.2c-18.9,0-34.2-15.3-34.2-34.2,0-18.9,15.3-34.2,34.2-34.2h97.2c18.9,0,34.2,15.3,34.2,34.2,0,18.9-15.3,34.2-34.2,34.2Z"/>
  <path class="st10" d="M553.9,277.7l15.7,11.9,18.9,5.8s7.8,110,14.9,117,.7,7.2,2.1,16.4,4.9,27.9,4.9,27.9c-47.6,25.2-88.5,25.8-121.5-3.6-.9-3.8,1-7.6,4.5-9.3,6.1-3.3-5.6-18.4-.6-21s-2-24.6-2-24.6l4.6-45.9-3.7-7.3,8.9-44.9,15.5-5.6,6.2-14.9,31.7-2Z"/>
  <path class="st0" d="M563.7,175c-.3,7.5,5.6,13.8,13.1,14.1.8,0,1.6,0,2.4-.1l22.1,43,12.3-21.9-22.9-37.4c-1.6-7.4-8.8-12.1-16.2-10.6-6.2,1.3-10.7,6.7-10.8,13h0Z"/>
  <path class="st10" d="M600.9,185.5l47.4,73.5-.2.3c-.2.4-10.9,23.6-21.3,44.8-1.6,3.3-3.2,6.5-4.7,9.6-.7,1.3-1.3,2.6-2,3.9-4.4,8.6-8.2,15.7-10.5,19.1-5,7.6-12.5,13.3-21.3,16.1h-.2c0,0-.2,0-.2,0-8.8-3.7-13.8-13-12.1-22.4,4.1-22,13.3-42.7,26.8-60.5l7.7-10.1-26.7-58.1,17.3-16.2Z"/>
  <path class="st0" d="M519,166c.3,7.5-5.6,13.8-13.1,14.1-.8,0-1.6,0-2.4-.1l-22.1,43-12.3-21.9,22.9-37.4c1.6-7.4,8.8-12.1,16.2-10.6,6.2,1.3,10.7,6.7,10.8,13h0Z"/>
  <path class="st10" d="M481.8,176.5l-47.4,73.5.2.3c.2.4,10.9,23.6,21.3,44.8,1.6,3.3,3.2,6.5,4.7,9.6.7,1.3,1.3,2.6,2,3.9,4.4,8.6,8.2,15.7,10.5,19.1,5,7.6,12.5,13.3,21.3,16.1h.2c0,0,.2,0,.2,0,8.8-3.7,13.8-13,12.1-22.4-4.1-22-13.3-42.7-26.8-60.5l-7.7-10.1,26.7-58.1-17.3-16.2Z"/>
  <circle class="st0" cx="537.8" cy="240" r="31"/>
  <path class="st2" d="M512.5,213.4c2.6-7.4,15.2-12.6,35.8-13.3,20.6-.7,25.8,23.5,25.8,23.5,13.7,11.1-14.7,41-16,39.9l.6-5.6c1-9.3,5.4-16.5-.2-26.2h-5.3c0,0-10.1,2-10.1,2-1.6.3-3.1-.7-3.4-2.3-.2-1,.2-2.1.9-2.7h0c0,0-.2-.4-.2-.4-3.5,1.6-7.2,3.1-11.1,3.4-4.4.3-9.1-1.5-11.2-5.3-.6-1.1-.9-2.2-1-3.4-5.9,2.4-8.6,9.6-8.6,9.6,0,0,1.3-11.7,3.8-19.1Z"/>
  <polygon class="st4" points="596.3 627.9 583.9 638.4 537.4 595.5 555.7 580 596.3 627.9"/>
  <path class="st2" d="M609.7,637.3l-40,33.9-.4-.5c-7.3-8.6-6.2-21.5,2.4-28.8h0s2.6-11.7,2.6-11.7l18.3-6,3.5-3,13.6,16.1Z"/>
  <path class="st2" d="M519.6,509.3l10.3-22.3c-.1-20.3-17.1-36.8-37.4-35.5-11.3.7-21.9,7-26.2,25.8-11.2,48.2,98.9,148.6,98.9,148.6l20.2-12.5.9-13.2-11.3-7v-11.3s-10.8-5.1-10.8-5.1l-44.6-67.5Z"/>
  <path class="st2" d="M587,503.2l-12.7-18.7c-1.6-20.2,14-38.1,34.3-38.5,11.3-.2,22.4,5.2,28.2,23.5,15.2,47.1-86.4,156.2-86.4,156.2l-21.2-10.8-2-13.1,10.7-7.9-.9-11.2,10.4-6,39.5-73.6Z"/>
  <polygon class="st7" points="331.6 666.2 316.4 666.2 309.2 607.7 331.6 607.7 331.6 666.2"/>
  <path class="st2" d="M332.1,682h-46.7v-.6c0-10,8.1-18.2,18.2-18.2h0l8.5-6.5,15.9,6.5h4.1s0,18.8,0,18.8Z"/>
  <polygon class="st7" points="439 666.2 454.1 666.2 461.4 607.7 439 607.7 439 666.2"/>
  <path class="st2" d="M438.4,682h46.7v-.6c0-10-8.1-18.2-18.2-18.2h0l-8.5-6.5-15.9,6.5h-4.1s0,18.8,0,18.8Z"/>
  <path class="st2" d="M308.6,564.7c.2-3.3,2-21.8,2-21.8l4.3-39.2,7.5-103.8.5-6.8,39.4-7.6,26.9-12.9,32,10.2,24.9,9.3s0,4,.2,8.8c.3,6.3.7,14.1,1.8,16.1,1.8,3.6,1.3,22.7,1.3,22.7,0,0,1.8,38.9,4,43.2s2.7,13.2,2,14.9,2.2,48.5,2.2,48.5c0,0,7.4,82.7,2.8,95.2s-22.3,4.3-22.3,4.3c0,0,.9-3.3-4.3-4.9s-20.7-118.9-20.7-118.9c0,0-2.9-24-5.6-30.9s-5.1-26.3-5.1-26.3c0,0-16.5-32.1-16.7-39.2,0,0-2.2-6.7-4.2.7s-8,24.9-8,24.9l-5.9,21.6-6.9,32.3-4.5,27.2s-6.7,36.1-7.7,37.6,0,34.5,0,34.5c0,0-5.2,28-12.5,32.9s-26.6,0-26.6,0c0,0-1.1-69.6-.9-72.9Z"/>
  <polygon class="st2" points="325.4 284.8 334.1 307.7 323.3 318.9 328.1 323.1 324.6 329.2 315.4 392.2 365.6 408.8 382.5 390.4 395.8 408.8 453.9 396.5 439.1 316 439.1 310.8 434.9 300.6 434.9 279.1 454.1 215.1 413 205.1 397.2 194.2 392.1 209.5 370.4 206.1 369.9 194.7 353.2 208.3 331.1 211.8 314.3 215.1 312.2 219.7 316.5 218.8 323.9 279.1 325.4 284.8"/>
  <path class="st6" d="M359.1,222.8l10.7-28.1,27.4-.5,9.1,28.6,32.7,182.4s-100,27.9-99-5.6c1.1-35.2,5.9-82,5.9-82l13.3-94.8Z"/>
  <circle class="st0" cx="382.9" cy="154.6" r="32.3"/>
  <path class="st2" d="M348.8,131.2c5.3-5.7,11.8-16.2,31.7-20.6,24.6-5.4,36.2,16.8,30,17.1,18.1,5.5,6.5,43,1.3,39.9,0,0,0,0-.1-.1-5.6-4.2-9.3-10.5-10.2-17.4l-1-8.9c-.1,7.2-7.5,8.2-15.1,5.5.9-3.2,3.4-5.7,6.7-6.6-4.6,4.3-10.6,7.3-19,8.3,1-4,3.1-6.9,6.3-8.7l-.3-.3c-3.1,2.3-6.3,4.6-10,5.6-4.2,1.2-9.1.5-12-2.7-.8-.9-1.3-1.9-1.7-3.1.6,5.7-3.2,12.2-6.2,11.1-2.5-.5-3.9-15.5-.4-19.3Z"/>
  <path class="st0" d="M422.7,152.8l29.3,49.3,21.7-10.2s-37.4-46.7-38.5-48c1.4-6.2-2.5-12.3-8.7-13.7s-12.3,2.5-13.7,8.7,2.5,12.3,8.7,13.7c.4,0,.8.2,1.3.2h0Z"/>
  <path class="st2" d="M436.9,275.5l45.5-32.8c11.8-8.5,14.5-24.9,6-36.7-.5-.7-1-1.3-1.5-1.9l-32.8-37.6-14.3,19.3,11,23-21.3,5.6,7.4,61Z"/>
  <path class="st0" d="M358.8,157.5l-29.3,49.3-21.7-10.2s37.4-46.7,38.5-48c-1.4-6.2,2.5-12.3,8.7-13.7,6.2-1.4,12.3,2.5,13.7,8.7,1.4,6.2-2.5,12.3-8.7,13.7-.4,0-.8.2-1.3.2Z"/>
  <path class="st2" d="M344.6,280.1l-45.5-32.8c-11.8-8.5-14.5-24.9-6-36.7.5-.7,1-1.3,1.5-1.9l32.8-37.6,14.3,19.3-11,23,21.3,5.6-7.4,61Z"/>
  <path class="st0" d="M30.1,176c2.6,3.9,8,4.9,11.9,2.3.4-.3.8-.6,1.2-1l27.1,13.6-1.8-15.7-25.5-10.5c-3.5-3.2-9-2.9-12.1.6-2.7,2.9-2.9,7.3-.7,10.6h0Z"/>
  <path class="st10" d="M142.3,239.3l-13.5-9.3s-15.5-1-17.8-6-2.7-3.3-5.2-3.9-3.8-8-7.9-7.1c-9.3,2-53.3-27.1-48.6-30.7l3.5-14.9c3.7,1.4,7.6,2.3,11.6,2.7,6,.5,20.1,7.4,22.2,9.6s5.8,1.4,10.7,2.5,6.7,9.1,14.9,7c11.6-3,71.5,25.4,78,28.1,7.1,2.9,12.1,11.6,12.1,11.6l-2,8.3-58.1,1.9Z"/>
  <polygon class="st5" points="239.7 661.6 251.4 661.6 257 616.3 239.7 616.3 239.7 661.6"/>
  <path class="st2" d="M235.8,653.6l18.8-1.1v8.1l17.9,12.3c2.3,1.6,2.9,4.7,1.3,7-.9,1.4-2.5,2.2-4.1,2.2h-22.4l-3.9-8-1.5,8h-8.4l2.4-28.4Z"/>
  <polygon class="st5" points="92.2 651.6 103.1 656 125.1 615.9 109 609.5 92.2 651.6"/>
  <path class="st2" d="M91.6,642.7l17.9,5.9-3,7.5,12,18.1c1.5,2.3.9,5.4-1.4,7-1.4.9-3.1,1.1-4.6.5l-20.8-8.3-.6-8.8-4.3,6.8-7.8-3.1,12.7-25.6Z"/>
  <path class="st2" d="M216,526.6l-19.6-91.6-30.6,101.7-48.5,96.5-.3.5-15.4-8.3c-2.2-39.2,3-75.9,21.8-108l8.9-88.1c.3-3,6.9-73.7,28-86.2l6.2-14.1,61.4-15.2.2.3c5.9,6.6,9.8,14.8,11.2,23.6l18.3,111.1h0c0,0-4.9,77.6-4.9,77.6l6.7,114.3h-24.3c-15.1-28.3-21.4-66.4-19.2-114.2Z"/>
  <path class="st0" d="M268.8,142.6c3.5,3.1,3.9,8.5.7,12.1-.3.4-.7.7-1.1,1l10,28.6-15.3-3.8-7.2-26.6c-2.7-3.9-1.7-9.2,2.2-11.9,3.3-2.3,7.6-2,10.6.7h0Z"/>
  <path class="st10" d="M148.4,358.9c-1.7,0-2.6-.3-3-1-.5-1,.4-2.4,1.5-3.9.7-1.1,2.9-3.2,1.9-3.3-16.3-2-8.5-102.4-1.4-115.6,1.4-2.7,0-6.8,1.5-11.4,4.4-12.5,10.4-16.3,22.4-24,1-.6,2-1.3,3-1.9,1.4-.9,1.3-3.8,1.2-6.9,0-3.4-.2-7,1.5-9.2h.1c0-.1.2-.2.2-.2,4.1-.9,17.7-2.7,25.7,0h.1s0,.1,0,.1c1.9,1.9,2.1,5.6,2.3,9.2.1,2.9.3,5.7,1.4,6.9,8.3,9.2,17.7,9.1,17.8,9.1h.5s0,.4,0,.4c5.8,11.1,1.3,52.1,5.3,77.7,4.1,25.9,39.2,48,9.1,51.9.1.2.1.5,0,.7-1.8,3.4-85,21.4-91.3,21.4Z"/>
  <path class="st10" d="M284.1,232.5l-16.7,8.3c-32.1,12.3-48.9,9.3-57.3,4.6-9-5-10.6-12.7-10.6-13v-.2s2-16.3,2-16.3c1-8.1,8.4-13.8,16.4-12.7.6,0,1.2.2,1.8.3l38.3,9.8-.7-18.6,1.5-6.7-2.8-8.1,1.1-16.4,13.7-3.4,14.4,25.8-2.6,7.1,2.4,3.5v.2s-1.2,35.7-1.2,35.7Z"/>
  <path class="st1" d="M749.9,683.1l-748.8.3c-.7,0-1.2-.5-1.2-1.2,0-.7.5-1.2,1.2-1.2l748.8-.3c.7,0,1.2.5,1.2,1.2,0,.7-.5,1.2-1.2,1.2Z"/>
  <path class="st8" d="M517.5,106c9.2-19.6,1.8-42.5-11.6-48.7s-35.7,2.6-44.9,22.2c-8.5,18.1-2.2,39.4,8.8,47.1-.2,0-.4.1-.5.3l-2.6,2.2c-.6.5-.7,1.5-.2,2.1.2.2.3.3.6.4l6.6,2.9c.8.3,1.7,0,2-.8,0-.2.1-.5.1-.7l-.2-3.4c0-.1,0-.2,0-.3,12.9,3.6,33.4-5.1,41.9-23.3Z"/>
  <path class="st3" d="M509.9,77.9c4.3,12.6-1.9,26.4-14.3,31.4-1.4.6-.3,2.6,1.1,2,13.2-5.5,20-20.3,15.5-33.9-.5-1.4-2.7-.9-2.2.5Z"/>
  <path class="st10" d="M679.1,171.6c18.6-11,25.4-34.1,17.9-46.8s-31-17.9-49.6-6.9c-17.3,10.2-24,31.3-19.3,43.9-.2,0-.4,0-.6,0l-3.4.3c-.8,0-1.5.8-1.4,1.7,0,.2,0,.5.2.7l3.8,6.2c.4.7,1.4.9,2.1.5.2-.1.4-.3.5-.5l1.8-2.9c0-.1.1-.2.1-.3,8.7,10.2,30.5,14.6,47.8,4.4Z"/>
  <path class="st3" d="M688.7,144.1c-3.5,12.9-16.5,20.7-29.5,17.9-1.4-.3-1.7,2-.2,2.3,14,2.9,27.9-5.5,31.9-19.3.4-1.4-1.7-2.3-2.1-.8Z"/>
  <path class="st8" d="M560.5,81.6c-4.8-10.5-4.2-22.6,1.5-32.6.8-1.4,1.6-3.1,3.4-3.3,1.4-.2,2.7.5,3.3,1.8.6,2.1-.6,4.2-2.7,4.8-1.3.4-2.8,0-3.8-.9-3.3-2.7-2.9-7.4-2.6-11.2.7-8.6.7-17.7-3-25.8-3.4-7.4-10.4-13.7-18.7-14.4-1.5-.1-1.6,2.2,0,2.3,8.3.7,14.8,7.5,17.6,15,1.6,4.5,2.3,9.3,2.3,14.1,0,2.5,0,4.9-.3,7.4-.3,2.4-.4,4.8-.2,7.2.4,3.9,2.8,8.1,7,8.7,3.9.6,7.8-3.5,6.7-7.5-.9-2.8-3.9-4.4-6.7-3.6-.7.2-1.3.6-1.9,1-1.5,1.2-2.4,3.4-3.3,5.1-5.2,10.4-5.4,22.5-.5,33,.6,1.3,2.6.3,2-1.1h0Z"/>
  <path class="st6" d="M215.8,188.1c-.9-1.6-2.3-6.1-4-6-1.7,0-3.4,0-5.1-.4-.2,0-.4,0-.5-.1-7-1.8-14.2-2.7-21.4-2.8-5.8,0-12.2.6-16.3,4.8-4.1,4.2-3.5,12.8,2.1,14.4-18.7,3.2-38-1-53.6-11.9-9.9-7-17.9-16.3-26.3-25.1-8.4-8.8-17.7-17.2-29-21.4-11.4-4.3-25.2-3.7-34.4,4.3-11.2,9.7-12,26.5-12,41.3,0,5.5,1.7,4.4,6.6,7,4.5,2.4,9.3,7.4,12.1,3.1,2.8-4.3,3.3-9.7,3.8-14.8.6-5.1,1.4-10.5,4.6-14.5,5.6-6.9,16.5-6.9,24.2-2.6s12.9,12,17.8,19.3c4.9,7.4,10,15,17.7,19.4,10.1,5.8,22.8,4.9,33.3,9.8,6.7,3.1,12.1,8.4,17.6,13.2,5.6,4.9,11.6,9.5,18.9,11.1,7.2,1.6,15.8-.8,19.3-7.3,3.2-5.9,1.6-13.3,4.5-19.4,2.2-4.7,6.7-7.8,10.7-11,1.7-1.3,2.1,3.2,3.5,1.6,4.1-.8,7.9-8.5,6-12Z"/>
  <circle class="st2" cx="187.8" cy="148.2" r="31.6"/>
  <circle class="st0" cx="189.7" cy="159.7" r="22.7"/>
  <path class="st2" d="M189.9,125.1l-9.2.3c-12.1.4-21.6,10.4-21.3,22.5v.2s.2.1.2.1c5,3.3,10.9,5,16.9,4.8h.5s5.1-.2,5.1-.2c.9-2.2,1.1-4.6.8-6.9.8,2.2,1.4,4.5,1.8,6.8l22.8-1c2.8-.1,4.9-2.5,4.8-5.2-.4-12.1-10.4-21.6-22.5-21.3Z"/>
  <path class="st2" d="M171.6,119.4c-2.1,2.6-5.4,3.6-8.4,5-10.7,5.1-18.3,15.1-20.1,26.9-.7,4.7-.5,9.5-1.7,14.1-1.2,4.6-4.3,9.2-9,10.1-3.2.6-6.4-.5-9.4-1.6-1.7-.6-3.3-1.2-5-1.8,1.6-4.3,3.2-8.7,4.8-13-2.6,4.1-5.7,7.9-9.2,11.4-5.9-2.2-11.9-4.4-17.8-6.6,14.5-.4,11.6-14.3,14.4-28.5,1.6-7.8,16.6-13.5,19.3-20.9,4.3-11.7,17.3-17.7,29-13.3,5,1.9,9.2,5.5,11.9,10.1,3,1.1,3.2,5.7,1.2,8.3Z"/>
  <circle class="st2" cx="173" cy="117" r="11.8"/>
</svg>