<?xml version="1.0" encoding="UTF-8"?>
<svg id="Layer_1" xmlns="http://www.w3.org/2000/svg" version="1.1" viewBox="0 0 880.2 576.3">
  <!-- Generator: Adobe Illustrator 29.1.0, SVG Export Plug-In . SVG Version: 2.1.0 Build 142)  -->
  <defs>
    <style>
      .st0 {
        fill: #fd6584;
      }

      .st1 {
        fill: #fcc5a0;
      }

      .st2 {
        fill: #2f2e41;
      }

      .st3 {
        fill: #3f3d56;
      }

      .st4 {
        fill: #f2f2f2;
      }

      .st5 {
        isolation: isolate;
        opacity: .2;
      }

      .st6 {
        fill: #6c63ff;
      }

      .st7 {
        fill: #e6e6e6;
      }
    </style>
  </defs>
  <circle class="st0" cx="435.6" cy="71.3" r="26.7"/>
  <path class="st7" d="M495.3,58.6c-1.5-5-5.9-8.7-11.2-9.3,0,0-.1,0-.2,0,0,0-.1,0-.2,0-8.9-1.2-18.9,1.7-25.6,7.8-2.5,2.2-4.5,5-5.8,8-2.5-3.4-6.6-5.4-10.8-5.3-5.5.4-10.3,4.2-11.8,9.5-.2.7.1,1.3.7,1.7.8.7,1.8,1.2,2.8,1.4,2.2.5,4.4.9,6.7,1.3,4.4.8,8.7,1.4,13.2,1.9,2.9.3,5.8.6,8.8.7,6,.4,12.1.5,18.2.3,3-.1,5.9-.2,8.6-1.5,2-1,3.7-2.5,5-4.3,2.4-3.6,3-8,1.8-12.2Z"/>
  <path class="st7" d="M440.4,97.5c0-1.1-.2-2.2-.6-3.3-1.5-5-5.9-8.7-11.2-9.3,0,0-.1,0-.2,0,0,0-.2,0-.2,0-4.9-.6-10,0-14.7,1.5-7.3,2.4-13.6,7.3-16.7,14.3-2.5-3.4-6.6-5.4-10.8-5.3-5.5.4-10.3,4.2-11.8,9.5-.2.7.1,1.3.7,1.7.8.7,1.8,1.2,2.8,1.4,2.2.5,4.4.9,6.7,1.3,4.4.8,8.7,1.4,13.1,1.9,8.9,1,17.9,1.3,26.9,1,3-.1,5.9-.2,8.6-1.5,2-1,3.7-2.5,4.9-4.3,1.8-2.6,2.6-5.7,2.4-8.9Z"/>
  <path class="st4" d="M788.1,421.5c.4,18.2-2.1,36.4-7.4,53.8-.2.6-.4,1.3-.6,1.9h-109.6c1.6-7.7,4.1-15.2,7.4-22.3,9.1-19.4,24-35.9,38.7-52.4,20.2-22.7,40-45.1,43.1-74.6,8,12.2,14.4,25.5,19.1,39.3-5.7,2.1-10.9,5.3-15.3,9.4-1.2,1.2-2.5,2.8-1.9,4.4.6,1.3,2.2,1.8,3.7,2.1,3.5.7,7,1.3,10.5,2,2.8.6,5.5,1.1,8.3,1.6,2.5,11.5,3.8,23.1,4,34.8Z"/>
  <path class="st4" d="M880.2,409.5c-17.6,10.7-28.7,27.2-37.8,45.7-7.9,1.8-15.3,5.7-21.2,11.2-1.3,1.2-2.6,2.8-1.9,4.4.6,1.3,2.2,1.8,3.7,2.1,3.5.7,7,1.3,10.5,2-.3.8-.7,1.6-1,2.4h-116.1c5.3-7.1,11.1-13.8,17.5-19.9,1.4-1.4,2.8-2.7,4.2-4,14.8-13.4,31.8-24.1,50.2-31.7,29.1-12.1,60.8-16.3,92-12.1Z"/>
  <path class="st4" d="M735.6,477.2h-103.4c-.6-8.3-.5-16.6.1-24.9,4.1-51.1,31.9-99.8,73.9-129.2-5.4,19.1-2.6,38.1,3,57.1-.8.3-1.6.5-2.3.8-5.7,2.1-10.9,5.3-15.3,9.4-1.2,1.2-2.5,2.8-1.9,4.4.6,1.3,2.2,1.8,3.7,2.1,3.5.7,7,1.3,10.5,2,2.8.6,5.6,1.1,8.4,1.6,1.3.2,2.6.5,3.9.7.2.4.3.9.5,1.3,6.5,18,13.7,36.2,17,54.7.8,4.6,1.4,9.3,1.7,14,.1,2,.2,3.9.2,5.9Z"/>
  <path class="st4" d="M172.1,421.5c.4,18.2-2.1,36.4-7.4,53.8-.2.6-.4,1.3-.6,1.9H54.5c1.6-7.7,4.1-15.2,7.4-22.3,9.1-19.4,24-35.9,38.7-52.4,20.2-22.7,40-45.1,43.1-74.6,8,12.2,14.4,25.5,19.1,39.3-5.7,2.1-10.9,5.3-15.3,9.4-1.2,1.2-2.5,2.8-1.9,4.4.6,1.3,2.2,1.8,3.7,2.1,3.5.7,7,1.3,10.5,2,2.8.6,5.5,1.1,8.3,1.6,2.5,11.5,3.8,23.1,4,34.8Z"/>
  <path class="st4" d="M264.2,409.5c-17.6,10.7-28.7,27.2-37.8,45.7-7.9,1.8-15.3,5.7-21.2,11.2-1.3,1.2-2.6,2.8-1.9,4.4.6,1.3,2.2,1.8,3.7,2.1,3.5.7,7,1.3,10.5,2-.3.8-.7,1.6-1,2.4h-116.1c5.3-7.1,11.1-13.8,17.5-19.9,1.4-1.4,2.8-2.7,4.2-4,14.8-13.4,31.8-24.1,50.2-31.7,29.1-12.1,60.8-16.3,92-12.1Z"/>
  <path class="st4" d="M119.6,477.2H16.2c-.6-8.3-.5-16.6.1-24.9,4.1-51.1,31.9-99.8,73.9-129.2-5.4,19.1-2.6,38.1,3,57.1-.8.3-1.6.5-2.3.8-5.7,2.1-10.9,5.3-15.3,9.4-1.2,1.2-2.5,2.8-1.9,4.4.6,1.3,2.2,1.8,3.7,2.1,3.5.7,7,1.3,10.5,2,2.8.6,5.6,1.1,8.4,1.6,1.3.2,2.6.5,3.9.7.2.4.3.9.5,1.3,6.5,18,13.7,36.2,17,54.7.8,4.6,1.4,9.3,1.7,14,.1,2,.2,3.9.2,5.9Z"/>
  <path class="st7" d="M504.4,433.8l92.4,8.2h1c0,0,0-394,0-394-.3-.2-.7-.5-1-.7-19.3-13.5-40.1-24.5-62-32.9l-4.7,65.1-.4,6-4.7,64.6-1.4,19.9-18.9,261.7-.2,2.3Z"/>
  <path class="st7" d="M276,40.6c-.7.4-1.3.8-2,1.3v400.2l2-.2,91.4-8.1-.2-2.3-18.9-261.7-1.4-19.9-4.7-64.6-.4-6-5-68.3c-21.3,7.4-41.7,17.3-60.8,29.5Z"/>
  <path class="st7" d="M274,41.9c-1.3.9-2.7,1.7-4,2.6v403c0,10.1,6,18.5,14,20.7,1.3.4,2.6.5,4,.5h296.8c1.3,0,2.7-.2,4-.5,3-.8,5.7-2.4,7.8-4.7,4.1-4.3,6.3-10.1,6.2-16V51.5c-1.6-1.2-3.3-2.4-5-3.6-.3-.2-.7-.5-1-.7v400.3c0,1.3-.2,2.6-.5,3.8-1.4,6-6.1,10.3-11.5,10.3h-296.8c-6.6,0-12-6.3-12-14.2V40.6c-.7.4-1.3.8-2,1.3Z"/>
  <rect class="st7" x="273" y="79.4" width="326.8" height="6"/>
  <path class="st7" d="M499.7,3.4c-2-.5-4-.9-6-1.4v161.8h6V3.4Z"/>
  <path class="st7" d="M379,0c-2,.4-4,.8-6,1.2v162.7h6V0Z"/>
  <path class="st7" d="M208.9,458.3c0,3.4.7,6.8,1.9,10,.5,1.2,1.1,2.4,1.8,3.6.9,1.5,1.9,2.9,3,4.2,5.1,5.8,12.4,9.1,20.1,9.1h391.3c14.8,0,26.8-12,26.8-26.8s-12-26.8-26.8-26.8H235.8c-14.8,0-26.8,12-26.8,26.8Z"/>
  <rect class="st7" x="273" y="149.9" width="324.8" height="19.9"/>
  <path class="st7" d="M449.3,154.9h-27.8c0-6,4.9-10.9,10.9-10.9h6c6,0,10.9,4.9,10.9,10.9h0s0,0,0,0Z"/>
  <path class="st3" d="M0,473.6c8.7,10.3,18.1,20,28.1,29h806.6c10-9,19.4-18.7,28.1-29H0Z"/>
  <path class="st2" d="M396.7,376.8v102.6h71.8v-102.6c0-1.5-1-2.9-2.4-3.3-.3-.1-.7-.2-1-.2h-64.9c-1.9,0-3.5,1.5-3.5,3.5h0ZM424.7,412c0-4.2,3.5-7.6,7.7-7.6,4.2,0,7.6,3.4,7.6,7.6v11.9c0,4.2-3.5,7.7-7.7,7.6-4.2,0-7.6-3.4-7.6-7.6v-11.9Z"/>
  <path class="st3" d="M396.5,476.1v9.9c0,1.1.9,1.9,1.9,1.9h68.4c1.1,0,1.9-.9,1.9-1.9v-9.9h-72.3Z"/>
  <path class="st3" d="M283.7,222.3v187.3c0,5,4,9,9,9h277.5c5,0,9-4,9-9v-187.3c0-5-4-9-9-9h-277.5c-5,0-9,4-9,9Z"/>
  <path class="st6" d="M290.2,224.6v182.6c0,2.7,2.2,4.8,4.8,4.8h272.9c2.7,0,4.8-2.2,4.8-4.8v-182.6c0-2.7-2.2-4.8-4.8-4.8h-272.9c-2.7,0-4.8,2.2-4.8,4.8Z"/>
  <path class="st2" d="M345.8,490.2c.6.7,1.4,1.1,2.3,1.1h162.3c1.6,0,3-1.3,3-3,0-.2,0-.4,0-.6l-2.5-12c-.2-1-.9-1.8-1.9-2.2-.3-.1-.7-.2-1.1-.2h-157.3c-.4,0-.7,0-1.1.2-.9.4-1.6,1.2-1.9,2.2l-2.5,12c-.2.9,0,1.8.6,2.5Z"/>
  <rect class="st3" x="501.8" y="475.6" width="5" height="3" rx=".5" ry=".5"/>
  <rect class="st3" x="491.8" y="475.6" width="5" height="3" rx=".5" ry=".5"/>
  <rect class="st3" x="481.8" y="475.6" width="5" height="3" rx=".5" ry=".5"/>
  <rect class="st3" x="471.8" y="475.6" width="5" height="3" rx=".5" ry=".5"/>
  <rect class="st3" x="461.8" y="475.6" width="5" height="3" rx=".5" ry=".5"/>
  <rect class="st3" x="451.8" y="475.6" width="5" height="3" rx=".5" ry=".5"/>
  <rect class="st3" x="441.8" y="475.6" width="5" height="3" rx=".5" ry=".5"/>
  <rect class="st3" x="431.8" y="475.6" width="5" height="3" rx=".5" ry=".5"/>
  <rect class="st3" x="421.8" y="475.6" width="5" height="3" rx=".5" ry=".5"/>
  <rect class="st3" x="411.8" y="475.6" width="5" height="3" rx=".5" ry=".5"/>
  <rect class="st3" x="401.8" y="475.6" width="5" height="3" rx=".5" ry=".5"/>
  <rect class="st3" x="391.8" y="475.6" width="5" height="3" rx=".5" ry=".5"/>
  <rect class="st3" x="381.8" y="475.6" width="5" height="3" rx=".5" ry=".5"/>
  <rect class="st3" x="371.8" y="475.6" width="5" height="3" rx=".5" ry=".5"/>
  <rect class="st3" x="361.8" y="475.6" width="5" height="3" rx=".5" ry=".5"/>
  <rect class="st3" x="351.8" y="475.6" width="5" height="3" rx=".5" ry=".5"/>
  <rect class="st3" x="501.9" y="480.6" width="5" height="3" rx=".5" ry=".5"/>
  <rect class="st3" x="491.9" y="480.6" width="5" height="3" rx=".5" ry=".5"/>
  <rect class="st3" x="481.9" y="480.6" width="5" height="3" rx=".5" ry=".5"/>
  <rect class="st3" x="471.9" y="480.6" width="5" height="3" rx=".5" ry=".5"/>
  <rect class="st3" x="461.9" y="480.6" width="5" height="3" rx=".5" ry=".5"/>
  <rect class="st3" x="451.9" y="480.6" width="5" height="3" rx=".5" ry=".5"/>
  <rect class="st3" x="441.9" y="480.6" width="5" height="3" rx=".5" ry=".5"/>
  <rect class="st3" x="431.9" y="480.6" width="5" height="3" rx=".5" ry=".5"/>
  <rect class="st3" x="421.9" y="480.6" width="5" height="3" rx=".5" ry=".5"/>
  <rect class="st3" x="411.9" y="480.6" width="5" height="3" rx=".5" ry=".5"/>
  <rect class="st3" x="401.9" y="480.6" width="5" height="3" rx=".5" ry=".5"/>
  <rect class="st3" x="391.9" y="480.6" width="5" height="3" rx=".5" ry=".5"/>
  <rect class="st3" x="381.9" y="480.6" width="5" height="3" rx=".5" ry=".5"/>
  <rect class="st3" x="371.9" y="480.6" width="5" height="3" rx=".5" ry=".5"/>
  <rect class="st3" x="361.9" y="480.6" width="5" height="3" rx=".5" ry=".5"/>
  <rect class="st3" x="351.9" y="480.6" width="5" height="3" rx=".5" ry=".5"/>
  <rect class="st3" x="418.9" y="486.6" width="40" height="3" rx=".5" ry=".5"/>
  <path class="st3" d="M308.7,244.9h255.3c.6,0,1-.5,1-1,0-.5-.4-1-1-1h-255.3c-.6,0-1,.5-1,1,0,.5.4,1,1,1Z"/>
  <ellipse class="st3" cx="546.6" cy="231.6" rx="6" ry="6.1"/>
  <ellipse class="st3" cx="526.1" cy="231.6" rx="6" ry="6.1"/>
  <ellipse class="st3" cx="505.5" cy="231.6" rx="6" ry="6.1"/>
  <path class="st3" d="M320,228.2c0,.6.5,1.1,1.1,1.1h14.6c.6,0,1.1-.5,1.1-1.1,0-.6-.5-1.1-1.1-1.1h-14.6c-.6,0-1.1.5-1.1,1.1Z"/>
  <path class="st3" d="M320,232.3c0,.6.5,1.1,1.1,1.1h14.6c.6,0,1.1-.5,1.1-1.1,0-.6-.5-1.1-1.1-1.1h-14.6c-.6,0-1.1.5-1.1,1.1Z"/>
  <path class="st3" d="M320,236.5c0,.6.5,1.1,1.1,1.1h14.6c.6,0,1.1-.5,1.1-1.1,0-.6-.5-1.1-1.1-1.1h-14.6c-.6,0-1.1.5-1.1,1.1h0Z"/>
  <path class="st7" d="M319.2,268.5h5.2c1.6,0,2.9,1.3,2.9,2.9h0c0,1.6-1.3,2.9-2.9,2.9h-5.2c-1.6,0-2.9-1.3-2.9-2.9h0c0-1.6,1.3-2.9,2.9-2.9Z"/>
  <path class="st7" d="M379.2,268.5h5.2c1.6,0,2.9,1.3,2.9,2.9h0c0,1.6-1.3,2.9-2.9,2.9h-5.2c-1.6,0-2.9-1.3-2.9-2.9h0c0-1.6,1.3-2.9,2.9-2.9Z"/>
  <path class="st7" d="M396.2,268.5h5.2c1.6,0,2.9,1.3,2.9,2.9h0c0,1.6-1.3,2.9-2.9,2.9h-5.2c-1.6,0-2.9-1.3-2.9-2.9h0c0-1.6,1.3-2.9,2.9-2.9Z"/>
  <path class="st7" d="M335.6,268.1h32.6c1.6,0,2.9,1.3,2.9,2.9h0c0,1.6-1.3,2.9-2.9,2.9h-32.6c-1.6,0-2.9-1.3-2.9-2.9h0c0-1.6,1.3-2.9,2.9-2.9Z"/>
  <path class="st7" d="M415.6,268.1h32.6c1.6,0,2.9,1.3,2.9,2.9h0c0,1.6-1.3,2.9-2.9,2.9h-32.6c-1.6,0-2.9-1.3-2.9-2.9h0c0-1.6,1.3-2.9,2.9-2.9Z"/>
  <path class="st7" d="M335.2,281.5h5.2c1.6,0,2.9,1.3,2.9,2.9h0c0,1.6-1.3,2.9-2.9,2.9h-5.2c-1.6,0-2.9-1.3-2.9-2.9h0c0-1.6,1.3-2.9,2.9-2.9Z"/>
  <path class="st7" d="M395.2,281.5h5.2c1.6,0,2.9,1.3,2.9,2.9h0c0,1.6-1.3,2.9-2.9,2.9h-5.2c-1.6,0-2.9-1.3-2.9-2.9h0c0-1.6,1.3-2.9,2.9-2.9Z"/>
  <path class="st7" d="M412.2,281.5h5.2c1.6,0,2.9,1.3,2.9,2.9h0c0,1.6-1.3,2.9-2.9,2.9h-5.2c-1.6,0-2.9-1.3-2.9-2.9h0c0-1.6,1.3-2.9,2.9-2.9Z"/>
  <path class="st7" d="M351.6,281.1h32.6c1.6,0,2.9,1.3,2.9,2.9h0c0,1.6-1.3,2.9-2.9,2.9h-32.6c-1.6,0-2.9-1.3-2.9-2.9h0c0-1.6,1.3-2.9,2.9-2.9Z"/>
  <path class="st7" d="M431.6,281.1h32.6c1.6,0,2.9,1.3,2.9,2.9h0c0,1.6-1.3,2.9-2.9,2.9h-32.6c-1.6,0-2.9-1.3-2.9-2.9h0c0-1.6,1.3-2.9,2.9-2.9Z"/>
  <path class="st7" d="M351.2,294.5h5.2c1.6,0,2.9,1.3,2.9,2.9h0c0,1.6-1.3,2.9-2.9,2.9h-5.2c-1.6,0-2.9-1.3-2.9-2.9h0c0-1.6,1.3-2.9,2.9-2.9Z"/>
  <path class="st7" d="M411.2,294.5h5.2c1.6,0,2.9,1.3,2.9,2.9h0c0,1.6-1.3,2.9-2.9,2.9h-5.2c-1.6,0-2.9-1.3-2.9-2.9h0c0-1.6,1.3-2.9,2.9-2.9Z"/>
  <path class="st7" d="M428.2,294.5h5.2c1.6,0,2.9,1.3,2.9,2.9h0c0,1.6-1.3,2.9-2.9,2.9h-5.2c-1.6,0-2.9-1.3-2.9-2.9h0c0-1.6,1.3-2.9,2.9-2.9Z"/>
  <path class="st7" d="M367.6,294.1h32.6c1.6,0,2.9,1.3,2.9,2.9h0c0,1.6-1.3,2.9-2.9,2.9h-32.6c-1.6,0-2.9-1.3-2.9-2.9h0c0-1.6,1.3-2.9,2.9-2.9Z"/>
  <path class="st7" d="M447.6,294.1h32.6c1.6,0,2.9,1.3,2.9,2.9h0c0,1.6-1.3,2.9-2.9,2.9h-32.6c-1.6,0-2.9-1.3-2.9-2.9h0c0-1.6,1.3-2.9,2.9-2.9Z"/>
  <path class="st7" d="M367.2,307.5h5.2c1.6,0,2.9,1.3,2.9,2.9h0c0,1.6-1.3,2.9-2.9,2.9h-5.2c-1.6,0-2.9-1.3-2.9-2.9h0c0-1.6,1.3-2.9,2.9-2.9Z"/>
  <path class="st7" d="M427.2,307.5h5.2c1.6,0,2.9,1.3,2.9,2.9h0c0,1.6-1.3,2.9-2.9,2.9h-5.2c-1.6,0-2.9-1.3-2.9-2.9h0c0-1.6,1.3-2.9,2.9-2.9Z"/>
  <path class="st7" d="M444.2,307.5h5.2c1.6,0,2.9,1.3,2.9,2.9h0c0,1.6-1.3,2.9-2.9,2.9h-5.2c-1.6,0-2.9-1.3-2.9-2.9h0c0-1.6,1.3-2.9,2.9-2.9Z"/>
  <path class="st7" d="M383.6,307.1h32.6c1.6,0,2.9,1.3,2.9,2.9h0c0,1.6-1.3,2.9-2.9,2.9h-32.6c-1.6,0-2.9-1.3-2.9-2.9h0c0-1.6,1.3-2.9,2.9-2.9Z"/>
  <path class="st7" d="M379.2,359.2h5.2c1.6,0,2.9,1.3,2.9,2.9h0c0,1.6-1.3,2.9-2.9,2.9h-5.2c-1.6,0-2.9-1.3-2.9-2.9h0c0-1.6,1.3-2.9,2.9-2.9Z"/>
  <path class="st7" d="M396.2,359.2h5.2c1.6,0,2.9,1.3,2.9,2.9h0c0,1.6-1.3,2.9-2.9,2.9h-5.2c-1.6,0-2.9-1.3-2.9-2.9h0c0-1.6,1.3-2.9,2.9-2.9Z"/>
  <path class="st7" d="M415.6,359.7h32.6c1.6,0,2.9,1.3,2.9,2.9h0c0,1.6-1.3,2.9-2.9,2.9h-32.6c-1.6,0-2.9-1.3-2.9-2.9h0c0-1.6,1.3-2.9,2.9-2.9Z"/>
  <path class="st7" d="M319.2,359.2h5.2c1.6,0,2.9,1.3,2.9,2.9h0c0,1.6-1.3,2.9-2.9,2.9h-5.2c-1.6,0-2.9-1.3-2.9-2.9h0c0-1.6,1.3-2.9,2.9-2.9Z"/>
  <path class="st7" d="M335.6,359.7h32.6c1.6,0,2.9,1.3,2.9,2.9h0c0,1.6-1.3,2.9-2.9,2.9h-32.6c-1.6,0-2.9-1.3-2.9-2.9h0c0-1.6,1.3-2.9,2.9-2.9Z"/>
  <path class="st7" d="M335.2,346.2h5.2c1.6,0,2.9,1.3,2.9,2.9h0c0,1.6-1.3,2.9-2.9,2.9h-5.2c-1.6,0-2.9-1.3-2.9-2.9h0c0-1.6,1.3-2.9,2.9-2.9Z"/>
  <path class="st7" d="M395.2,346.2h5.2c1.6,0,2.9,1.3,2.9,2.9h0c0,1.6-1.3,2.9-2.9,2.9h-5.2c-1.6,0-2.9-1.3-2.9-2.9h0c0-1.6,1.3-2.9,2.9-2.9Z"/>
  <path class="st7" d="M412.2,346.2h5.2c1.6,0,2.9,1.3,2.9,2.9h0c0,1.6-1.3,2.9-2.9,2.9h-5.2c-1.6,0-2.9-1.3-2.9-2.9h0c0-1.6,1.3-2.9,2.9-2.9Z"/>
  <path class="st7" d="M351.6,346.7h32.6c1.6,0,2.9,1.3,2.9,2.9h0c0,1.6-1.3,2.9-2.9,2.9h-32.6c-1.6,0-2.9-1.3-2.9-2.9h0c0-1.6,1.3-2.9,2.9-2.9Z"/>
  <path class="st7" d="M351.2,333.2h5.2c1.6,0,2.9,1.3,2.9,2.9h0c0,1.6-1.3,2.9-2.9,2.9h-5.2c-1.6,0-2.9-1.3-2.9-2.9h0c0-1.6,1.3-2.9,2.9-2.9Z"/>
  <path class="st7" d="M411.2,333.2h5.2c1.6,0,2.9,1.3,2.9,2.9h0c0,1.6-1.3,2.9-2.9,2.9h-5.2c-1.6,0-2.9-1.3-2.9-2.9h0c0-1.6,1.3-2.9,2.9-2.9Z"/>
  <path class="st7" d="M428.2,333.2h5.2c1.6,0,2.9,1.3,2.9,2.9h0c0,1.6-1.3,2.9-2.9,2.9h-5.2c-1.6,0-2.9-1.3-2.9-2.9h0c0-1.6,1.3-2.9,2.9-2.9Z"/>
  <path class="st7" d="M367.6,333.7h32.6c1.6,0,2.9,1.3,2.9,2.9h0c0,1.6-1.3,2.9-2.9,2.9h-32.6c-1.6,0-2.9-1.3-2.9-2.9h0c0-1.6,1.3-2.9,2.9-2.9Z"/>
  <path class="st7" d="M367.2,320.2h5.2c1.6,0,2.9,1.3,2.9,2.9h0c0,1.6-1.3,2.9-2.9,2.9h-5.2c-1.6,0-2.9-1.3-2.9-2.9h0c0-1.6,1.3-2.9,2.9-2.9Z"/>
  <path class="st7" d="M427.2,320.2h5.2c1.6,0,2.9,1.3,2.9,2.9h0c0,1.6-1.3,2.9-2.9,2.9h-5.2c-1.6,0-2.9-1.3-2.9-2.9h0c0-1.6,1.3-2.9,2.9-2.9Z"/>
  <path class="st7" d="M444.2,320.2h5.2c1.6,0,2.9,1.3,2.9,2.9h0c0,1.6-1.3,2.9-2.9,2.9h-5.2c-1.6,0-2.9-1.3-2.9-2.9h0c0-1.6,1.3-2.9,2.9-2.9Z"/>
  <path class="st7" d="M383.6,320.7h32.6c1.6,0,2.9,1.3,2.9,2.9h0c0,1.6-1.3,2.9-2.9,2.9h-32.6c-1.6,0-2.9-1.3-2.9-2.9h0c0-1.6,1.3-2.9,2.9-2.9Z"/>
  <path class="st3" d="M349.9,546c-.2.1-.4.2-.7.3-1.4.7-2.8,1.4-4.2,2-4.2,2-8.5,3.9-12.8,5.7-11.4,4.8-23.1,8.8-35,12-2-12.5-3.9-41.9-5.8-63.5-.4-4.1-.7-7.9-1-11.2-.3-4.4-1-8.8-1.9-13.1,0-.3-.2-.7-.4-1,.2,1.7.4,6.9.6,14,.1,3.3.2,7.1.3,11.2.5,20.8,1,49.2,1.5,65.3-1.4.3-2.8.7-4.2,1-.9.2-1.8.4-2.7.6-1.1.2-2.2.5-3.2.7-1.1.2-2.3.5-3.4.7-18.5,3.6-37.2,5.4-56.1,5.4-1.2,0-2.5,0-3.7,0-.4,0-.8,0-1.1,0-1.1,0-2.2,0-3.4,0-22.2-.6-44.3-3.8-65.8-9.5l.9-64.1v-11.2c.1,0,.2-4.2.2-4.2-.5,1.4-.8,2.8-.9,4.2-.4,2.7-.7,6.6-1.1,11.2-1.4,17.8-2.8,46.4-4.2,62.7-17.3-4.9-29.9-9.4-45.7-17.3-.6-.3-1.2-.6-1.8-.9.1-.8.2-1.5.3-2.3,1.8-12.4-.3-28.6,1.7-42.2,1.5-10.4,3.1-20.5,4.6-29,1.9-10.2,3.8-18.3,5.7-22.2,2.2-4.5,4.4-9,6.5-13.2.9-1.8,1.8-3.6,2.7-5.4.5-1,1-1.9,1.4-2.8,2.1-4.2,4.2-8.1,6-11.5,1.3-2.4,2.5-4.6,3.6-6.5,1.3-2.2,2.4-4.1,3.4-5.5,6.9-10.5,17.3-18.4,29.3-22.2h.3c0,0,.3,0,.3,0l.3.2,19.1-7,8.5-20.5,43.7-2.7,7.1,5.4,3.6,2.8,3.9,2.9,7.1,5.4,2,.6,3,.9,20.5,6.3h.2c0,0,.3,0,.3,0,10.9,3.5,20.5,10.3,27.4,19.5.7.9,1.3,1.8,1.9,2.7,1.7,2.5,3.9,6.3,6.5,11.2,1.1,2,2.2,4.2,3.5,6.5.7,1.4,7,21,13.2,41.1,5.7,18.8,11.3,38,12,42.9.1.9.3,1.8.4,2.7.8,5.7,1.6,11.4,2.4,17,1.2,8.3,2.3,16.3,3.4,23.4,0,0,0,.1,0,.2Z"/>
  <polygon class="st5" points="303.6 473.6 295.1 440.8 287.6 469.1 303.6 473.6"/>
  <path class="st2" d="M15.8,473.2c.9,2.6,3.4,4.4,6.2,4.3l26.5-.7c2.8,0,5.2-2,6-4.7l3.7-40.1c1.3.6,2.8.9,4.2.9,5.3-.1,9.5-4.6,9.4-9.9-.1-5.3-4.6-9.5-9.9-9.4h0c-.6,0-1.2,0-1.7.2-1.3-1.4-3-2.1-4.9-2.1l-40.8,1.1c-.3,0-.7,0-1,.1-3.5.6-5.7,4-5.1,7.4,0,.3.1.6.2.8l7.1,52ZM59,429.4l2.7-9.6c.3-1.1.3-2.3,0-3.4.1,0,.2,0,.4,0,3.8,0,7,3,7.1,6.8,0,3.8-2.9,7-6.7,7.1-1.2,0-2.4-.2-3.4-.8h0Z"/>
  <path class="st3" d="M13.6,412.9c.9,5,10.6,8.5,22.4,7.8,10.8-.5,19.6-4.3,21.2-8.8-.6-.2-1.2-.3-1.8-.2l-40.8,1.1c-.3,0-.7,0-1,.1Z"/>
  <path class="st6" d="M38.1,451.2c0,0,.1,0,.2,0l5.8-3.8c.2-.2.3-.5.1-.7,0,0,0-.1-.1-.1l-6-3.9c-.2-.2-.5,0-.7.1s0,.5.1.7h0l5.3,3.5-5.1,3.3c-.2.2-.3.5-.1.7.1.2.3.3.5.2h0Z"/>
  <path class="st6" d="M29.1,451.6c.3,0,.4-.3.4-.6,0-.1-.1-.2-.2-.3l-5.3-3,5.1-3.8c.2-.2.3-.5.1-.7-.2-.2-.5-.3-.7-.1h0s-5.7,4.3-5.7,4.3c-.2.2-.3.5-.1.7,0,0,0,.1.2.1l6,3.4c.1,0,.2,0,.4,0Z"/>
  <path class="st6" d="M37.6,454.5s0,0,.1,0c.2-.1.3-.5.2-.7,0,0,0,0,0,0l-8.2-13.4c-.1-.2-.5-.3-.7-.2-.2.1-.3.4-.2.7l8.2,13.4c.1.2.3.3.5.2Z"/>
  <path class="st3" d="M785.1,547c-.6.3-1.2.6-1.8.9-15.8,7.9-28.4,12.4-45.7,17.3-1.5-16.3-2.9-45-4.2-62.7-.4-4.6-.7-8.5-1.1-11.2,0-1.5-.4-2.9-.9-4.2v4.2c0,0,.2,11.2.2,11.2l.9,64.1c-21.5,5.7-43.6,8.9-65.8,9.5-1.2,0-2.3,0-3.4,0-.4,0-.8,0-1.2,0-1.2,0-2.5,0-3.7,0-23.4,0-46.8-2.8-69.5-8.4.5-16.1,1-44.5,1.4-65.3,0-4.1.2-7.9.3-11.2.2-7.2.4-12.3.6-14-.2.3-.3.6-.4,1-.9,4.3-1.6,8.7-1.9,13.1-.3,3.3-.7,7.1-1,11.2-1.9,21.6-3.8,51-5.8,63.5-11.9-3.2-23.6-7.3-35-12-6-2.5-11.9-5.2-17.7-8.1,1.1-7.2,2.2-15.3,3.4-23.6.9-6.5,1.9-13.2,2.8-19.8,1.5-10.2,52.5-120.1,64.5-124h.3c0,0,.2,0,.2,0l20.5-6.3,3-.9,2-.6,7.1-5.4,3.8-2.9,3.6-2.8,7.1-5.4,43.7,2.7,8.5,20.5,19.1,7,.3-.2h.3c0-.1.3,0,.3,0,12,3.8,22.3,11.7,29.3,22.2.9,1.4,2.1,3.3,3.4,5.5,1.1,1.9,2.3,4.1,3.6,6.5,1.8,3.4,3.9,7.3,6,11.5.5.9,1,1.9,1.4,2.8.9,1.8,1.8,3.6,2.7,5.4,2.1,4.2,4.3,8.7,6.5,13.2,1.9,3.9,3.8,12,5.7,22.2,1.6,8.5,3.1,18.5,4.6,29,2,13.5-.1,29.7,1.7,42.2.1.8.2,1.6.3,2.3Z"/>
  <circle class="st1" cx="657" cy="296.2" r="50.8"/>
  <polygon class="st5" points="575.7 473.6 584.2 440.8 591.7 469.1 575.7 473.6"/>
  <path class="st2" d="M801.8,452.2c-3,41.9.1,60.3-16.7,94.8-15.3,7.5-31.2,13.6-47.5,18.2-1.7.5-3.4.9-5.1,1.4-21.5,5.7-43.6,8.9-65.8,9.5-1.2,0-2.3,0-3.4,0-.4,0-.8,0-1.2,0-1.2,0-2.5,0-3.7,0-23.4,0-46.8-2.8-69.5-8.4-2.3-.6-4.5-1.2-6.8-1.8-11.9-3.2-23.6-7.3-35-12-6-2.5-11.9-5.2-17.7-8.1-1.3-.7-2.6-1.3-3.9-2-6.6-11.7-10.4-25.8-10.5-42.9,4.6-29.4,276.7-74.2,286.8-48.9Z"/>
  <path class="st5" d="M801.8,459.4c.2-2.6.3-5.3.5-8.1-10.1-25.3-282.2,19.5-286.8,48.9,0,2.7.1,5.3.3,7.9,11.1-29,269.6-71.6,286-48.7Z"/>
  <path class="st1" d="M508.2,454.2l22.3-11.2-18.6-50.3-4.9-25.3c-2-10.4-12.1-17.2-22.5-15.2-3.3.6-6.3,2.1-8.8,4.3h0c-7.8,6.7-8.9,18.5-2.5,26.5l18.2,22.8,16.8,48.4Z"/>
  <path class="st3" d="M530.5,433.7l-29.8,14.9,22.6,70.8c3.3,10.3,11.8,18.2,22.3,20.7h0c13.1,3.1,26.8-2.6,33.7-14.2l59.9-102.7c8.8-14.7,4.3-33.8-10.2-43h0c-14.8-9.3-34.3-5-43.6,9.8-.6,1-1.2,2-1.7,3l-36.6,77.9-16.8-37.2Z"/>
  <circle class="st1" cx="209.5" cy="287.6" r="55.9"/>
  <path class="st2" d="M154.2,249c4.5-6.1,11.1-10.5,16.1-16.3,2.7-3.2,5-6.7,8.1-9.6,5.7-5.3,13.7-7.4,21.5-7.7,17.3-.4,33.7,7.4,44.3,21,4.1-2.4,8.1-4.8,12.2-7.1,1.6,4.2,3.2,8.5,4.8,12.7,3.1-2.7,7.7-2.4,10.4.7,2.1,2.4,2.4,5.8.8,8.5,1-3,5.4-3.6,7.8-1.6,2.4,2,3.1,5.5,2.7,8.6-1,7-6.2,12.7-13.1,14.3-5.3,1.2-11.5,0-15.7,3.3-3.4,2.7-4.4,7.7-7.9,10.3-4.3,3.2-10.3,1.7-15.6,2.5-9.3,1.3-16.7,10.8-15.6,20.1-.8-2.9-1.7-6-3.6-8.4-1.9-2.4-5.1-4-8.1-3.1-4.8,1.5-5.6,8.1-4.5,13,3.1,13,14.9,34.1,14.9,34.1-15.3,6-33.6.3-45.4-11.1-11.8-11.5-18-27.7-20.7-44-2.3-13.8-2-29.1,6.4-40.3Z"/>
  <path class="st2" d="M720.7,324.2c10.6-24.4,4.6-46.8-8.4-58.8h0c-5.1-11.4-11.9-20.3-19.6-22.3-3.8-2.4-7.4-5.2-11.4-6.7-3.8-1.4-8-1.2-11.7.5l-2.1-.5c-1.8-4.5-3.8-4.6-6.1-1.6-8.8-4.1-16.7-5.9-23.7-5.9-23,0-36.5,19.4-40.1,42.9l19.2,5.1,6.7-10.6-3.1,11.6,10.6,2.8c16.1,21-3.2,69.4-27.6,96.4,5.8-1.6,11.6-3,17.4-4.1l21-30.8-13,28c6.8-1,15.4,0,24.8,1.9,3.2-4.1,4.8-9.7,3.2-14.6,2.7,5.2,4.5,10.8,5.5,16.5,19.9,4.8,47,7.3,61.5,9.2,11.8-3.9,11.8-47.3-3-59Z"/>
  <path class="st2" d="M727.6,241.2c7.8,17.5-7.9,25-22.3,24.7-13-.2-24.1-9.3-24.7-22.3-.7-13,9.3-24.1,22.3-24.7h0c13-.7,19.4,10.5,24.7,22.3Z"/>
  <path class="st1" d="M366,525.3l-12.8-21.4,42.7-32.4,17.8-18.7c7.3-7.7,19.4-8,27.1-.7,2.4,2.3,4.2,5.2,5.2,8.3h0c3,9.9-2.4,20.4-12.1,23.7l-27.6,9.4-40.1,31.8Z"/>
  <path class="st3" d="M375.3,524.6l-20,16.7-5.4,4.5-.6.5c-1.4.7-2.8,1.4-4.2,2-4.2,2-8.5,3.9-12.8,5.7-11.4,4.8-23.1,8.8-35,12-2.3.6-4.5,1.2-6.8,1.8-1.4.3-2.8.7-4.2,1-.9.2-1.8.4-2.7.6-1.1.2-2.2.5-3.2.7-1.1.2-2.3.5-3.4.7-6.1-5.8-9.6-14-9.6-22.4,0-.3,0-.5,0-.8l3.2-82.3,1.4-36.5c.5-17.2,14.5-30.8,31.7-30.8,1,0,1.9,0,2.9.1.7.9,1.3,1.8,1.9,2.7,1.7,2.5,3.9,6.3,6.5,11.2,1.1,2,2.2,4.2,3.5,6.5.7,1.4,7,21,13.2,41.1l-2.7,21-4.9,37.8,20-13.1,14.1-9.3,1.7,2.8,4.3,7.3,8.4,14,2.7,4.5Z"/>
  <path class="st2" d="M364.3,501.1c0,1.7,0,3.4-.1,5-.2,4.6-.7,9.1-1.6,13.6-1.4,7.5-3.8,14.8-7.3,21.6-.5.9-1,1.8-1.5,2.7-1.3.7-2.6,1.3-3.9,2-.2.1-.4.2-.7.3-5.6,2.8-11.2,5.4-17,7.8-11.4,4.8-23.1,8.8-35,12-2.3.6-4.5,1.2-6.8,1.8-4.4,1.1-8.9,2.1-13.5,3-18.5,3.6-37.2,5.4-56.1,5.4-1.2,0-2.5,0-3.7,0-.4,0-.8,0-1.1,0-1.1,0-2.2,0-3.4,0-22.2-.6-44.3-3.8-65.8-9.5-1.7-.5-3.4-.9-5.1-1.4-16.3-4.6-32.3-10.7-47.5-18.2-16.8-34.5-13.6-53-16.7-94.8,6.2-15.6,111.8-4.6,193.1,13,22.1,4.8,42.3,10,58.3,15.4,16.5,5.5,28.5,11.2,33.2,16.4,1.1,1.1,1.9,2.5,2.2,4Z"/>
  <path class="st5" d="M77.5,459.4c-.2-2.6-.3-5.3-.5-8.1,10.1-25.3,282.2,19.5,286.8,48.9,0,2.7-.1,5.3-.3,7.9-11.1-29-269.6-71.6-286-48.7Z"/>
</svg>