<svg xmlns="http://www.w3.org/2000/svg" xmlns:xlink="http://www.w3.org/1999/xlink" width="1461" zoomAndPan="magnify" viewBox="0 0 1095.75 245.249991" height="327" preserveAspectRatio="xMidYMid meet" version="1.0"><defs><clipPath id="23dec742b5"><path d="M 526 2 L 1093.953125 2 L 1093.953125 244 L 526 244 Z M 526 2 " clip-rule="nonzero"/></clipPath><clipPath id="67b6c64b99"><path d="M 526.710938 65.144531 L 1073.023438 2.25 L 1093.597656 180.953125 L 547.285156 243.847656 Z M 526.710938 65.144531 " clip-rule="nonzero"/></clipPath><clipPath id="ca335c7dd3"><path d="M 1.546875 0 L 569 0 L 569 244 L 1.546875 244 Z M 1.546875 0 " clip-rule="nonzero"/></clipPath><clipPath id="b606f41d96"><path d="M 22.882812 0 L 568.921875 65.234375 L 547.582031 243.847656 L 1.546875 178.613281 Z M 22.882812 0 " clip-rule="nonzero"/></clipPath></defs><g clip-path="url(#23dec742b5)"><g clip-path="url(#67b6c64b99)"><path fill="#8c52ff" d="M 526.710938 65.144531 L 1073.296875 2.21875 L 1093.871094 180.921875 L 547.285156 243.847656 Z M 526.710938 65.144531 " fill-opacity="1" fill-rule="nonzero"/></g></g><g clip-path="url(#ca335c7dd3)"><g clip-path="url(#b606f41d96)"><path fill="#8c52ff" d="M 22.882812 0 L 569.195312 65.265625 L 547.855469 243.882812 L 1.546875 178.613281 Z M 22.882812 0 " fill-opacity="1" fill-rule="nonzero"/></g></g></svg>