<svg xmlns="http://www.w3.org/2000/svg" xmlns:xlink="http://www.w3.org/1999/xlink" width="424" zoomAndPan="magnify" viewBox="0 0 318 68.999997" height="92" preserveAspectRatio="xMidYMid meet" version="1.0"><defs><clipPath id="d8edb0f1b2"><path d="M 42 58 L 45 58 L 45 66 L 42 66 Z M 42 58 " clip-rule="nonzero"/></clipPath><clipPath id="ad509c14c5"><path d="M 27.171875 53.148438 L 71 -0.144531 L 88.957031 14.625 L 45.128906 67.917969 Z M 27.171875 53.148438 " clip-rule="nonzero"/></clipPath><clipPath id="bd5b47dc9d"><path d="M 27.171875 53.148438 L 71 -0.144531 L 88.957031 14.625 L 45.128906 67.917969 Z M 27.171875 53.148438 " clip-rule="nonzero"/></clipPath><clipPath id="14b5f24797"><path d="M 27.171875 53.148438 L 71 -0.144531 L 88.957031 14.625 L 45.128906 67.917969 Z M 27.171875 53.148438 " clip-rule="nonzero"/></clipPath><clipPath id="b60badee67"><path d="M 43 43 L 59 43 L 59 60 L 43 60 Z M 43 43 " clip-rule="nonzero"/></clipPath><clipPath id="b7f99a6cb0"><path d="M 27.171875 53.148438 L 71 -0.144531 L 88.957031 14.625 L 45.128906 67.917969 Z M 27.171875 53.148438 " clip-rule="nonzero"/></clipPath><clipPath id="86ffa01e85"><path d="M 27.171875 53.148438 L 71 -0.144531 L 88.957031 14.625 L 45.128906 67.917969 Z M 27.171875 53.148438 " clip-rule="nonzero"/></clipPath><clipPath id="d729b68d0b"><path d="M 27.171875 53.148438 L 71 -0.144531 L 88.957031 14.625 L 45.128906 67.917969 Z M 27.171875 53.148438 " clip-rule="nonzero"/></clipPath><clipPath id="a6443d5733"><path d="M 45 57 L 46 57 L 46 58 L 45 58 Z M 45 57 " clip-rule="nonzero"/></clipPath><clipPath id="8d970c275b"><path d="M 27.171875 53.148438 L 71 -0.144531 L 88.957031 14.625 L 45.128906 67.917969 Z M 27.171875 53.148438 " clip-rule="nonzero"/></clipPath><clipPath id="8d985a5bce"><path d="M 27.171875 53.148438 L 71 -0.144531 L 88.957031 14.625 L 45.128906 67.917969 Z M 27.171875 53.148438 " clip-rule="nonzero"/></clipPath><clipPath id="9574cc47ef"><path d="M 27.171875 53.148438 L 71 -0.144531 L 88.957031 14.625 L 45.128906 67.917969 Z M 27.171875 53.148438 " clip-rule="nonzero"/></clipPath><clipPath id="7ef3a9df48"><path d="M 45 45 L 52 45 L 52 58 L 45 58 Z M 45 45 " clip-rule="nonzero"/></clipPath><clipPath id="d3b64e2b3c"><path d="M 27.171875 53.148438 L 71 -0.144531 L 88.957031 14.625 L 45.128906 67.917969 Z M 27.171875 53.148438 " clip-rule="nonzero"/></clipPath><clipPath id="b897e4e759"><path d="M 27.171875 53.148438 L 71 -0.144531 L 88.957031 14.625 L 45.128906 67.917969 Z M 27.171875 53.148438 " clip-rule="nonzero"/></clipPath><clipPath id="132508fb58"><path d="M 27.171875 53.148438 L 71 -0.144531 L 88.957031 14.625 L 45.128906 67.917969 Z M 27.171875 53.148438 " clip-rule="nonzero"/></clipPath><clipPath id="d98918125c"><path d="M 40 42 L 43 42 L 43 66 L 40 66 Z M 40 42 " clip-rule="nonzero"/></clipPath><clipPath id="d7d401c8d4"><path d="M 27.171875 53.148438 L 71 -0.144531 L 88.957031 14.625 L 45.128906 67.917969 Z M 27.171875 53.148438 " clip-rule="nonzero"/></clipPath><clipPath id="e3b162e76c"><path d="M 27.171875 53.148438 L 71 -0.144531 L 88.957031 14.625 L 45.128906 67.917969 Z M 27.171875 53.148438 " clip-rule="nonzero"/></clipPath><clipPath id="cbd062ba7f"><path d="M 27.171875 53.148438 L 71 -0.144531 L 88.957031 14.625 L 45.128906 67.917969 Z M 27.171875 53.148438 " clip-rule="nonzero"/></clipPath><clipPath id="17b754347c"><path d="M 42 34 L 46 34 L 46 63 L 42 63 Z M 42 34 " clip-rule="nonzero"/></clipPath><clipPath id="d509deaeeb"><path d="M 27.171875 53.148438 L 71 -0.144531 L 88.957031 14.625 L 45.128906 67.917969 Z M 27.171875 53.148438 " clip-rule="nonzero"/></clipPath><clipPath id="6767d5cd8e"><path d="M 27.171875 53.148438 L 71 -0.144531 L 88.957031 14.625 L 45.128906 67.917969 Z M 27.171875 53.148438 " clip-rule="nonzero"/></clipPath><clipPath id="a55bd8fecc"><path d="M 27.171875 53.148438 L 71 -0.144531 L 88.957031 14.625 L 45.128906 67.917969 Z M 27.171875 53.148438 " clip-rule="nonzero"/></clipPath><clipPath id="6b99c7c8da"><path d="M 41 48 L 44 48 L 44 60 L 41 60 Z M 41 48 " clip-rule="nonzero"/></clipPath><clipPath id="d3d7ae082b"><path d="M 27.171875 53.148438 L 71 -0.144531 L 88.957031 14.625 L 45.128906 67.917969 Z M 27.171875 53.148438 " clip-rule="nonzero"/></clipPath><clipPath id="6a4349cd2e"><path d="M 27.171875 53.148438 L 71 -0.144531 L 88.957031 14.625 L 45.128906 67.917969 Z M 27.171875 53.148438 " clip-rule="nonzero"/></clipPath><clipPath id="01b67bd2b2"><path d="M 27.171875 53.148438 L 71 -0.144531 L 88.957031 14.625 L 45.128906 67.917969 Z M 27.171875 53.148438 " clip-rule="nonzero"/></clipPath><clipPath id="7c595a37b8"><path d="M 45 27 L 50 27 L 50 52 L 45 52 Z M 45 27 " clip-rule="nonzero"/></clipPath><clipPath id="6b75e3c03d"><path d="M 27.171875 53.148438 L 71 -0.144531 L 88.957031 14.625 L 45.128906 67.917969 Z M 27.171875 53.148438 " clip-rule="nonzero"/></clipPath><clipPath id="c966d93fe2"><path d="M 27.171875 53.148438 L 71 -0.144531 L 88.957031 14.625 L 45.128906 67.917969 Z M 27.171875 53.148438 " clip-rule="nonzero"/></clipPath><clipPath id="6640e0fd5b"><path d="M 27.171875 53.148438 L 71 -0.144531 L 88.957031 14.625 L 45.128906 67.917969 Z M 27.171875 53.148438 " clip-rule="nonzero"/></clipPath><clipPath id="7e8c61211b"><path d="M 44 50 L 46 50 L 46 53 L 44 53 Z M 44 50 " clip-rule="nonzero"/></clipPath><clipPath id="5afe06b150"><path d="M 27.171875 53.148438 L 71 -0.144531 L 88.957031 14.625 L 45.128906 67.917969 Z M 27.171875 53.148438 " clip-rule="nonzero"/></clipPath><clipPath id="36389c71bb"><path d="M 27.171875 53.148438 L 71 -0.144531 L 88.957031 14.625 L 45.128906 67.917969 Z M 27.171875 53.148438 " clip-rule="nonzero"/></clipPath><clipPath id="0d798de9c7"><path d="M 27.171875 53.148438 L 71 -0.144531 L 88.957031 14.625 L 45.128906 67.917969 Z M 27.171875 53.148438 " clip-rule="nonzero"/></clipPath><clipPath id="9bd4481686"><path d="M 46 33 L 64 33 L 64 49 L 46 49 Z M 46 33 " clip-rule="nonzero"/></clipPath><clipPath id="128f84b97d"><path d="M 27.171875 53.148438 L 71 -0.144531 L 88.957031 14.625 L 45.128906 67.917969 Z M 27.171875 53.148438 " clip-rule="nonzero"/></clipPath><clipPath id="f6c2de98f7"><path d="M 27.171875 53.148438 L 71 -0.144531 L 88.957031 14.625 L 45.128906 67.917969 Z M 27.171875 53.148438 " clip-rule="nonzero"/></clipPath><clipPath id="556a6659b3"><path d="M 27.171875 53.148438 L 71 -0.144531 L 88.957031 14.625 L 45.128906 67.917969 Z M 27.171875 53.148438 " clip-rule="nonzero"/></clipPath><clipPath id="52d54455c0"><path d="M 54 34 L 65 34 L 65 39 L 54 39 Z M 54 34 " clip-rule="nonzero"/></clipPath><clipPath id="cf90e25942"><path d="M 27.171875 53.148438 L 71 -0.144531 L 88.957031 14.625 L 45.128906 67.917969 Z M 27.171875 53.148438 " clip-rule="nonzero"/></clipPath><clipPath id="b4d5e4646e"><path d="M 27.171875 53.148438 L 71 -0.144531 L 88.957031 14.625 L 45.128906 67.917969 Z M 27.171875 53.148438 " clip-rule="nonzero"/></clipPath><clipPath id="b0510c499c"><path d="M 27.171875 53.148438 L 71 -0.144531 L 88.957031 14.625 L 45.128906 67.917969 Z M 27.171875 53.148438 " clip-rule="nonzero"/></clipPath><clipPath id="1e20a0b093"><path d="M 49 21 L 60 21 L 60 41 L 49 41 Z M 49 21 " clip-rule="nonzero"/></clipPath><clipPath id="ddf078e921"><path d="M 27.171875 53.148438 L 71 -0.144531 L 88.957031 14.625 L 45.128906 67.917969 Z M 27.171875 53.148438 " clip-rule="nonzero"/></clipPath><clipPath id="f5216c8c2c"><path d="M 27.171875 53.148438 L 71 -0.144531 L 88.957031 14.625 L 45.128906 67.917969 Z M 27.171875 53.148438 " clip-rule="nonzero"/></clipPath><clipPath id="4fa9675057"><path d="M 27.171875 53.148438 L 71 -0.144531 L 88.957031 14.625 L 45.128906 67.917969 Z M 27.171875 53.148438 " clip-rule="nonzero"/></clipPath><clipPath id="fb590018f9"><path d="M 51 29 L 70 29 L 70 39 L 51 39 Z M 51 29 " clip-rule="nonzero"/></clipPath><clipPath id="a8530f5908"><path d="M 27.171875 53.148438 L 71 -0.144531 L 88.957031 14.625 L 45.128906 67.917969 Z M 27.171875 53.148438 " clip-rule="nonzero"/></clipPath><clipPath id="da6d6c34ce"><path d="M 27.171875 53.148438 L 71 -0.144531 L 88.957031 14.625 L 45.128906 67.917969 Z M 27.171875 53.148438 " clip-rule="nonzero"/></clipPath><clipPath id="702af58109"><path d="M 27.171875 53.148438 L 71 -0.144531 L 88.957031 14.625 L 45.128906 67.917969 Z M 27.171875 53.148438 " clip-rule="nonzero"/></clipPath><clipPath id="387564fd5b"><path d="M 57 24 L 72 24 L 72 32 L 57 32 Z M 57 24 " clip-rule="nonzero"/></clipPath><clipPath id="e8d2f131d5"><path d="M 27.171875 53.148438 L 71 -0.144531 L 88.957031 14.625 L 45.128906 67.917969 Z M 27.171875 53.148438 " clip-rule="nonzero"/></clipPath><clipPath id="c0937ae43e"><path d="M 27.171875 53.148438 L 71 -0.144531 L 88.957031 14.625 L 45.128906 67.917969 Z M 27.171875 53.148438 " clip-rule="nonzero"/></clipPath><clipPath id="0b0412c531"><path d="M 27.171875 53.148438 L 71 -0.144531 L 88.957031 14.625 L 45.128906 67.917969 Z M 27.171875 53.148438 " clip-rule="nonzero"/></clipPath><clipPath id="af86f2795a"><path d="M 58 12 L 72 12 L 72 30 L 58 30 Z M 58 12 " clip-rule="nonzero"/></clipPath><clipPath id="3ef987dac1"><path d="M 27.171875 53.148438 L 71 -0.144531 L 88.957031 14.625 L 45.128906 67.917969 Z M 27.171875 53.148438 " clip-rule="nonzero"/></clipPath><clipPath id="14143471b2"><path d="M 27.171875 53.148438 L 71 -0.144531 L 88.957031 14.625 L 45.128906 67.917969 Z M 27.171875 53.148438 " clip-rule="nonzero"/></clipPath><clipPath id="863ee03fa2"><path d="M 27.171875 53.148438 L 71 -0.144531 L 88.957031 14.625 L 45.128906 67.917969 Z M 27.171875 53.148438 " clip-rule="nonzero"/></clipPath><clipPath id="371f64a4d1"><path d="M 63 20 L 79 20 L 79 26 L 63 26 Z M 63 20 " clip-rule="nonzero"/></clipPath><clipPath id="7fe93631a1"><path d="M 27.171875 53.148438 L 71 -0.144531 L 88.957031 14.625 L 45.128906 67.917969 Z M 27.171875 53.148438 " clip-rule="nonzero"/></clipPath><clipPath id="17b1d5e753"><path d="M 27.171875 53.148438 L 71 -0.144531 L 88.957031 14.625 L 45.128906 67.917969 Z M 27.171875 53.148438 " clip-rule="nonzero"/></clipPath><clipPath id="d290f9d039"><path d="M 27.171875 53.148438 L 71 -0.144531 L 88.957031 14.625 L 45.128906 67.917969 Z M 27.171875 53.148438 " clip-rule="nonzero"/></clipPath><clipPath id="70c0135af6"><path d="M 68 11 L 79 11 L 79 22 L 68 22 Z M 68 11 " clip-rule="nonzero"/></clipPath><clipPath id="06e087e8e8"><path d="M 27.171875 53.148438 L 71 -0.144531 L 88.957031 14.625 L 45.128906 67.917969 Z M 27.171875 53.148438 " clip-rule="nonzero"/></clipPath><clipPath id="2804ca1f86"><path d="M 27.171875 53.148438 L 71 -0.144531 L 88.957031 14.625 L 45.128906 67.917969 Z M 27.171875 53.148438 " clip-rule="nonzero"/></clipPath><clipPath id="b9c8912e1d"><path d="M 27.171875 53.148438 L 71 -0.144531 L 88.957031 14.625 L 45.128906 67.917969 Z M 27.171875 53.148438 " clip-rule="nonzero"/></clipPath><clipPath id="9761c16fd8"><path d="M 71 12 L 86 12 L 86 20 L 71 20 Z M 71 12 " clip-rule="nonzero"/></clipPath><clipPath id="f7902cbecd"><path d="M 27.171875 53.148438 L 71 -0.144531 L 88.957031 14.625 L 45.128906 67.917969 Z M 27.171875 53.148438 " clip-rule="nonzero"/></clipPath><clipPath id="a32ddc1532"><path d="M 27.171875 53.148438 L 71 -0.144531 L 88.957031 14.625 L 45.128906 67.917969 Z M 27.171875 53.148438 " clip-rule="nonzero"/></clipPath><clipPath id="a14745bf53"><path d="M 27.171875 53.148438 L 71 -0.144531 L 88.957031 14.625 L 45.128906 67.917969 Z M 27.171875 53.148438 " clip-rule="nonzero"/></clipPath><clipPath id="738a623076"><path d="M 76 9 L 82 9 L 82 17 L 76 17 Z M 76 9 " clip-rule="nonzero"/></clipPath><clipPath id="9b26d38969"><path d="M 27.171875 53.148438 L 71 -0.144531 L 88.957031 14.625 L 45.128906 67.917969 Z M 27.171875 53.148438 " clip-rule="nonzero"/></clipPath><clipPath id="4fdc6b2bd7"><path d="M 27.171875 53.148438 L 71 -0.144531 L 88.957031 14.625 L 45.128906 67.917969 Z M 27.171875 53.148438 " clip-rule="nonzero"/></clipPath><clipPath id="70c4878a93"><path d="M 27.171875 53.148438 L 71 -0.144531 L 88.957031 14.625 L 45.128906 67.917969 Z M 27.171875 53.148438 " clip-rule="nonzero"/></clipPath><clipPath id="ae2d2668ef"><path d="M 77 16 L 78 16 L 78 17 L 77 17 Z M 77 16 " clip-rule="nonzero"/></clipPath><clipPath id="3c31a20124"><path d="M 27.171875 53.148438 L 71 -0.144531 L 88.957031 14.625 L 45.128906 67.917969 Z M 27.171875 53.148438 " clip-rule="nonzero"/></clipPath><clipPath id="6f6410fb04"><path d="M 27.171875 53.148438 L 71 -0.144531 L 88.957031 14.625 L 45.128906 67.917969 Z M 27.171875 53.148438 " clip-rule="nonzero"/></clipPath><clipPath id="c75faeb07d"><path d="M 27.171875 53.148438 L 71 -0.144531 L 88.957031 14.625 L 45.128906 67.917969 Z M 27.171875 53.148438 " clip-rule="nonzero"/></clipPath><clipPath id="aaa1824895"><path d="M 42 62 L 43 62 L 43 65 L 42 65 Z M 42 62 " clip-rule="nonzero"/></clipPath><clipPath id="161371d308"><path d="M 27.171875 53.148438 L 71 -0.144531 L 88.957031 14.625 L 45.128906 67.917969 Z M 27.171875 53.148438 " clip-rule="nonzero"/></clipPath><clipPath id="2cffcbd61b"><path d="M 27.171875 53.148438 L 71 -0.144531 L 88.957031 14.625 L 45.128906 67.917969 Z M 27.171875 53.148438 " clip-rule="nonzero"/></clipPath><clipPath id="72978cb84f"><path d="M 27.171875 53.148438 L 71 -0.144531 L 88.957031 14.625 L 45.128906 67.917969 Z M 27.171875 53.148438 " clip-rule="nonzero"/></clipPath><clipPath id="6ccf2e1ac6"><path d="M 45 56 L 47 56 L 47 59 L 45 59 Z M 45 56 " clip-rule="nonzero"/></clipPath><clipPath id="fe20eda17b"><path d="M 27.171875 53.148438 L 71 -0.144531 L 88.957031 14.625 L 45.128906 67.917969 Z M 27.171875 53.148438 " clip-rule="nonzero"/></clipPath><clipPath id="ba6c1b897b"><path d="M 27.171875 53.148438 L 71 -0.144531 L 88.957031 14.625 L 45.128906 67.917969 Z M 27.171875 53.148438 " clip-rule="nonzero"/></clipPath><clipPath id="c72d737959"><path d="M 27.171875 53.148438 L 71 -0.144531 L 88.957031 14.625 L 45.128906 67.917969 Z M 27.171875 53.148438 " clip-rule="nonzero"/></clipPath></defs><rect x="-31.8" width="381.6" y="-6.9" height="82.799996" fill-opacity="0"/><path stroke-linecap="butt" transform="matrix(0.749999, -0.000885105, 0.000885105, 0.749999, 0.00000687182, 67.643232)" fill="none" stroke-linejoin="miter" d="M -0.000601277 0.501731 L 423.676803 0.50173 " stroke="#000000" stroke-width="1" stroke-opacity="1" stroke-miterlimit="4"/><g clip-path="url(#d8edb0f1b2)"><g clip-path="url(#ad509c14c5)"><g clip-path="url(#bd5b47dc9d)"><g clip-path="url(#14b5f24797)"><path fill="#383738" d="M 43.007812 65.398438 C 42.476562 65.710938 42.4375 65.066406 42.503906 64.691406 C 42.554688 64.105469 42.648438 63.539062 42.730469 62.957031 C 42.910156 61.847656 43.097656 60.671875 43.660156 59.6875 C 43.671875 59.6875 43.679688 59.679688 43.683594 59.671875 C 43.6875 59.667969 43.691406 59.660156 43.691406 59.652344 C 43.691406 59.65625 43.691406 59.65625 43.691406 59.65625 C 43.691406 59.652344 43.691406 59.648438 43.691406 59.648438 C 43.695312 59.636719 43.703125 59.625 43.707031 59.613281 C 43.707031 59.613281 43.707031 59.613281 43.707031 59.609375 C 43.742188 59.554688 43.777344 59.5 43.8125 59.441406 C 43.871094 59.359375 43.9375 59.277344 44 59.195312 C 44.046875 59.144531 44.09375 59.09375 44.136719 59.039062 C 44.160156 59.011719 44.183594 58.980469 44.203125 58.953125 C 44.40625 58.804688 44.683594 58.992188 44.683594 59.214844 C 44.667969 59.238281 44.648438 59.265625 44.632812 59.292969 C 44.613281 59.320312 44.597656 59.347656 44.578125 59.375 C 44.578125 59.378906 44.574219 59.378906 44.574219 59.378906 C 44.542969 59.417969 44.515625 59.457031 44.488281 59.496094 C 44.457031 59.542969 44.429688 59.589844 44.410156 59.636719 C 44.40625 59.640625 44.40625 59.640625 44.40625 59.640625 C 44.398438 59.652344 44.394531 59.667969 44.386719 59.679688 C 44.371094 59.707031 44.355469 59.738281 44.339844 59.765625 C 43.410156 61.1875 43.296875 63.359375 43.097656 64.980469 C 43.167969 65.097656 43.128906 65.253906 43.042969 65.359375 C 43.035156 65.375 43.019531 65.386719 43.007812 65.398438 Z M 43.007812 65.398438 " fill-opacity="1" fill-rule="nonzero"/></g></g></g></g><g clip-path="url(#b60badee67)"><g clip-path="url(#b7f99a6cb0)"><g clip-path="url(#86ffa01e85)"><g clip-path="url(#d729b68d0b)"><path fill="#383738" d="M 55 46.617188 C 54.875 46.855469 54.738281 47.085938 54.597656 47.320312 C 55.054688 46.59375 55.457031 45.835938 55.828125 45.066406 C 55.535156 45.574219 55.273438 46.097656 55 46.617188 Z M 56.972656 47.21875 C 56.1875 47.640625 55.539062 48.257812 54.890625 48.863281 C 55.621094 48.363281 56.332031 47.828125 56.972656 47.21875 Z M 53.875 51.726562 C 54.675781 51.269531 55.332031 50.605469 55.992188 49.972656 C 56.566406 49.433594 57.152344 48.90625 57.660156 48.304688 C 56.699219 48.746094 55.820312 49.339844 54.890625 49.839844 C 54.289062 50.203125 53.667969 50.546875 53.089844 50.949219 C 52.808594 51.125 52.585938 51.433594 52.277344 51.542969 C 52.222656 51.59375 52.171875 51.652344 52.125 51.707031 C 52.121094 51.710938 52.113281 51.714844 52.109375 51.71875 C 52.082031 51.734375 52.054688 51.753906 52.03125 51.773438 C 51.960938 51.828125 51.890625 51.886719 51.824219 51.941406 C 51.75 52.003906 51.675781 52.070312 51.601562 52.128906 C 51.527344 52.191406 51.453125 52.25 51.382812 52.3125 C 51.316406 52.375 51.25 52.433594 51.179688 52.496094 C 51.109375 52.558594 51.035156 52.617188 50.964844 52.679688 C 50.894531 52.742188 50.828125 52.800781 50.757812 52.859375 C 50.6875 52.917969 50.617188 52.976562 50.554688 53.046875 C 50.527344 53.074219 50.5 53.105469 50.476562 53.136719 C 50.46875 53.148438 50.460938 53.160156 50.453125 53.171875 C 50.332031 53.289062 50.214844 53.40625 50.09375 53.523438 C 50.050781 53.566406 50.003906 53.609375 49.960938 53.65625 C 51.25 52.96875 52.589844 52.410156 53.875 51.726562 Z M 54.242188 54.332031 C 52.941406 54.582031 51.738281 55.054688 50.542969 55.605469 C 51.765625 55.152344 53.058594 54.890625 54.242188 54.332031 Z M 53.648438 55.25 C 52.457031 55.632812 51.253906 55.992188 50.074219 56.414062 C 48.273438 57.058594 46.253906 57.613281 44.875 59.003906 C 44.855469 59.011719 44.839844 59.023438 44.824219 59.035156 C 44.800781 59.058594 44.777344 59.085938 44.757812 59.113281 C 44.742188 59.132812 44.726562 59.152344 44.710938 59.171875 C 44.710938 59.175781 44.710938 59.175781 44.707031 59.179688 C 44.652344 59.242188 44.59375 59.308594 44.539062 59.375 C 44.539062 59.394531 44.535156 59.417969 44.527344 59.4375 C 44.515625 59.457031 44.5 59.476562 44.488281 59.496094 C 44.460938 59.542969 44.429688 59.589844 44.410156 59.636719 C 44.410156 59.640625 44.410156 59.640625 44.410156 59.640625 C 44.402344 59.652344 44.394531 59.664062 44.386719 59.679688 C 44.242188 59.808594 44.03125 59.8125 43.921875 59.695312 C 43.859375 59.628906 43.828125 59.523438 43.859375 59.375 C 43.90625 59.316406 43.953125 59.253906 44 59.195312 C 44.046875 59.144531 44.09375 59.09375 44.136719 59.039062 C 44.179688 58.988281 44.21875 58.933594 44.257812 58.878906 C 44.292969 58.828125 44.328125 58.777344 44.371094 58.730469 C 44.414062 58.683594 44.453125 58.636719 44.5 58.589844 C 44.535156 58.550781 44.574219 58.511719 44.613281 58.476562 C 44.660156 58.433594 44.703125 58.386719 44.746094 58.339844 C 44.785156 58.300781 44.828125 58.261719 44.863281 58.21875 C 44.910156 58.171875 44.945312 58.117188 44.980469 58.058594 C 44.984375 58.054688 44.984375 58.050781 44.988281 58.046875 C 45.003906 58.027344 45.019531 58.007812 45.035156 57.992188 C 45.054688 57.96875 45.070312 57.945312 45.085938 57.921875 C 45.132812 57.855469 45.171875 57.785156 45.207031 57.710938 C 45.25 57.625 45.296875 57.539062 45.332031 57.449219 C 45.347656 57.410156 45.363281 57.371094 45.375 57.332031 C 45.382812 57.328125 45.386719 57.320312 45.390625 57.316406 C 45.40625 57.300781 45.414062 57.28125 45.425781 57.265625 C 45.4375 57.246094 45.449219 57.226562 45.457031 57.207031 C 45.480469 57.167969 45.503906 57.125 45.527344 57.085938 C 45.554688 57.035156 45.578125 56.984375 45.601562 56.929688 C 45.613281 56.921875 45.621094 56.90625 45.628906 56.894531 C 45.640625 56.871094 45.648438 56.851562 45.65625 56.828125 C 45.671875 56.789062 45.691406 56.746094 45.707031 56.703125 C 45.738281 56.617188 45.769531 56.53125 45.796875 56.445312 C 45.796875 56.449219 45.792969 56.453125 45.792969 56.460938 C 45.800781 56.433594 45.808594 56.40625 45.8125 56.382812 C 46.746094 55.566406 47.871094 54.785156 48.136719 54.632812 C 48.21875 54.328125 48.464844 54.097656 48.703125 53.875 C 48.824219 53.757812 48.945312 53.648438 49.042969 53.527344 C 49.644531 52.890625 50.300781 52.3125 50.949219 51.734375 C 51.933594 50.183594 53.097656 48.753906 53.988281 47.140625 C 54.714844 45.980469 55.207031 44.664062 56.074219 43.597656 C 56.234375 43.378906 56.589844 43.277344 56.753906 43.542969 C 56.910156 43.875 56.753906 44.285156 56.664062 44.621094 C 56.191406 45.851562 55.535156 47.015625 54.800781 48.109375 C 55.675781 47.273438 56.6875 46.539062 57.832031 46.148438 C 58.902344 46.222656 57.503906 47.539062 57.203125 47.84375 C 57.636719 47.664062 58.050781 47.390625 58.511719 47.296875 C 58.765625 47.273438 58.957031 47.558594 58.824219 47.785156 C 58.199219 48.695312 57.429688 49.488281 56.609375 50.226562 C 55.980469 50.8125 55.386719 51.445312 54.675781 51.933594 C 53.332031 52.816406 51.78125 53.355469 50.386719 54.125 C 48.683594 54.9375 47.058594 55.957031 45.730469 57.3125 C 47.929688 56.4375 49.890625 55.042969 52.128906 54.285156 C 53.160156 53.898438 54.222656 53.722656 55.277344 53.449219 C 55.703125 53.300781 57.109375 53.238281 56.566406 54.003906 C 55.601562 54.421875 54.621094 54.832031 53.648438 55.25 Z M 53.648438 55.25 " fill-opacity="1" fill-rule="nonzero"/></g></g></g></g><g clip-path="url(#a6443d5733)"><g clip-path="url(#8d970c275b)"><g clip-path="url(#8d985a5bce)"><g clip-path="url(#9574cc47ef)"><path fill="#383738" d="M 45.441406 57.199219 C 45.441406 57.195312 45.441406 57.195312 45.441406 57.195312 C 45.441406 57.195312 45.441406 57.199219 45.441406 57.199219 C 45.4375 57.199219 45.4375 57.199219 45.441406 57.199219 Z M 45.441406 57.199219 " fill-opacity="1" fill-rule="nonzero"/></g></g></g></g><g clip-path="url(#7ef3a9df48)"><g clip-path="url(#d3b64e2b3c)"><g clip-path="url(#b897e4e759)"><g clip-path="url(#132508fb58)"><path fill="#383738" d="M 49.632812 48.46875 C 48.664062 50.617188 47.75 52.796875 46.9375 55.011719 C 47.902344 53.585938 48.625 52.011719 49.414062 50.484375 C 49.972656 49.3125 50.320312 48.03125 50.59375 46.78125 C 50.617188 46.640625 50.644531 46.5 50.664062 46.359375 C 50.273438 47.039062 49.9375 47.746094 49.632812 48.46875 Z M 46.171875 57.058594 C 45.917969 57.207031 45.6875 56.964844 45.699219 56.722656 C 45.703125 56.714844 45.707031 56.710938 45.710938 56.703125 C 45.730469 56.648438 45.75 56.59375 45.769531 56.539062 C 45.769531 56.539062 45.773438 56.535156 45.773438 56.535156 C 45.972656 55.886719 46.167969 55.292969 46.410156 54.667969 C 47.199219 52.53125 48.078125 50.429688 49.015625 48.351562 C 49.269531 47.851562 50.582031 44.40625 51.261719 45.257812 C 51.582031 46.09375 50.867188 48.167969 50.617188 49.074219 C 50.222656 50.40625 49.554688 51.546875 48.933594 52.765625 C 48.183594 54.273438 47.269531 55.71875 46.207031 57.015625 C 46.195312 57.027344 46.183594 57.042969 46.171875 57.058594 Z M 46.171875 57.058594 " fill-opacity="1" fill-rule="nonzero"/></g></g></g></g><g clip-path="url(#d98918125c)"><g clip-path="url(#d7d401c8d4)"><g clip-path="url(#e3b162e76c)"><g clip-path="url(#cbd062ba7f)"><path fill="#383738" d="M 41.167969 53.664062 C 41.175781 52.539062 41.253906 51.417969 41.40625 50.300781 C 41.570312 48.742188 41.6875 47.175781 41.8125 45.613281 C 41.160156 48.242188 40.710938 50.976562 41.167969 53.664062 Z M 42.765625 65.449219 C 42.40625 65.554688 42.335938 65.15625 42.304688 64.890625 C 42.191406 64.316406 42.148438 63.726562 42.035156 63.152344 C 41.769531 61.890625 41.566406 60.621094 41.378906 59.347656 C 41.375 59.324219 41.371094 59.296875 41.371094 59.273438 C 41.359375 59.179688 41.347656 59.082031 41.332031 58.988281 C 41.328125 58.953125 41.320312 58.921875 41.316406 58.890625 C 41.316406 58.878906 41.316406 58.867188 41.3125 58.855469 C 41.3125 58.789062 41.308594 58.71875 41.300781 58.652344 C 41.300781 58.65625 41.300781 58.660156 41.300781 58.664062 C 41.289062 58.558594 41.273438 58.453125 41.246094 58.351562 C 41.234375 58.308594 41.222656 58.265625 41.210938 58.226562 C 41.148438 57.792969 41.082031 57.359375 41.015625 56.929688 C 40.722656 54.847656 40.296875 52.761719 40.382812 50.648438 C 40.4375 48.320312 41.152344 46.070312 41.5625 43.792969 C 41.648438 43.496094 41.589844 43.136719 41.789062 42.886719 C 42.34375 42.519531 42.460938 43.40625 42.457031 43.789062 C 42.523438 46.777344 41.972656 49.746094 41.804688 52.726562 C 41.773438 53.746094 41.773438 54.765625 41.820312 55.785156 C 41.835938 56.074219 41.847656 56.363281 41.878906 56.648438 C 41.914062 56.886719 42.019531 57.242188 41.703125 57.328125 C 41.964844 59.050781 42.167969 60.785156 42.539062 62.488281 C 42.675781 63.144531 42.753906 63.808594 42.855469 64.472656 C 42.863281 64.742188 43.078125 65.136719 42.902344 65.355469 C 42.871094 65.394531 42.824219 65.425781 42.765625 65.449219 Z M 42.765625 65.449219 " fill-opacity="1" fill-rule="nonzero"/></g></g></g></g><g clip-path="url(#17b754347c)"><g clip-path="url(#d509deaeeb)"><g clip-path="url(#6767d5cd8e)"><g clip-path="url(#a55bd8fecc)"><path fill="#383738" d="M 43.878906 40.453125 C 43.761719 41.730469 43.816406 43.042969 43.785156 44.316406 C 43.851562 46.210938 44.132812 48.089844 44.160156 49.988281 C 44.273438 51.300781 44.34375 52.628906 44.097656 53.933594 C 44.847656 51.296875 44.570312 48.546875 44.625 45.851562 C 44.503906 42.761719 44.644531 39.683594 44.378906 36.601562 C 44.113281 37.871094 44.039062 39.167969 43.878906 40.453125 Z M 42.929688 62.796875 C 42.195312 63.121094 42.429688 61.699219 42.394531 61.304688 C 42.425781 60.402344 42.511719 59.496094 42.6875 58.609375 C 42.980469 56.921875 43.28125 55.238281 43.535156 53.542969 C 43.535156 53.542969 43.535156 53.542969 43.535156 53.546875 L 43.53125 53.5625 C 43.792969 52.105469 43.550781 50.644531 43.511719 49.183594 C 43.476562 47.558594 43.203125 45.953125 43.171875 44.332031 C 43.203125 43.136719 43.15625 41.945312 43.238281 40.75 C 43.382812 39.363281 43.5 37.960938 43.753906 36.585938 C 43.820312 36.261719 43.921875 35.953125 44 35.660156 C 44.074219 35.464844 44.054688 35.222656 44.210938 35.070312 C 44.679688 34.75 44.851562 35.453125 44.886719 35.796875 C 45.25 38.421875 45.144531 41.089844 45.167969 43.734375 C 45.277344 45.050781 45.25 46.359375 45.210938 47.675781 C 45.273438 49.128906 45.265625 50.5625 45.101562 52 C 45.097656 52.046875 45.089844 52.089844 45.085938 52.132812 C 45.082031 52.15625 45.078125 52.179688 45.074219 52.203125 C 45.070312 52.246094 45.0625 52.289062 45.0625 52.332031 C 44.804688 54.234375 44.011719 56.003906 43.453125 57.828125 C 43.21875 59.066406 43 60.308594 43.003906 61.570312 C 43 61.839844 43.007812 62.105469 43.035156 62.371094 C 43.097656 62.484375 43.078125 62.636719 42.996094 62.738281 C 42.976562 62.757812 42.957031 62.777344 42.929688 62.796875 Z M 42.929688 62.796875 " fill-opacity="1" fill-rule="nonzero"/></g></g></g></g><g clip-path="url(#6b99c7c8da)"><g clip-path="url(#d3d7ae082b)"><g clip-path="url(#6a4349cd2e)"><g clip-path="url(#01b67bd2b2)"><path fill="#383738" d="M 42.054688 55.429688 C 42.703125 53.835938 43.179688 52.144531 43.304688 50.433594 C 42.648438 52.023438 42.160156 53.71875 42.054688 55.429688 Z M 41.496094 59.152344 C 41.441406 59.148438 41.390625 59.128906 41.347656 59.097656 C 41.34375 59.0625 41.339844 59.023438 41.332031 58.988281 C 41.328125 58.953125 41.320312 58.921875 41.316406 58.890625 C 41.316406 58.878906 41.3125 58.867188 41.3125 58.855469 C 41.3125 58.789062 41.308594 58.71875 41.300781 58.652344 C 41.300781 58.65625 41.300781 58.660156 41.300781 58.667969 C 41.292969 58.582031 41.28125 58.5 41.261719 58.417969 C 41.300781 58.105469 41.351562 57.796875 41.414062 57.488281 C 41.140625 57.300781 41.488281 55.460938 41.476562 55.011719 C 41.636719 52.980469 42.347656 51.074219 43.167969 49.226562 C 43.246094 48.957031 43.421875 48.535156 43.765625 48.753906 C 44.140625 49.097656 43.882812 50.59375 43.851562 51.117188 C 43.707031 52.402344 43.359375 53.65625 42.929688 54.875 C 42.585938 55.757812 42.226562 56.640625 42.027344 57.5625 C 41.933594 57.996094 41.867188 58.433594 41.828125 58.871094 C 41.824219 58.933594 41.796875 58.992188 41.757812 59.039062 C 41.695312 59.113281 41.597656 59.160156 41.496094 59.152344 Z M 41.496094 59.152344 " fill-opacity="1" fill-rule="nonzero"/></g></g></g></g><g clip-path="url(#7c595a37b8)"><g clip-path="url(#6b75e3c03d)"><g clip-path="url(#c966d93fe2)"><g clip-path="url(#6640e0fd5b)"><path fill="#383738" d="M 47.574219 32.59375 C 47.355469 34.394531 47.761719 36.160156 48.132812 37.90625 C 48.203125 38.324219 48.253906 38.742188 48.300781 39.164062 C 48.371094 39.820312 48.398438 40.484375 48.386719 41.148438 C 49.148438 38.351562 48.492188 36.042969 48.128906 33.296875 C 47.914062 31.71875 48.203125 30.152344 48.347656 28.582031 C 47.710938 29.820312 47.714844 31.238281 47.574219 32.59375 Z M 45.066406 50.898438 C 44.871094 50.53125 45.179688 50.085938 45.25 49.707031 C 45.640625 48.488281 46.152344 47.308594 46.644531 46.125 C 47.808594 43.640625 47.996094 41.097656 47.585938 38.402344 C 47.417969 37.21875 47.0625 36.070312 46.957031 34.878906 C 46.8125 33.386719 47.015625 31.890625 47.179688 30.40625 C 47.320312 29.324219 47.699219 28.1875 48.410156 27.347656 C 48.835938 27.105469 49.039062 27.640625 48.992188 27.992188 C 48.945312 29.679688 48.511719 31.351562 48.71875 33.042969 C 48.914062 35.070312 49.527344 37.074219 49.324219 39.132812 C 49.226562 40.835938 48.675781 42.457031 48.046875 44.03125 C 47.410156 46.15625 46.363281 48.183594 45.707031 50.28125 C 45.671875 50.359375 45.632812 50.4375 45.601562 50.519531 C 45.554688 50.625 45.511719 50.730469 45.472656 50.839844 C 45.453125 50.890625 45.4375 50.9375 45.421875 50.988281 C 45.296875 51.035156 45.148438 51.011719 45.066406 50.898438 Z M 45.066406 50.898438 " fill-opacity="1" fill-rule="nonzero"/></g></g></g></g><g clip-path="url(#7e8c61211b)"><g clip-path="url(#5afe06b150)"><g clip-path="url(#36389c71bb)"><g clip-path="url(#0d798de9c7)"><path fill="#383738" d="M 44.894531 52.324219 C 44.390625 52.171875 44.9375 51.289062 44.996094 50.933594 C 45.121094 50.652344 45.152344 50.054688 45.59375 50.199219 C 45.640625 50.222656 45.679688 50.25 45.707031 50.277344 C 45.667969 50.359375 45.632812 50.4375 45.597656 50.519531 C 45.554688 50.625 45.511719 50.730469 45.472656 50.839844 C 45.453125 50.890625 45.4375 50.945312 45.417969 50.996094 C 45.402344 51.046875 45.382812 51.101562 45.363281 51.152344 C 45.289062 51.355469 45.222656 51.5625 45.167969 51.769531 C 45.167969 51.773438 45.167969 51.773438 45.167969 51.773438 C 45.167969 51.777344 45.167969 51.777344 45.167969 51.777344 C 45.167969 51.777344 45.167969 51.78125 45.167969 51.78125 C 45.128906 51.917969 45.09375 52.058594 45.074219 52.203125 C 45.066406 52.242188 45.0625 52.28125 45.0625 52.320312 C 45.011719 52.339844 44.957031 52.339844 44.894531 52.324219 Z M 44.894531 52.324219 " fill-opacity="1" fill-rule="nonzero"/></g></g></g></g><g clip-path="url(#9bd4481686)"><g clip-path="url(#128f84b97d)"><g clip-path="url(#f6c2de98f7)"><g clip-path="url(#556a6659b3)"><path fill="#383738" d="M 53.511719 38.605469 C 53.808594 38.316406 54.105469 38.019531 54.40625 37.730469 C 54.519531 37.621094 54.632812 37.511719 54.746094 37.402344 C 53.261719 38.234375 52.039062 39.515625 51.050781 40.882812 C 51.921875 40.183594 52.71875 39.398438 53.511719 38.605469 Z M 60.707031 34.730469 C 59.734375 35.03125 58.746094 35.328125 57.875 35.867188 C 56.65625 36.601562 55.5 37.429688 54.519531 38.46875 C 55.84375 37.542969 57.203125 36.742188 58.601562 35.945312 C 59.320312 35.570312 60.058594 35.222656 60.707031 34.730469 Z M 61.929688 38.191406 C 59.035156 38.75 56.25 39.863281 53.625 41.203125 C 56.433594 40.324219 59.277344 39.488281 61.929688 38.191406 Z M 63.269531 38.179688 C 59.992188 40.03125 56.316406 40.925781 52.789062 42.140625 C 51.503906 42.652344 50.269531 43.339844 49.382812 44.425781 C 48.480469 45.472656 47.847656 46.746094 47.441406 48.058594 C 47.347656 48.234375 47.382812 48.449219 47.253906 48.605469 C 47.105469 48.75 46.851562 48.707031 46.757812 48.523438 C 46.65625 48.3125 46.792969 48.082031 46.859375 47.878906 C 46.859375 47.882812 46.855469 47.882812 46.855469 47.886719 C 46.855469 47.894531 46.851562 47.898438 46.847656 47.90625 C 47.265625 46.554688 47.902344 45.253906 48.804688 44.160156 C 48.421875 43.703125 49.605469 42.722656 49.859375 42.3125 C 49.351562 41.757812 51.09375 39.839844 51.488281 39.347656 C 52.429688 38.3125 53.476562 37.328125 54.746094 36.714844 C 55.0625 36.613281 55.484375 36.273438 55.785156 36.519531 C 56.542969 35.996094 57.269531 35.484375 58.070312 35.054688 C 58.871094 34.648438 59.738281 34.390625 60.597656 34.125 C 60.902344 34.035156 61.210938 33.949219 61.515625 33.855469 C 61.757812 33.773438 62.121094 33.628906 62.257812 33.941406 C 62.367188 34.351562 61.800781 34.558594 61.570312 34.820312 C 60.917969 35.390625 60.175781 35.839844 59.398438 36.222656 C 58.285156 36.800781 57.210938 37.460938 56.136719 38.117188 C 56.140625 38.117188 56.144531 38.113281 56.144531 38.113281 C 56.148438 38.109375 56.15625 38.105469 56.15625 38.105469 C 54.335938 39.351562 52.351562 40.402344 50.875 42.085938 C 52.988281 40.773438 55.222656 39.644531 57.5625 38.796875 C 58.867188 38.34375 60.179688 37.902344 61.535156 37.636719 C 62.117188 37.578125 62.988281 37.300781 63.519531 37.527344 C 63.792969 37.761719 63.558594 38.101562 63.269531 38.179688 Z M 63.269531 38.179688 " fill-opacity="1" fill-rule="nonzero"/></g></g></g></g><g clip-path="url(#52d54455c0)"><g clip-path="url(#cf90e25942)"><g clip-path="url(#b4d5e4646e)"><g clip-path="url(#b0510c499c)"><path fill="#383738" d="M 64.410156 35.511719 C 61.632812 37.144531 58.214844 37.234375 55.417969 38.832031 C 55.191406 38.972656 54.894531 38.734375 54.972656 38.484375 C 55.277344 38.011719 56.617188 37.601562 57.171875 37.386719 C 59.222656 36.65625 61.394531 36.265625 63.382812 35.375 C 62.421875 35.445312 61.464844 35.617188 60.527344 35.859375 C 60.128906 35.984375 59.699219 36.058594 59.328125 36.246094 C 59.070312 36.449219 58.710938 36.128906 58.882812 35.847656 C 59.136719 35.316406 65.914062 33.882812 64.410156 35.511719 Z M 64.410156 35.511719 " fill-opacity="1" fill-rule="nonzero"/></g></g></g></g><g clip-path="url(#1e20a0b093)"><g clip-path="url(#ddf078e921)"><g clip-path="url(#f5216c8c2c)"><g clip-path="url(#4fa9675057)"><path fill="#383738" d="M 53.15625 28.527344 C 53.105469 28.964844 53.058594 29.398438 53.015625 29.835938 C 53.742188 27.457031 54.691406 25.113281 54.949219 22.625 C 54.28125 23.574219 53.855469 24.679688 53.617188 25.8125 C 53.378906 26.703125 53.207031 27.609375 53.15625 28.527344 Z M 55.519531 27.90625 C 55.230469 28.390625 54.984375 28.902344 54.730469 29.410156 C 55.59375 27.8125 56.628906 26.3125 57.496094 24.71875 C 56.777344 25.742188 56.121094 26.808594 55.519531 27.90625 Z M 51.21875 34.695312 C 51.671875 32.988281 51.925781 31.242188 52.3125 29.519531 C 52.382812 28.964844 52.542969 28.414062 52.585938 27.863281 C 52.535156 26.699219 52.410156 25.535156 52 24.449219 C 51.753906 25.136719 51.554688 25.851562 51.433594 26.574219 C 51.308594 27.421875 51.375 28.195312 51.328125 29.03125 C 51.125 30.914062 51.25 32.808594 51.21875 34.695312 Z M 50.050781 40.332031 C 49.808594 40.613281 49.355469 40.265625 49.570312 39.957031 C 49.808594 39.53125 49.941406 39.046875 50.070312 38.582031 C 50.429688 37.253906 50.5625 35.835938 50.613281 34.480469 C 50.628906 33.144531 50.550781 31.8125 50.613281 30.480469 C 50.742188 29.1875 50.691406 27.886719 50.8125 26.601562 C 50.953125 25.703125 51.183594 24.828125 51.53125 23.992188 C 52.34375 22.59375 52.90625 25.183594 52.992188 25.785156 C 53.183594 24.9375 53.4375 24.097656 53.824219 23.316406 C 54.175781 22.644531 54.628906 22.03125 55 21.371094 C 55.734375 20.871094 55.617188 22.140625 55.574219 22.546875 C 55.324219 25.300781 54.21875 27.878906 53.453125 30.515625 C 54.535156 28.464844 55.566406 26.382812 56.914062 24.488281 C 57.484375 23.722656 57.972656 22.792969 58.792969 22.269531 C 59.453125 22.1875 59.152344 22.925781 58.945312 23.25 C 57.796875 25.65625 56.273438 27.855469 54.988281 30.191406 C 54.351562 31.265625 53.769531 32.320312 53.121094 33.371094 C 52.820312 33.738281 52.320312 35.050781 51.851562 35.011719 C 51.460938 35.566406 51.339844 37.308594 50.917969 37.558594 C 50.730469 38.503906 50.546875 39.496094 50.050781 40.332031 Z M 50.050781 40.332031 " fill-opacity="1" fill-rule="nonzero"/></g></g></g></g><g clip-path="url(#fb590018f9)"><g clip-path="url(#a8530f5908)"><g clip-path="url(#da6d6c34ce)"><g clip-path="url(#702af58109)"><path fill="#383738" d="M 68.988281 31.78125 C 66.027344 30.632812 62.324219 30.15625 59.21875 31.011719 C 60.25 30.949219 61.28125 31.273438 62.304688 31.238281 C 63.238281 31.207031 64.15625 31.027344 65.089844 31.015625 C 65.949219 31 66.824219 31.117188 67.628906 31.414062 C 68.050781 31.640625 68.507812 31.75 68.988281 31.78125 Z M 69.699219 32.199219 C 69.25 32.59375 68.429688 32.332031 67.90625 32.210938 C 67.289062 31.898438 66.621094 31.730469 65.933594 31.664062 C 64.566406 31.503906 63.207031 31.902344 61.839844 31.84375 C 59.71875 31.664062 59.289062 31.332031 57.152344 32.167969 C 56.191406 32.96875 55.246094 33.816406 54.464844 34.800781 C 53.640625 35.753906 52.976562 36.816406 52.226562 37.816406 C 52.234375 37.804688 52.234375 37.800781 52.242188 37.792969 L 52.214844 37.808594 C 52.214844 37.808594 52.214844 37.804688 52.21875 37.800781 C 52.121094 38.164062 51.542969 38.039062 51.621094 37.664062 C 52.617188 36.164062 53.675781 34.664062 54.925781 33.359375 C 57.738281 30.53125 59.332031 29.855469 63.34375 29.988281 C 64.976562 30.058594 66.617188 30.328125 68.175781 30.832031 C 68.730469 31.101562 70.515625 31.320312 69.699219 32.199219 Z M 69.699219 32.199219 " fill-opacity="1" fill-rule="nonzero"/></g></g></g></g><g clip-path="url(#387564fd5b)"><g clip-path="url(#e8d2f131d5)"><g clip-path="url(#c0937ae43e)"><g clip-path="url(#0b0412c531)"><path fill="#383738" d="M 67.492188 25.984375 C 65.726562 26.667969 64.007812 27.46875 62.355469 28.398438 C 64.128906 27.75 65.921875 27.054688 67.492188 25.984375 Z M 68.929688 27.984375 C 69.015625 27.960938 69.101562 27.945312 69.1875 27.925781 C 67.960938 27.859375 66.75 28.113281 65.554688 28.367188 C 66.6875 28.328125 67.828125 28.273438 68.929688 27.984375 Z M 71.027344 28.097656 C 69.859375 28.414062 68.660156 28.722656 67.457031 28.867188 C 66.578125 28.976562 65.6875 28.925781 64.820312 29.078125 C 63.96875 29.210938 63.117188 29.316406 62.273438 29.460938 C 62.203125 29.46875 62.128906 29.476562 62.054688 29.480469 C 61.996094 29.488281 61.933594 29.496094 61.871094 29.5 C 61.8125 29.507812 61.757812 29.511719 61.699219 29.519531 C 61.636719 29.523438 61.574219 29.527344 61.515625 29.535156 C 61.460938 29.539062 61.40625 29.546875 61.351562 29.550781 C 61.296875 29.558594 61.242188 29.5625 61.1875 29.566406 C 61.128906 29.570312 61.074219 29.578125 61.019531 29.582031 C 60.898438 29.597656 60.777344 29.613281 60.65625 29.628906 C 60.601562 29.636719 60.546875 29.648438 60.488281 29.65625 C 60.433594 29.667969 60.375 29.679688 60.316406 29.691406 C 60.316406 29.691406 60.316406 29.691406 60.3125 29.691406 C 60.308594 29.691406 60.304688 29.691406 60.296875 29.695312 C 60.300781 29.695312 60.300781 29.695312 60.304688 29.691406 C 60.292969 29.695312 60.28125 29.699219 60.269531 29.699219 C 60.269531 29.699219 60.273438 29.699219 60.273438 29.699219 C 60.210938 29.710938 60.152344 29.730469 60.09375 29.75 C 60.09375 29.75 60.097656 29.75 60.097656 29.746094 C 60.09375 29.75 60.089844 29.75 60.085938 29.753906 C 60.085938 29.753906 60.089844 29.75 60.089844 29.75 C 60.0625 29.761719 60.035156 29.769531 60.007812 29.78125 C 59.984375 29.789062 59.957031 29.800781 59.933594 29.8125 C 59.910156 29.824219 59.886719 29.835938 59.867188 29.851562 C 59.855469 29.859375 59.84375 29.867188 59.832031 29.875 C 59.210938 30.152344 58.707031 30.664062 58.203125 31.117188 C 58.148438 31.167969 58.105469 31.242188 58.0625 31.3125 C 57.980469 31.460938 57.902344 31.605469 57.699219 31.558594 C 57.066406 31.292969 57.699219 30.695312 58.226562 30.261719 C 58.238281 30.261719 58.246094 30.257812 58.257812 30.25 C 58.285156 30.234375 58.304688 30.214844 58.328125 30.195312 C 58.324219 30.195312 58.320312 30.199219 58.320312 30.199219 C 58.355469 30.164062 58.398438 30.128906 58.4375 30.09375 C 58.535156 30.015625 58.621094 29.949219 58.679688 29.898438 C 58.710938 29.871094 58.742188 29.847656 58.773438 29.824219 C 58.769531 29.828125 58.765625 29.832031 58.765625 29.832031 C 58.769531 29.828125 58.773438 29.824219 58.78125 29.820312 C 58.867188 29.753906 58.953125 29.6875 59.035156 29.617188 C 59.074219 29.589844 59.113281 29.5625 59.152344 29.535156 C 59.191406 29.511719 59.226562 29.488281 59.261719 29.460938 C 59.285156 29.449219 59.304688 29.433594 59.328125 29.417969 C 59.339844 29.414062 59.351562 29.40625 59.363281 29.398438 C 59.746094 29.15625 60.175781 28.914062 60.5625 28.679688 C 62.253906 27.734375 63.957031 26.800781 65.738281 26.035156 C 66.566406 25.691406 67.402344 25.371094 68.230469 25.035156 C 68.613281 24.941406 69.511719 24.148438 69.753906 24.628906 C 69.933594 25.058594 69.175781 25.429688 68.921875 25.707031 C 67.90625 26.507812 66.804688 27.195312 65.625 27.722656 C 66.59375 27.535156 67.566406 27.3125 68.5625 27.304688 C 68.976562 27.324219 71.753906 27.214844 71.058594 28.058594 C 71.046875 28.070312 71.035156 28.085938 71.027344 28.097656 Z M 71.027344 28.097656 " fill-opacity="1" fill-rule="nonzero"/></g></g></g></g><g clip-path="url(#af86f2795a)"><g clip-path="url(#3ef987dac1)"><g clip-path="url(#14143471b2)"><g clip-path="url(#863ee03fa2)"><path fill="#383738" d="M 62.828125 22.550781 C 62.824219 22.566406 62.820312 22.582031 62.816406 22.597656 C 63.554688 20.535156 64.789062 18.683594 65.511719 16.625 C 64.257812 18.40625 63.511719 20.5 62.828125 22.550781 Z M 65.070312 20.488281 C 66.5 18.566406 68.058594 16.746094 69.5 14.835938 C 68.292969 15.917969 67.359375 17.246094 66.4375 18.558594 C 65.988281 19.207031 65.480469 19.8125 65.070312 20.488281 Z M 67.445312 20.101562 C 67.683594 19.964844 67.917969 19.820312 68.15625 19.683594 C 68.203125 19.652344 68.253906 19.625 68.304688 19.597656 C 67.8125 19.816406 67.355469 20.089844 66.90625 20.386719 C 67.089844 20.296875 67.269531 20.199219 67.445312 20.101562 Z M 71.578125 17.953125 C 70.351562 19.15625 68.839844 20.011719 67.355469 20.847656 C 66.050781 21.503906 64.675781 22.125 63.800781 23.335938 C 63.445312 23.773438 63.128906 24.242188 62.824219 24.71875 C 62.546875 25.015625 62.292969 26.070312 61.773438 25.660156 C 61.351562 26.734375 60.632812 27.640625 59.828125 28.457031 C 59.457031 28.789062 59.226562 29.277344 58.757812 29.410156 C 58.496094 29.410156 58.355469 29.054688 58.5625 28.878906 C 59.421875 28.035156 60.296875 27.15625 60.890625 26.101562 C 61.578125 24.726562 61.953125 23.230469 62.429688 21.78125 C 62.84375 20.570312 63.335938 19.378906 63.871094 18.214844 C 64.144531 17.652344 65.332031 15.347656 65.957031 15.445312 C 66.273438 15.5 66.300781 15.875 66.25 16.136719 C 66.015625 17.542969 65.210938 18.777344 64.621094 20.054688 C 65.84375 18.351562 66.992188 16.542969 68.4375 15.019531 C 68.894531 14.488281 69.480469 14.09375 69.96875 13.597656 C 70.210938 13.359375 70.410156 13.070312 70.675781 12.859375 C 70.875 12.75 71.136719 12.910156 71.121094 13.136719 C 70.695312 14.34375 69.867188 15.390625 69.074219 16.386719 C 68.054688 17.652344 67.03125 18.917969 66.054688 20.214844 C 67.148438 19.40625 68.410156 18.910156 69.597656 18.265625 C 70.226562 17.949219 70.8125 17.511719 71.46875 17.265625 C 71.902344 17.265625 71.871094 17.753906 71.578125 17.953125 Z M 71.578125 17.953125 " fill-opacity="1" fill-rule="nonzero"/></g></g></g></g><g clip-path="url(#371f64a4d1)"><g clip-path="url(#7fe93631a1)"><g clip-path="url(#17b1d5e753)"><g clip-path="url(#d290f9d039)"><path fill="#383738" d="M 74.21875 20.636719 C 74.351562 20.628906 74.488281 20.628906 74.625 20.625 C 74.019531 20.621094 73.410156 20.652344 72.804688 20.742188 C 73.277344 20.710938 73.746094 20.648438 74.21875 20.636719 Z M 77.855469 21.105469 C 76.957031 21.34375 76.007812 21.195312 75.089844 21.238281 C 74.1875 21.214844 73.296875 21.328125 72.398438 21.382812 C 71.398438 21.429688 70.433594 21.683594 69.496094 22.03125 C 69.128906 22.171875 68.757812 22.324219 68.410156 22.507812 C 68.402344 22.511719 68.394531 22.515625 68.390625 22.523438 C 68.351562 22.535156 68.3125 22.550781 68.277344 22.5625 C 68.207031 22.585938 68.136719 22.613281 68.070312 22.640625 C 68.003906 22.667969 67.941406 22.703125 67.878906 22.738281 C 67.777344 22.796875 67.679688 22.855469 67.574219 22.902344 C 67.519531 22.929688 67.464844 22.957031 67.410156 22.984375 C 67.359375 23.011719 67.304688 23.042969 67.253906 23.074219 C 67.1875 23.117188 67.125 23.164062 67.0625 23.210938 C 67.058594 23.207031 67.058594 23.207031 67.058594 23.207031 C 66.582031 23.507812 66.152344 23.851562 65.699219 24.179688 C 65.050781 24.667969 64.351562 25.109375 63.828125 25.738281 C 63.679688 25.984375 63.464844 25.976562 63.328125 25.867188 C 63.175781 25.746094 63.125 25.496094 63.402344 25.347656 C 63.367188 25.359375 63.332031 25.382812 63.304688 25.410156 C 63.953125 24.605469 64.847656 24.070312 65.660156 23.449219 C 66.449219 22.832031 67.253906 22.332031 68.164062 21.9375 C 70.234375 20.617188 72.664062 19.839844 75.121094 20.03125 C 75.5625 20.011719 78.597656 20.242188 77.984375 20.984375 C 77.953125 21.023438 77.910156 21.0625 77.855469 21.105469 Z M 77.855469 21.105469 " fill-opacity="1" fill-rule="nonzero"/></g></g></g></g><g clip-path="url(#70c0135af6)"><g clip-path="url(#06e087e8e8)"><g clip-path="url(#2804ca1f86)"><g clip-path="url(#b9c8912e1d)"><path fill="#383738" d="M 75.382812 15.433594 C 76.1875 14.527344 76.863281 13.507812 77.460938 12.457031 C 76.050781 14.132812 74.917969 16.03125 73.34375 17.566406 C 74.113281 16.941406 74.75 16.191406 75.382812 15.433594 Z M 76.109375 15.542969 C 75.746094 15.933594 75.40625 16.34375 75.066406 16.753906 C 74.199219 17.707031 73.1875 18.523438 72.199219 19.351562 C 71.84375 19.664062 71.464844 19.945312 71.105469 20.253906 C 70.789062 20.441406 70.351562 21.03125 70.015625 20.707031 C 69.675781 20.972656 69.34375 21.257812 68.953125 21.449219 C 68.566406 21.617188 68.34375 20.992188 68.753906 20.867188 C 70.425781 19.773438 71.816406 18.316406 73.175781 16.867188 C 74.632812 15.378906 75.695312 13.574219 77.050781 12 C 77.367188 11.632812 77.722656 11.269531 78.1875 11.089844 C 79.007812 11 78.519531 11.941406 78.269531 12.296875 C 77.621094 13.433594 76.929688 14.53125 76.109375 15.542969 Z M 76.109375 15.542969 " fill-opacity="1" fill-rule="nonzero"/></g></g></g></g><g clip-path="url(#9761c16fd8)"><g clip-path="url(#f7902cbecd)"><g clip-path="url(#a32ddc1532)"><g clip-path="url(#a14745bf53)"><path fill="#383738" d="M 77.644531 16.511719 C 77.648438 16.511719 77.652344 16.511719 77.65625 16.511719 C 77.683594 16.507812 77.707031 16.496094 77.726562 16.476562 C 79.496094 15.707031 81.210938 14.804688 82.886719 13.859375 C 82.925781 13.839844 82.964844 13.820312 83.003906 13.800781 C 81.753906 14.214844 80.597656 14.859375 79.390625 15.378906 C 79.023438 15.53125 78.660156 15.695312 78.296875 15.863281 C 78.296875 15.863281 78.292969 15.863281 78.292969 15.863281 C 78.257812 15.875 78.226562 15.886719 78.195312 15.902344 C 78.195312 15.898438 78.199219 15.898438 78.199219 15.898438 C 78.199219 15.898438 78.195312 15.898438 78.195312 15.902344 C 78.191406 15.902344 78.191406 15.902344 78.191406 15.902344 C 78.191406 15.902344 78.191406 15.902344 78.195312 15.902344 C 78.148438 15.921875 78.109375 15.941406 78.0625 15.960938 C 78.023438 15.980469 77.980469 16 77.941406 16.019531 C 77.898438 16.039062 77.855469 16.058594 77.816406 16.078125 C 77.773438 16.097656 77.730469 16.121094 77.6875 16.148438 C 77.6875 16.148438 77.683594 16.148438 77.683594 16.148438 C 77.679688 16.152344 77.679688 16.152344 77.679688 16.152344 C 77.679688 16.152344 77.683594 16.148438 77.683594 16.148438 C 77.679688 16.152344 77.675781 16.152344 77.671875 16.15625 C 77.675781 16.152344 77.679688 16.152344 77.683594 16.148438 C 77.644531 16.171875 77.609375 16.191406 77.570312 16.210938 C 77.542969 16.226562 77.511719 16.242188 77.484375 16.257812 C 76.691406 16.65625 75.914062 17.074219 75.144531 17.480469 C 75.992188 17.191406 76.824219 16.867188 77.644531 16.511719 Z M 81.242188 16.167969 C 81 16.257812 80.761719 16.355469 80.523438 16.457031 C 80.765625 16.363281 81 16.261719 81.242188 16.167969 Z M 83.246094 15.804688 C 83.414062 15.804688 83.585938 15.808594 83.757812 15.804688 C 83.832031 15.800781 83.90625 15.800781 83.980469 15.796875 C 83.585938 15.769531 83.183594 15.753906 82.792969 15.804688 C 82.941406 15.796875 83.09375 15.800781 83.246094 15.804688 Z M 85.371094 16.285156 C 85.292969 16.308594 85.203125 16.320312 85.121094 16.328125 C 85.019531 16.339844 84.921875 16.347656 84.820312 16.355469 C 83.960938 16.472656 83.089844 16.335938 82.238281 16.496094 C 81.320312 16.710938 80.519531 17.199219 79.597656 17.367188 C 78.003906 17.679688 76.429688 18.0625 74.847656 18.429688 C 73.992188 18.570312 73.171875 18.855469 72.382812 19.226562 C 71.984375 19.6875 71.457031 19.019531 72.1875 18.59375 C 73.304688 17.761719 74.5625 17.09375 75.796875 16.445312 C 75.824219 16.433594 75.847656 16.421875 75.871094 16.40625 C 75.871094 16.40625 75.871094 16.40625 75.875 16.40625 C 75.894531 16.394531 75.910156 16.386719 75.929688 16.375 C 75.933594 16.375 75.9375 16.371094 75.941406 16.371094 C 75.960938 16.363281 75.976562 16.351562 75.996094 16.34375 C 76.007812 16.335938 76.019531 16.328125 76.027344 16.324219 C 76.027344 16.324219 76.03125 16.324219 76.03125 16.324219 C 76.363281 16.148438 76.699219 15.972656 77.023438 15.796875 C 78.414062 15.101562 79.855469 14.519531 81.253906 13.847656 C 82.566406 13.234375 83.960938 12.816406 85.320312 12.335938 C 85.574219 12.183594 86.007812 12.21875 85.96875 12.597656 C 85.789062 13.054688 85.210938 13.234375 84.835938 13.511719 C 84.277344 13.855469 83.707031 14.128906 83.132812 14.417969 C 82.359375 14.839844 81.617188 15.3125 80.8125 15.671875 C 81.773438 15.316406 82.777344 15.105469 83.792969 15.167969 C 84.25 15.132812 86.058594 15.515625 85.570312 16.113281 C 85.527344 16.167969 85.460938 16.226562 85.371094 16.285156 Z M 85.371094 16.285156 " fill-opacity="1" fill-rule="nonzero"/></g></g></g></g><g clip-path="url(#738a623076)"><g clip-path="url(#9b26d38969)"><g clip-path="url(#4fdc6b2bd7)"><g clip-path="url(#70c4878a93)"><path fill="#383738" d="M 79.875 14.40625 C 79.753906 14.550781 79.632812 14.699219 79.515625 14.84375 C 79.132812 15.210938 78.707031 15.527344 78.300781 15.863281 C 78.296875 15.863281 78.296875 15.863281 78.292969 15.863281 C 78.261719 15.875 78.226562 15.886719 78.195312 15.902344 C 78.195312 15.898438 78.195312 15.902344 78.195312 15.898438 C 78.199219 15.898438 78.199219 15.898438 78.199219 15.898438 C 78.199219 15.898438 78.199219 15.898438 78.195312 15.898438 C 78.195312 15.902344 78.195312 15.898438 78.195312 15.902344 C 78.191406 15.902344 78.191406 15.902344 78.191406 15.902344 C 78.191406 15.902344 78.191406 15.902344 78.195312 15.902344 C 78.152344 15.917969 78.109375 15.941406 78.0625 15.960938 C 78.023438 15.980469 77.980469 16 77.941406 16.019531 C 77.898438 16.039062 77.859375 16.058594 77.816406 16.078125 C 77.773438 16.097656 77.730469 16.121094 77.6875 16.148438 C 77.6875 16.148438 77.6875 16.144531 77.6875 16.144531 C 77.6875 16.144531 77.6875 16.148438 77.6875 16.148438 C 77.6875 16.148438 77.683594 16.148438 77.683594 16.148438 C 77.683594 16.152344 77.683594 16.152344 77.683594 16.152344 C 77.683594 16.152344 77.683594 16.152344 77.683594 16.148438 C 77.671875 16.15625 77.65625 16.164062 77.644531 16.171875 C 77.476562 16.074219 77.386719 15.820312 77.589844 15.660156 C 78.402344 14.996094 79.246094 14.367188 79.835938 13.480469 C 80.414062 12.789062 80.914062 12.003906 81.050781 11.101562 C 80.398438 12.285156 79.714844 13.46875 78.722656 14.40625 C 78.007812 15.152344 77.304688 16.019531 76.363281 16.480469 C 76.203125 16.53125 76.070312 16.453125 76.003906 16.335938 C 76.015625 16.332031 76.023438 16.328125 76.03125 16.324219 C 76.0625 16.300781 76.09375 16.28125 76.125 16.261719 C 76.140625 16.25 76.15625 16.242188 76.171875 16.230469 C 76.179688 16.226562 76.183594 16.222656 76.191406 16.214844 C 76.238281 16.183594 76.285156 16.152344 76.332031 16.121094 C 76.394531 16.082031 76.453125 16.039062 76.511719 15.988281 C 76.515625 15.984375 76.519531 15.980469 76.527344 15.976562 C 76.582031 15.925781 76.636719 15.875 76.6875 15.824219 C 76.738281 15.769531 76.789062 15.71875 76.839844 15.664062 C 76.890625 15.609375 76.941406 15.550781 76.988281 15.492188 C 77.035156 15.433594 77.082031 15.375 77.132812 15.316406 C 77.132812 15.316406 77.128906 15.316406 77.128906 15.316406 C 77.132812 15.3125 77.132812 15.3125 77.136719 15.308594 C 77.136719 15.308594 77.136719 15.3125 77.136719 15.3125 C 77.148438 15.296875 77.160156 15.28125 77.171875 15.265625 C 77.171875 15.269531 77.171875 15.269531 77.167969 15.269531 C 77.195312 15.238281 77.222656 15.203125 77.25 15.171875 C 77.246094 15.171875 77.246094 15.175781 77.246094 15.175781 C 77.265625 15.148438 77.289062 15.121094 77.308594 15.09375 C 77.308594 15.09375 77.308594 15.09375 77.308594 15.097656 C 77.308594 15.09375 77.3125 15.089844 77.3125 15.089844 C 77.316406 15.085938 77.316406 15.085938 77.320312 15.082031 C 77.316406 15.082031 77.316406 15.082031 77.316406 15.082031 C 77.320312 15.082031 77.320312 15.082031 77.320312 15.082031 C 77.34375 15.050781 77.371094 15.019531 77.394531 14.988281 C 77.417969 14.957031 77.4375 14.929688 77.464844 14.902344 C 77.488281 14.875 77.511719 14.847656 77.535156 14.820312 C 77.585938 14.765625 77.632812 14.710938 77.679688 14.65625 C 77.679688 14.652344 77.683594 14.648438 77.6875 14.644531 C 77.71875 14.605469 77.75 14.566406 77.78125 14.527344 C 78.695312 13.578125 79.578125 12.59375 80.175781 11.402344 C 80.457031 10.957031 80.652344 10.445312 81.011719 10.058594 C 81.308594 9.792969 81.75 10.046875 81.753906 10.417969 C 81.789062 10.90625 81.601562 11.382812 81.496094 11.851562 C 81.226562 12.707031 80.683594 13.421875 80.117188 14.113281 C 80.039062 14.210938 79.957031 14.308594 79.875 14.40625 Z M 79.875 14.40625 " fill-opacity="1" fill-rule="nonzero"/></g></g></g></g><g clip-path="url(#ae2d2668ef)"><g clip-path="url(#3c31a20124)"><g clip-path="url(#6f6410fb04)"><g clip-path="url(#c75faeb07d)"><path fill="#383738" d="M 77.671875 16.15625 C 77.675781 16.15625 77.675781 16.152344 77.679688 16.152344 C 77.679688 16.152344 77.683594 16.152344 77.683594 16.152344 C 77.679688 16.152344 77.675781 16.152344 77.671875 16.15625 Z M 77.671875 16.15625 " fill-opacity="1" fill-rule="nonzero"/></g></g></g></g><g clip-path="url(#aaa1824895)"><g clip-path="url(#161371d308)"><g clip-path="url(#2cffcbd61b)"><g clip-path="url(#72978cb84f)"><path fill="#383738" d="M 42.605469 64.144531 C 42.4375 64.128906 42.316406 63.96875 42.335938 63.804688 C 42.355469 63.511719 42.371094 63.214844 42.371094 62.917969 C 42.375 62.757812 42.378906 62.597656 42.371094 62.4375 C 42.355469 62.175781 42.703125 62.019531 42.886719 62.203125 C 43.074219 62.390625 42.960938 62.878906 42.980469 63.136719 C 42.976562 63.382812 42.957031 63.625 42.945312 63.867188 C 42.933594 64.035156 42.765625 64.160156 42.605469 64.144531 Z M 42.605469 64.144531 " fill-opacity="1" fill-rule="nonzero"/></g></g></g></g><g clip-path="url(#6ccf2e1ac6)"><g clip-path="url(#fe20eda17b)"><g clip-path="url(#ba6c1b897b)"><g clip-path="url(#c72d737959)"><path fill="#383738" d="M 45.292969 58.125 C 45.195312 58.074219 45.132812 57.96875 45.128906 57.859375 C 45.160156 57.8125 45.1875 57.761719 45.210938 57.714844 C 45.253906 57.625 45.296875 57.539062 45.335938 57.449219 C 45.351562 57.410156 45.363281 57.371094 45.378906 57.332031 C 45.386719 57.328125 45.390625 57.320312 45.394531 57.316406 C 45.40625 57.300781 45.417969 57.28125 45.429688 57.265625 C 45.441406 57.246094 45.449219 57.226562 45.460938 57.210938 C 45.484375 57.167969 45.507812 57.128906 45.527344 57.085938 C 45.554688 57.035156 45.582031 56.984375 45.605469 56.933594 C 45.613281 56.921875 45.625 56.90625 45.632812 56.894531 C 45.640625 56.875 45.652344 56.851562 45.660156 56.832031 C 45.660156 56.824219 45.664062 56.816406 45.667969 56.808594 C 45.675781 56.796875 45.683594 56.78125 45.6875 56.765625 C 45.753906 56.636719 45.828125 56.515625 45.886719 56.386719 C 45.933594 56.222656 46.050781 56.0625 46.242188 56.082031 C 46.410156 56.09375 46.535156 56.246094 46.519531 56.414062 C 46.488281 56.609375 46.363281 56.785156 46.277344 56.960938 C 46.152344 57.234375 45.980469 57.480469 45.839844 57.746094 C 45.796875 57.839844 45.746094 57.949219 45.675781 58.03125 C 45.585938 58.144531 45.464844 58.207031 45.292969 58.125 Z M 45.292969 58.125 " fill-opacity="1" fill-rule="nonzero"/></g></g></g></g></svg>