<?xml version="1.0" encoding="utf-8"?>
<!-- Generator: Adobe Illustrator 29.1.0, SVG Export Plug-In . SVG Version: 9.03 Build 55587)  -->
<svg version="1.1" xmlns="http://www.w3.org/2000/svg" xmlns:xlink="http://www.w3.org/1999/xlink" x="0px" y="0px"
	 viewBox="0 0 841.89 595.28" style="enable-background:new 0 0 841.89 595.28;" xml:space="preserve">
<pattern  width="72" height="72" patternUnits="userSpaceOnUse" id="_x31_0_lpi_10__x25__2" viewBox="72.25 -72 72 72" style="overflow:visible;">
	<g>
		<rect x="72.25" y="-72" style="fill:none;" width="72" height="72"/>
		<g>
			<line style="fill:none;stroke:#FFFFFF;stroke-width:0.72;" x1="144" y1="-3.6" x2="216.5" y2="-3.6"/>
			<line style="fill:none;stroke:#FFFFFF;stroke-width:0.72;" x1="144" y1="-18" x2="216.5" y2="-18"/>
			<line style="fill:none;stroke:#FFFFFF;stroke-width:0.72;" x1="144" y1="-32.4" x2="216.5" y2="-32.4"/>
			<line style="fill:none;stroke:#FFFFFF;stroke-width:0.72;" x1="144" y1="-46.8" x2="216.5" y2="-46.8"/>
			<line style="fill:none;stroke:#FFFFFF;stroke-width:0.72;" x1="144" y1="-61.2" x2="216.5" y2="-61.2"/>
			<line style="fill:none;stroke:#FFFFFF;stroke-width:0.72;" x1="144" y1="-10.8" x2="216.5" y2="-10.8"/>
			<line style="fill:none;stroke:#FFFFFF;stroke-width:0.72;" x1="144" y1="-25.2" x2="216.5" y2="-25.2"/>
			<line style="fill:none;stroke:#FFFFFF;stroke-width:0.72;" x1="144" y1="-39.6" x2="216.5" y2="-39.6"/>
			<line style="fill:none;stroke:#FFFFFF;stroke-width:0.72;" x1="144" y1="-54" x2="216.5" y2="-54"/>
			<line style="fill:none;stroke:#FFFFFF;stroke-width:0.72;" x1="144" y1="-68.4" x2="216.5" y2="-68.4"/>
		</g>
		<g>
			<line style="fill:none;stroke:#FFFFFF;stroke-width:0.72;" x1="72" y1="-3.6" x2="144.5" y2="-3.6"/>
			<line style="fill:none;stroke:#FFFFFF;stroke-width:0.72;" x1="72" y1="-18" x2="144.5" y2="-18"/>
			<line style="fill:none;stroke:#FFFFFF;stroke-width:0.72;" x1="72" y1="-32.4" x2="144.5" y2="-32.4"/>
			<line style="fill:none;stroke:#FFFFFF;stroke-width:0.72;" x1="72" y1="-46.8" x2="144.5" y2="-46.8"/>
			<line style="fill:none;stroke:#FFFFFF;stroke-width:0.72;" x1="72" y1="-61.2" x2="144.5" y2="-61.2"/>
			<line style="fill:none;stroke:#FFFFFF;stroke-width:0.72;" x1="72" y1="-10.8" x2="144.5" y2="-10.8"/>
			<line style="fill:none;stroke:#FFFFFF;stroke-width:0.72;" x1="72" y1="-25.2" x2="144.5" y2="-25.2"/>
			<line style="fill:none;stroke:#FFFFFF;stroke-width:0.72;" x1="72" y1="-39.6" x2="144.5" y2="-39.6"/>
			<line style="fill:none;stroke:#FFFFFF;stroke-width:0.72;" x1="72" y1="-54" x2="144.5" y2="-54"/>
			<line style="fill:none;stroke:#FFFFFF;stroke-width:0.72;" x1="72" y1="-68.4" x2="144.5" y2="-68.4"/>
		</g>
		<g>
			<line style="fill:none;stroke:#FFFFFF;stroke-width:0.72;" x1="0" y1="-3.6" x2="72.5" y2="-3.6"/>
			<line style="fill:none;stroke:#FFFFFF;stroke-width:0.72;" x1="0" y1="-18" x2="72.5" y2="-18"/>
			<line style="fill:none;stroke:#FFFFFF;stroke-width:0.72;" x1="0" y1="-32.4" x2="72.5" y2="-32.4"/>
			<line style="fill:none;stroke:#FFFFFF;stroke-width:0.72;" x1="0" y1="-46.8" x2="72.5" y2="-46.8"/>
			<line style="fill:none;stroke:#FFFFFF;stroke-width:0.72;" x1="0" y1="-61.2" x2="72.5" y2="-61.2"/>
			<line style="fill:none;stroke:#FFFFFF;stroke-width:0.72;" x1="0" y1="-10.8" x2="72.5" y2="-10.8"/>
			<line style="fill:none;stroke:#FFFFFF;stroke-width:0.72;" x1="0" y1="-25.2" x2="72.5" y2="-25.2"/>
			<line style="fill:none;stroke:#FFFFFF;stroke-width:0.72;" x1="0" y1="-39.6" x2="72.5" y2="-39.6"/>
			<line style="fill:none;stroke:#FFFFFF;stroke-width:0.72;" x1="0" y1="-54" x2="72.5" y2="-54"/>
			<line style="fill:none;stroke:#FFFFFF;stroke-width:0.72;" x1="0" y1="-68.4" x2="72.5" y2="-68.4"/>
		</g>
	</g>
</pattern>
<g id="レイヤー_1" style="display:none;">
	<g style="display:inline;">
		<defs>
			<rect id="SVGID_1_" width="841.89" height="595.28"/>
		</defs>
		<clipPath id="SVGID_00000150781343880913115100000010171295403776401304_">
			<use xlink:href="#SVGID_1_"  style="overflow:visible;"/>
		</clipPath>
		
			<linearGradient id="SVGID_00000044171586693144111660000003295606958804845699_" gradientUnits="userSpaceOnUse" x1="264.786" y1="1948.7734" x2="960.1484" y2="1948.7734" gradientTransform="matrix(1 0 0 -1 0 2474.613)">
			<stop  offset="0" style="stop-color:#9C0CCA"/>
			<stop  offset="0.5044" style="stop-color:#FA53D6"/>
			<stop  offset="0.8541" style="stop-color:#FDAB68"/>
		</linearGradient>
		
			<path style="clip-path:url(#SVGID_00000150781343880913115100000010171295403776401304_);fill:url(#SVGID_00000044171586693144111660000003295606958804845699_);" d="
			M264.79,637.03c0,0,159.69-7.98,190.69-77.26c27.95-62.47,77.26-82.19,169.32-42.74c92.06,39.45,103.74-57.88,166.03-108.5
			c78.91-64.11,151.24,14.8,151.24,14.8l18.08,244.94L264.79,637.03z"/>
		
			<pattern  id="SVGID_00000053514211619250851950000006377954811544194217_" xlink:href="#_x31_0_lpi_10__x25__2" patternTransform="matrix(0.7071 0.7071 0.7071 -0.7071 3064.5935 -7379.3276)">
		</pattern>
		
			<circle style="clip-path:url(#SVGID_00000150781343880913115100000010171295403776401304_);fill:url(#SVGID_00000053514211619250851950000006377954811544194217_);" cx="836.66" cy="419.21" r="77.93"/>
		<g style="clip-path:url(#SVGID_00000150781343880913115100000010171295403776401304_);">
			<g>
				<path style="fill:#FFFFFF;" d="M506.53,480.16c0.89,0.89,2.33,0.89,3.22,0c0.89-0.89,0.89-2.33,0-3.22
					c-0.89-0.89-2.33-0.89-3.22,0C505.64,477.83,505.64,479.27,506.53,480.16z"/>
				<path style="fill:#FFFFFF;" d="M490.88,495.81c0.89,0.89,2.33,0.89,3.22,0c0.89-0.89,0.89-2.33,0-3.22
					c-0.89-0.89-2.33-0.89-3.22,0C489.99,493.48,489.99,494.92,490.88,495.81z"/>
			</g>
			<g>
				<path style="fill:#FFFFFF;" d="M522.18,495.81c0.89,0.89,2.33,0.89,3.22,0c0.89-0.89,0.89-2.33,0-3.22
					c-0.89-0.89-2.33-0.89-3.22,0C521.29,493.48,521.29,494.92,522.18,495.81z"/>
				<path style="fill:#FFFFFF;" d="M506.53,511.46c0.89,0.89,2.33,0.89,3.22,0c0.89-0.89,0.89-2.33,0-3.22
					c-0.89-0.89-2.33-0.89-3.22,0C505.64,509.13,505.64,510.57,506.53,511.46z"/>
			</g>
			<g>
				<path style="fill:#FFFFFF;" d="M537.83,511.46c0.89,0.89,2.33,0.89,3.22,0c0.89-0.89,0.89-2.33,0-3.22
					c-0.89-0.89-2.33-0.89-3.22,0C536.94,509.13,536.94,510.57,537.83,511.46z"/>
				<path style="fill:#FFFFFF;" d="M522.18,527.11c0.89,0.89,2.33,0.89,3.22,0c0.89-0.89,0.89-2.33,0-3.22
					c-0.89-0.89-2.33-0.89-3.22,0C521.29,524.78,521.29,526.22,522.18,527.11z"/>
			</g>
			<g>
				<path style="fill:#FFFFFF;" d="M553.48,527.11c0.89,0.89,2.33,0.89,3.22,0c0.89-0.89,0.89-2.33,0-3.22
					c-0.89-0.89-2.33-0.89-3.22,0C552.59,524.78,552.59,526.22,553.48,527.11z"/>
				<path style="fill:#FFFFFF;" d="M537.83,542.76c0.89,0.89,2.33,0.89,3.22,0c0.89-0.89,0.89-2.33,0-3.22
					c-0.89-0.89-2.33-0.89-3.22,0C536.94,540.43,536.94,541.87,537.83,542.76z"/>
			</g>
		</g>
		<g style="clip-path:url(#SVGID_00000150781343880913115100000010171295403776401304_);">
			
				<line style="fill:none;stroke:#FFFFFF;stroke-width:1.0627;stroke-linecap:round;stroke-linejoin:round;stroke-miterlimit:10;" x1="729.13" y1="541.04" x2="729.13" y2="536.91"/>
			
				<line style="fill:none;stroke:#FFFFFF;stroke-width:1.0627;stroke-linecap:round;stroke-linejoin:round;stroke-miterlimit:10;" x1="734.47" y1="541.87" x2="735.89" y2="537.99"/>
			
				<line style="fill:none;stroke:#FFFFFF;stroke-width:1.0627;stroke-linecap:round;stroke-linejoin:round;stroke-miterlimit:10;" x1="739.21" y1="544.48" x2="741.86" y2="541.31"/>
			
				<line style="fill:none;stroke:#FFFFFF;stroke-width:1.0627;stroke-linecap:round;stroke-linejoin:round;stroke-miterlimit:10;" x1="742.77" y1="548.55" x2="746.34" y2="546.48"/>
			
				<line style="fill:none;stroke:#FFFFFF;stroke-width:1.0627;stroke-linecap:round;stroke-linejoin:round;stroke-miterlimit:10;" x1="744.72" y1="553.58" x2="748.79" y2="552.87"/>
			
				<line style="fill:none;stroke:#FFFFFF;stroke-width:1.0627;stroke-linecap:round;stroke-linejoin:round;stroke-miterlimit:10;" x1="744.83" y1="558.99" x2="748.9" y2="559.71"/>
			
				<line style="fill:none;stroke:#FFFFFF;stroke-width:1.0627;stroke-linecap:round;stroke-linejoin:round;stroke-miterlimit:10;" x1="743.08" y1="564.1" x2="746.66" y2="566.17"/>
			
				<line style="fill:none;stroke:#FFFFFF;stroke-width:1.0627;stroke-linecap:round;stroke-linejoin:round;stroke-miterlimit:10;" x1="739.69" y1="568.31" x2="742.35" y2="571.48"/>
			
				<line style="fill:none;stroke:#FFFFFF;stroke-width:1.0627;stroke-linecap:round;stroke-linejoin:round;stroke-miterlimit:10;" x1="735.07" y1="571.11" x2="736.48" y2="574.99"/>
			
				<line style="fill:none;stroke:#FFFFFF;stroke-width:1.0627;stroke-linecap:round;stroke-linejoin:round;stroke-miterlimit:10;" x1="729.77" y1="576.29" x2="729.77" y2="572.16"/>
			
				<line style="fill:none;stroke:#FFFFFF;stroke-width:1.0627;stroke-linecap:round;stroke-linejoin:round;stroke-miterlimit:10;" x1="723.02" y1="575.21" x2="724.43" y2="571.33"/>
			
				<line style="fill:none;stroke:#FFFFFF;stroke-width:1.0627;stroke-linecap:round;stroke-linejoin:round;stroke-miterlimit:10;" x1="717.04" y1="571.89" x2="719.7" y2="568.72"/>
			
				<line style="fill:none;stroke:#FFFFFF;stroke-width:1.0627;stroke-linecap:round;stroke-linejoin:round;stroke-miterlimit:10;" x1="712.56" y1="566.72" x2="716.14" y2="564.65"/>
			
				<line style="fill:none;stroke:#FFFFFF;stroke-width:1.0627;stroke-linecap:round;stroke-linejoin:round;stroke-miterlimit:10;" x1="710.12" y1="560.33" x2="714.18" y2="559.62"/>
			
				<line style="fill:none;stroke:#FFFFFF;stroke-width:1.0627;stroke-linecap:round;stroke-linejoin:round;stroke-miterlimit:10;" x1="710.01" y1="553.49" x2="714.08" y2="554.21"/>
			
				<line style="fill:none;stroke:#FFFFFF;stroke-width:1.0627;stroke-linecap:round;stroke-linejoin:round;stroke-miterlimit:10;" x1="712.24" y1="547.03" x2="715.82" y2="549.1"/>
			
				<line style="fill:none;stroke:#FFFFFF;stroke-width:1.0627;stroke-linecap:round;stroke-linejoin:round;stroke-miterlimit:10;" x1="716.55" y1="541.72" x2="719.21" y2="544.89"/>
			
				<line style="fill:none;stroke:#FFFFFF;stroke-width:1.0627;stroke-linecap:round;stroke-linejoin:round;stroke-miterlimit:10;" x1="722.42" y1="538.21" x2="723.83" y2="542.09"/>
		</g>
		
			<path style="clip-path:url(#SVGID_00000150781343880913115100000010171295403776401304_);fill:none;stroke:#FFFFFF;stroke-miterlimit:10;" d="
			M158.24,660.69c0,0,128.13-100.03,179.8-109.34c58.64-10.58,73.36,15.64,135.83,78.11s13.72-78.5,180.97-130.63
			c130.45-40.66,147.39,111.81,233.29,59.94"/>
		<path style="clip-path:url(#SVGID_00000150781343880913115100000010171295403776401304_);fill:#FFFFFF;" d="M4.28,336.63
			c0,1.87,1.52,3.39,3.39,3.39c1.87,0,3.39-1.52,3.39-3.39c0-1.87-1.52-3.39-3.39-3.39C5.8,333.24,4.28,334.76,4.28,336.63z"/>
		<path style="clip-path:url(#SVGID_00000150781343880913115100000010171295403776401304_);fill:#FFFFFF;" d="M25.15,364.76
			c0,3.39,2.75,6.13,6.13,6.13s6.13-2.75,6.13-6.13c0-3.39-2.75-6.13-6.13-6.13S25.15,361.37,25.15,364.76z"/>
		
			<circle style="clip-path:url(#SVGID_00000150781343880913115100000010171295403776401304_);fill:none;stroke:#FFFFFF;stroke-miterlimit:10;" cx="-2.87" cy="391.03" r="12.99"/>
		
			<path style="clip-path:url(#SVGID_00000150781343880913115100000010171295403776401304_);fill:none;stroke:#FFFFFF;stroke-width:1.4173;stroke-linecap:round;stroke-linejoin:round;stroke-miterlimit:10;" d="
			M102.55,619.11c0,0-38.96-40.66-79.62-37.27c-40.66,3.39,18.64-64.38-25.41-106.73c-44.05-42.35-54.21-44.05-54.21-44.05V593.7"/>
		<g style="clip-path:url(#SVGID_00000150781343880913115100000010171295403776401304_);">
			<g>
				
					<polyline style="fill:none;stroke:#FFFFFF;stroke-width:1.4173;stroke-linecap:round;stroke-linejoin:round;stroke-miterlimit:10;" points="
					344.51,563.91 346.79,572.45 355.32,574.72 357.59,583.26 366.13,585.53 368.4,594.07 376.94,596.34 379.22,604.88 
					387.75,607.16 390.03,615.69 398.57,617.97 400.85,626.51 409.4,628.8 				"/>
			</g>
			<g>
				
					<polyline style="fill:none;stroke:#FFFFFF;stroke-width:1.4173;stroke-linecap:round;stroke-linejoin:round;stroke-miterlimit:10;" points="
					376.93,571.79 379.2,580.32 387.74,582.6 390.01,591.13 398.54,593.4 400.82,601.94 409.36,604.21 411.63,612.75 420.17,615.03 
					422.44,623.56 430.98,625.84 433.27,634.39 441.81,636.67 				"/>
			</g>
		</g>
		<path style="clip-path:url(#SVGID_00000150781343880913115100000010171295403776401304_);fill:#FFFFFF;" d="M647.52,560.94
			c0-2.19-1.78-3.97-3.97-3.97c-2.19,0-3.97,1.78-3.97,3.97c0,2.19,1.78,3.97,3.97,3.97C645.74,564.9,647.52,563.13,647.52,560.94z"
			/>
		<path style="clip-path:url(#SVGID_00000150781343880913115100000010171295403776401304_);fill:#FFFFFF;" d="M828.21,523.4
			c0-2.19-1.78-3.97-3.97-3.97s-3.97,1.78-3.97,3.97c0,2.19,1.78,3.97,3.97,3.97S828.21,525.59,828.21,523.4z"/>
		<path style="clip-path:url(#SVGID_00000150781343880913115100000010171295403776401304_);fill:#FFFFFF;" d="M505.03,552.82
			c0-3.94-3.19-7.13-7.13-7.13s-7.13,3.19-7.13,7.13c0,3.94,3.19,7.13,7.13,7.13S505.03,556.76,505.03,552.82z"/>
	</g>
</g>
<g id="Layer_5" style="display:none;">
	
		<linearGradient id="SVGID_00000130634235274354261600000002164795823847997072_" gradientUnits="userSpaceOnUse" x1="151.4833" y1="1838.8555" x2="914.0296" y2="1838.8555" gradientTransform="matrix(1 0 0 -1 0 2474.613)">
		<stop  offset="0" style="stop-color:#9C0CCA"/>
		<stop  offset="0.5044" style="stop-color:#FA53D6"/>
		<stop  offset="0.8541" style="stop-color:#FDAB68"/>
	</linearGradient>
	<path style="display:inline;fill:url(#SVGID_00000130634235274354261600000002164795823847997072_);" d="M151.48,735.12
		c0,0,11.86-101.65,79.62-96.56c67.76,5.08,69.65-22.83,127.25-27.91c57.6-5.08,64.38-83.01,130.45-59.29
		c66.07,23.72,74.54,86.4,198.21,20.33c123.67-66.07,172.8-30.49,199.91,33.88c27.11,64.38,27.11,64.38,27.11,64.38L151.48,735.12z"
		/>
</g>
<g id="Layer_9" style="display:none;">
	
		<linearGradient id="SVGID_00000060749388484054231930000013108398124620196009_" gradientUnits="userSpaceOnUse" x1="-235.1974" y1="1989.4847" x2="212.2372" y2="1989.4847" gradientTransform="matrix(-1 0 0 1 841.8898 -1879.3374)">
		<stop  offset="0" style="stop-color:#FDA430"/>
		<stop  offset="1" style="stop-color:#FFDF29"/>
	</linearGradient>
	<path style="display:inline;fill:url(#SVGID_00000060749388484054231930000013108398124620196009_);" d="M629.65,3.42
		c0,0-0.43,97.09,100.63,88.44c45.97-3.93,79.37-65.47,111.55-37.67c34.71,29.97,21.18,27.79,83.01,47.48
		c49.5,15.76,33.64,115.48,92.94,154.79c59.3,39.31,59.3-184.25,59.3-184.25L1012.4-30.97L744.66-40.8L629.65,3.42z"/>
	<path style="display:inline;fill:#FFFFFF;" d="M672.14,49.01c0,2.19,1.78,3.97,3.97,3.97c2.19,0,3.97-1.78,3.97-3.97
		c0-2.19-1.78-3.97-3.97-3.97C673.92,45.04,672.14,46.82,672.14,49.01z"/>
</g>
<g id="Layer_2" style="display:none;">
	<path style="display:inline;fill:none;stroke:#B34EF8;stroke-width:0.8837;stroke-miterlimit:10;" d="M-95.35,173.25
		c0,0,101.26,98.8,111.07,139.03c11.14,45.66-14.93,57.47-76.79,107.02s78.62,9.74,132.37,139.68
		c41.92,101.35-110.38,116.46-57.68,182.89"/>
	<path style="display:inline;fill:none;stroke:#B34EF8;stroke-width:0.8837;stroke-miterlimit:10;" d="M-73.33,161.39
		c0,0,101.26,98.8,111.07,139.03c11.14,45.66-14.93,57.47-76.79,107.02s78.62,9.74,132.37,139.68
		c41.92,101.35-110.38,116.46-57.68,182.89"/>
	
		<linearGradient id="SVGID_00000072260203356871611190000007884644519420628142_" gradientUnits="userSpaceOnUse" x1="852.8343" y1="317.829" x2="892.3636" y2="226.3468" gradientTransform="matrix(-1 0 0 -1 841.8898 595.2756)">
		<stop  offset="0" style="stop-color:#9C0CCA"/>
		<stop  offset="0.5044" style="stop-color:#FA53D6"/>
		<stop  offset="0.8541" style="stop-color:#FDAB68"/>
	</linearGradient>
	<path style="display:inline;fill:url(#SVGID_00000072260203356871611190000007884644519420628142_);" d="M-18.78,259.08
		c0,0-5.93,31.34,34.73,61.84c40.66,30.49,12.71,83.01-48.28,71.15s-85.55-57.6-85.55-57.6L-18.78,259.08z"/>
</g>
<g id="Layer_4" style="display:none;">
	
		<linearGradient id="SVGID_00000125596615874643280460000004773350446394416546_" gradientUnits="userSpaceOnUse" x1="-103.0565" y1="1974.2377" x2="344.3781" y2="1974.2377" gradientTransform="matrix(1 0 0 -1 0 2474.613)">
		<stop  offset="0" style="stop-color:#FF3B06"/>
		<stop  offset="1" style="stop-color:#FFDF29"/>
	</linearGradient>
	<path style="display:inline;fill:url(#SVGID_00000125596615874643280460000004773350446394416546_);" d="M344.38,607.1
		c0,0,0.43-97.09-100.63-88.44c-45.97,3.93-79.37,65.47-111.55,37.67c-34.71-29.97-21.18-27.79-83.01-47.48
		c-49.5-15.76-33.64-115.48-92.94-154.79c-59.3-39.31-59.3,184.25-59.3,184.25l64.69,103.18l267.74,9.83L344.38,607.1z"/>
	<g style="display:inline;">
		<g>
			<path style="fill:#FFFFFF;" d="M92.2,550.03c-0.52,0.52-0.52,1.36,0,1.88c0.52,0.52,1.36,0.52,1.88,0c0.52-0.52,0.52-1.36,0-1.88
				C93.56,549.51,92.72,549.51,92.2,550.03z"/>
			<path style="fill:#FFFFFF;" d="M83.05,540.89c-0.52,0.52-0.52,1.36,0,1.88c0.52,0.52,1.36,0.52,1.88,0
				c0.52-0.52,0.52-1.36,0-1.88C84.41,540.37,83.57,540.37,83.05,540.89z"/>
			<path style="fill:#FFFFFF;" d="M73.91,531.75c-0.52,0.52-0.52,1.36,0,1.88c0.52,0.52,1.36,0.52,1.88,0s0.52-1.36,0-1.88
				C75.27,531.23,74.43,531.23,73.91,531.75z"/>
			<path style="fill:#FFFFFF;" d="M64.76,522.6c-0.52,0.52-0.52,1.36,0,1.88c0.52,0.52,1.36,0.52,1.88,0c0.52-0.52,0.52-1.36,0-1.88
				C66.13,522.08,65.28,522.08,64.76,522.6z"/>
		</g>
		<g>
			<path style="fill:#FFFFFF;" d="M83.05,559.18c-0.52,0.52-0.52,1.36,0,1.88c0.52,0.52,1.36,0.52,1.88,0
				c0.52-0.52,0.52-1.36,0-1.88C84.41,558.66,83.57,558.66,83.05,559.18z"/>
			<path style="fill:#FFFFFF;" d="M73.91,550.03c-0.52,0.52-0.52,1.36,0,1.88c0.52,0.52,1.36,0.52,1.88,0
				c0.52-0.52,0.52-1.36,0-1.88C75.27,549.51,74.43,549.51,73.91,550.03z"/>
			<path style="fill:#FFFFFF;" d="M64.76,540.89c-0.52,0.52-0.52,1.36,0,1.88s1.36,0.52,1.88,0c0.52-0.52,0.52-1.36,0-1.88
				C66.13,540.37,65.28,540.37,64.76,540.89z"/>
			<path style="fill:#FFFFFF;" d="M55.62,531.75c-0.52,0.52-0.52,1.36,0,1.88s1.36,0.52,1.88,0c0.52-0.52,0.52-1.36,0-1.88
				C56.98,531.23,56.14,531.23,55.62,531.75z"/>
		</g>
		<g>
			<path style="fill:#FFFFFF;" d="M73.91,568.32c-0.52,0.52-0.52,1.36,0,1.88c0.52,0.52,1.36,0.52,1.88,0
				c0.52-0.52,0.52-1.36,0-1.88C75.27,567.8,74.43,567.8,73.91,568.32z"/>
			<path style="fill:#FFFFFF;" d="M64.76,559.18c-0.52,0.52-0.52,1.36,0,1.88c0.52,0.52,1.36,0.52,1.88,0
				c0.52-0.52,0.52-1.36,0-1.88C66.13,558.66,65.28,558.66,64.76,559.18z"/>
			<path style="fill:#FFFFFF;" d="M55.62,550.03c-0.52,0.52-0.52,1.36,0,1.88c0.52,0.52,1.36,0.52,1.88,0
				c0.52-0.52,0.52-1.36,0-1.88C56.98,549.51,56.14,549.51,55.62,550.03z"/>
			<path style="fill:#FFFFFF;" d="M46.48,540.89c-0.52,0.52-0.52,1.36,0,1.88c0.52,0.52,1.36,0.52,1.88,0
				c0.52-0.52,0.52-1.36,0-1.88C47.84,540.37,47,540.37,46.48,540.89z"/>
		</g>
		<g>
			<path style="fill:#FFFFFF;" d="M64.76,577.47c-0.52,0.52-0.52,1.36,0,1.88c0.52,0.52,1.36,0.52,1.88,0
				c0.52-0.52,0.52-1.36,0-1.88C66.13,576.95,65.28,576.95,64.76,577.47z"/>
			<path style="fill:#FFFFFF;" d="M55.62,568.32c-0.52,0.52-0.52,1.36,0,1.88c0.52,0.52,1.36,0.52,1.88,0
				c0.52-0.52,0.52-1.36,0-1.88C56.98,567.8,56.14,567.8,55.62,568.32z"/>
			<path style="fill:#FFFFFF;" d="M46.48,559.18c-0.52,0.52-0.52,1.36,0,1.88c0.52,0.52,1.36,0.52,1.88,0
				c0.52-0.52,0.52-1.36,0-1.88C47.84,558.66,47,558.66,46.48,559.18z"/>
			<path style="fill:#FFFFFF;" d="M37.33,550.03c-0.52,0.52-0.52,1.36,0,1.88c0.52,0.52,1.36,0.52,1.88,0
				c0.52-0.52,0.52-1.36,0-1.88C38.69,549.51,37.85,549.51,37.33,550.03z"/>
		</g>
	</g>
	
		<pattern  id="SVGID_00000171703908917150544020000010521331692062608824_" xlink:href="#_x31_0_lpi_10__x25__2" patternTransform="matrix(-0.7071 -0.7071 -0.7071 0.7071 -18347.2676 -7715.8027)">
	</pattern>
	
		<circle style="display:inline;fill:url(#SVGID_00000171703908917150544020000010521331692062608824_);" cx="247.45" cy="565.81" r="35.8"/>
	<path style="display:inline;fill:#FFFFFF;" d="M108.64,578.42c0-3.94-3.19-7.13-7.13-7.13c-3.94,0-7.13,3.19-7.13,7.13
		c0,3.94,3.19,7.13,7.13,7.13C105.45,585.55,108.64,582.36,108.64,578.42z"/>
	
		<pattern  id="SVGID_00000041292367922691473160000002134057085044511360_" xlink:href="#_x31_0_lpi_10__x25__2" patternTransform="matrix(0.7071 0.7071 0.7071 -0.7071 3052.6997 -7381.7627)">
	</pattern>
	
		<circle style="display:inline;fill:url(#SVGID_00000041292367922691473160000002134057085044511360_);" cx="194.9" cy="612.64" r="41.53"/>
	<path style="display:inline;fill:none;stroke:#B34EF8;stroke-width:0.8837;stroke-miterlimit:10;" d="M-111.1,700.81
		c0,0,100.05-100.03,140.39-109.34c45.79-10.58,57.29,15.64,106.06,78.11c48.78,62.47,10.72-78.5,141.31-130.63
		c101.86-40.66,115.09,111.81,182.16,59.94"/>
</g>
<g id="Layer_3">
	
		<linearGradient id="SVGID_00000147930141471097983780000001256982616816953534_" gradientUnits="userSpaceOnUse" x1="-235.1975" y1="1989.4847" x2="212.2372" y2="1989.4847" gradientTransform="matrix(1 0 0 -1 0 2474.613)">
		<stop  offset="0" style="stop-color:#FDA430"/>
		<stop  offset="1" style="stop-color:#FFDF29"/>
	</linearGradient>
	<path style="fill:url(#SVGID_00000147930141471097983780000001256982616816953534_);" d="M212.24,591.85
		c0,0,0.43-97.09-100.63-88.44c-45.97,3.93-79.37,65.47-111.55,37.67c-34.71-29.97-21.18-27.79-83.01-47.48
		c-49.5-15.76-33.64-115.48-92.94-154.79s-59.3,184.25-59.3,184.25l64.69,103.18l267.74,9.83L212.24,591.85z"/>
	<path style="fill:#FFFFFF;" d="M169.75,546.27c0-2.19-1.78-3.97-3.97-3.97c-2.19,0-3.97,1.78-3.97,3.97c0,2.19,1.78,3.97,3.97,3.97
		C167.97,550.24,169.75,548.46,169.75,546.27z"/>
</g>
<g id="Layer_10" style="display:none;">
	
		<linearGradient id="SVGID_00000129886009275236838000000004294556509247133846_" gradientUnits="userSpaceOnUse" x1="-103.0565" y1="1974.2377" x2="344.3781" y2="1974.2377" gradientTransform="matrix(-1 0 0 1 841.8898 -1879.3374)">
		<stop  offset="0" style="stop-color:#FF3B06"/>
		<stop  offset="1" style="stop-color:#FFDF29"/>
	</linearGradient>
	<path style="display:inline;fill:url(#SVGID_00000129886009275236838000000004294556509247133846_);" d="M497.51-11.83
		c0,0-0.43,97.09,100.63,88.44c45.97-3.93,79.37-65.47,111.55-37.67c34.71,29.97,21.18,27.79,83.01,47.48
		c49.5,15.76,33.64,115.48,92.94,154.79c59.3,39.31,59.3-184.25,59.3-184.25L880.26-46.22l-267.74-9.83L497.51-11.83z"/>
	<g style="display:inline;">
		<g>
			<path style="fill:#FFFFFF;" d="M749.69,45.24c0.52-0.52,0.52-1.36,0-1.88c-0.52-0.52-1.36-0.52-1.88,0
				c-0.52,0.52-0.52,1.36,0,1.88C748.33,45.76,749.17,45.76,749.69,45.24z"/>
			<path style="fill:#FFFFFF;" d="M758.84,54.39c0.52-0.52,0.52-1.36,0-1.88c-0.52-0.52-1.36-0.52-1.88,0
				c-0.52,0.52-0.52,1.36,0,1.88C757.47,54.9,758.32,54.9,758.84,54.39z"/>
			<path style="fill:#FFFFFF;" d="M767.98,63.53c0.52-0.52,0.52-1.36,0-1.88c-0.52-0.52-1.36-0.52-1.88,0
				c-0.52,0.52-0.52,1.36,0,1.88S767.46,64.05,767.98,63.53z"/>
			<path style="fill:#FFFFFF;" d="M777.12,72.67c0.52-0.52,0.52-1.36,0-1.88c-0.52-0.52-1.36-0.52-1.88,0
				c-0.52,0.52-0.52,1.36,0,1.88C775.76,73.19,776.61,73.19,777.12,72.67z"/>
		</g>
		<g>
			<path style="fill:#FFFFFF;" d="M758.84,36.1c0.52-0.52,0.52-1.36,0-1.88c-0.52-0.52-1.36-0.52-1.88,0
				c-0.52,0.52-0.52,1.36,0,1.88C757.47,36.62,758.32,36.62,758.84,36.1z"/>
			<path style="fill:#FFFFFF;" d="M767.98,45.24c0.52-0.52,0.52-1.36,0-1.88c-0.52-0.52-1.36-0.52-1.88,0
				c-0.52,0.52-0.52,1.36,0,1.88C766.62,45.76,767.46,45.76,767.98,45.24z"/>
			<path style="fill:#FFFFFF;" d="M777.12,54.39c0.52-0.52,0.52-1.36,0-1.88c-0.52-0.52-1.36-0.52-1.88,0
				c-0.52,0.52-0.52,1.36,0,1.88C775.76,54.9,776.61,54.9,777.12,54.39z"/>
			<path style="fill:#FFFFFF;" d="M786.27,63.53c0.52-0.52,0.52-1.36,0-1.88c-0.52-0.52-1.36-0.52-1.88,0
				c-0.52,0.52-0.52,1.36,0,1.88S785.75,64.05,786.27,63.53z"/>
		</g>
		<g>
			<path style="fill:#FFFFFF;" d="M767.98,26.95c0.52-0.52,0.52-1.36,0-1.88c-0.52-0.52-1.36-0.52-1.88,0
				c-0.52,0.52-0.52,1.36,0,1.88C766.62,27.47,767.46,27.47,767.98,26.95z"/>
			<path style="fill:#FFFFFF;" d="M777.12,36.1c0.52-0.52,0.52-1.36,0-1.88c-0.52-0.52-1.36-0.52-1.88,0
				c-0.52,0.52-0.52,1.36,0,1.88C775.76,36.62,776.61,36.62,777.12,36.1z"/>
			<path style="fill:#FFFFFF;" d="M786.27,45.24c0.52-0.52,0.52-1.36,0-1.88c-0.52-0.52-1.36-0.52-1.88,0
				c-0.52,0.52-0.52,1.36,0,1.88C784.91,45.76,785.75,45.76,786.27,45.24z"/>
			<path style="fill:#FFFFFF;" d="M795.41,54.39c0.52-0.52,0.52-1.36,0-1.88c-0.52-0.52-1.36-0.52-1.88,0
				c-0.52,0.52-0.52,1.36,0,1.88C794.05,54.9,794.89,54.9,795.41,54.39z"/>
		</g>
		<g>
			<path style="fill:#FFFFFF;" d="M777.12,17.81c0.52-0.52,0.52-1.36,0-1.88c-0.52-0.52-1.36-0.52-1.88,0
				c-0.52,0.52-0.52,1.36,0,1.88C775.76,18.33,776.61,18.33,777.12,17.81z"/>
			<path style="fill:#FFFFFF;" d="M786.27,26.95c0.52-0.52,0.52-1.36,0-1.88c-0.52-0.52-1.36-0.52-1.88,0
				c-0.52,0.52-0.52,1.36,0,1.88C784.91,27.47,785.75,27.47,786.27,26.95z"/>
			<path style="fill:#FFFFFF;" d="M795.41,36.1c0.52-0.52,0.52-1.36,0-1.88c-0.52-0.52-1.36-0.52-1.88,0
				c-0.52,0.52-0.52,1.36,0,1.88C794.05,36.62,794.89,36.62,795.41,36.1z"/>
			<path style="fill:#FFFFFF;" d="M804.56,45.24c0.52-0.52,0.52-1.36,0-1.88c-0.52-0.52-1.36-0.52-1.88,0
				c-0.52,0.52-0.52,1.36,0,1.88C803.2,45.76,804.04,45.76,804.56,45.24z"/>
		</g>
	</g>
	
		<pattern  id="SVGID_00000050635065520030794620000014316722831708730754_" xlink:href="#_x31_0_lpi_10__x25__2" patternTransform="matrix(-0.7071 -0.7071 -0.7071 0.7071 -18408.9609 -7319.0625)">
	</pattern>
	
		<circle style="display:inline;fill:url(#SVGID_00000050635065520030794620000014316722831708730754_);" cx="646.99" cy="-17.37" r="41.53"/>
	<path style="display:inline;fill:none;stroke:#FFFFFF;stroke-miterlimit:10;" d="M683.65-65.42c0,0-128.13,100.03-179.8,109.34
		C445.22,54.5,430.5,28.28,368.03-34.18c-62.47-62.47-13.72,78.5-180.97,130.63C56.61,137.1,39.67-15.37-46.23,36.5"/>
	<path style="display:inline;fill:none;stroke:#B34EF8;stroke-width:0.8837;stroke-miterlimit:10;" d="M952.99-105.54
		c0,0-100.05,100.03-140.39,109.34c-45.79,10.58-57.29-15.64-106.06-78.11c-48.78-62.47-10.72,78.5-141.31,130.63
		C463.36,96.98,450.14-55.49,383.06-3.62"/>
	
		<pattern  id="SVGID_00000133522389823951515030000004551028396387352225_" xlink:href="#_x31_0_lpi_10__x25__2" patternTransform="matrix(0.7071 0.7071 0.7071 -0.7071 2991.0054 -6985.0225)">
	</pattern>
	
		<circle style="display:inline;fill:url(#SVGID_00000133522389823951515030000004551028396387352225_);" cx="594.44" cy="29.47" r="35.8"/>
	
		<ellipse transform="matrix(0.8919 -0.4522 0.4522 0.8919 72.4137 336.6514)" style="display:inline;fill:#FFFFFF;" cx="740.38" cy="16.86" rx="7.13" ry="7.13"/>
	
		<path style="display:inline;fill:none;stroke:#FFFFFF;stroke-width:1.4173;stroke-linecap:round;stroke-linejoin:round;stroke-miterlimit:10;" d="
		M739.34-23.84c0,0,38.96,40.66,79.62,37.27c40.66-3.39-18.64,64.38,25.41,106.73c44.05,42.35,54.21,44.05,54.21,44.05V1.57"/>
</g>
<g id="Layer_11" style="display:none;">
	<g style="display:inline;">
		<defs>
			
				<rect id="SVGID_00000018231169578518821060000001045724832230016694_" transform="matrix(-1 -1.224647e-16 1.224647e-16 -1 841.8898 595.2756)" width="841.89" height="595.28"/>
		</defs>
		<clipPath id="SVGID_00000057841649812984323560000007739032925054283948_">
			<use xlink:href="#SVGID_00000018231169578518821060000001045724832230016694_"  style="overflow:visible;"/>
		</clipPath>
		
			<linearGradient id="SVGID_00000030453771400036578250000010237998543468055200_" gradientUnits="userSpaceOnUse" x1="264.786" y1="1948.7734" x2="960.1484" y2="1948.7734" gradientTransform="matrix(-1 0 0 1 841.8898 -1879.3374)">
			<stop  offset="0" style="stop-color:#9C0CCA"/>
			<stop  offset="0.5044" style="stop-color:#FA53D6"/>
			<stop  offset="0.8541" style="stop-color:#FDAB68"/>
		</linearGradient>
		
			<path style="clip-path:url(#SVGID_00000057841649812984323560000007739032925054283948_);fill:url(#SVGID_00000030453771400036578250000010237998543468055200_);" d="
			M577.1-41.75c0,0-159.69,7.98-190.69,77.26c-27.95,62.47-77.26,82.19-169.32,42.74c-92.06-39.45-103.74,57.88-166.03,108.5
			c-78.91,64.11-151.24-14.79-151.24-14.79l-18.08-244.94L577.1-41.75z"/>
		
			<pattern  id="SVGID_00000076577310234473658920000015551046755551137467_" xlink:href="#_x31_0_lpi_10__x25__2" patternTransform="matrix(-0.7071 -0.7071 -0.7071 0.7071 -18420.8555 -7321.4976)">
		</pattern>
		
			<circle style="clip-path:url(#SVGID_00000057841649812984323560000007739032925054283948_);fill:url(#SVGID_00000076577310234473658920000015551046755551137467_);" cx="5.22" cy="176.07" r="77.93"/>
		<g style="clip-path:url(#SVGID_00000057841649812984323560000007739032925054283948_);">
			<g>
				<path style="fill:#FFFFFF;" d="M335.36,115.12c-0.89-0.89-2.33-0.89-3.22,0c-0.89,0.89-0.89,2.33,0,3.22
					c0.89,0.89,2.33,0.89,3.22,0C336.25,117.45,336.25,116,335.36,115.12z"/>
				<path style="fill:#FFFFFF;" d="M351.01,99.47c-0.89-0.89-2.33-0.89-3.22,0c-0.89,0.89-0.89,2.33,0,3.22
					c0.89,0.89,2.33,0.89,3.22,0C351.9,101.8,351.9,100.36,351.01,99.47z"/>
			</g>
			<g>
				<path style="fill:#FFFFFF;" d="M319.71,99.47c-0.89-0.89-2.33-0.89-3.22,0c-0.89,0.89-0.89,2.33,0,3.22
					c0.89,0.89,2.33,0.89,3.22,0C320.6,101.8,320.6,100.36,319.71,99.47z"/>
				<path style="fill:#FFFFFF;" d="M335.36,83.82c-0.89-0.89-2.33-0.89-3.22,0c-0.89,0.89-0.89,2.33,0,3.22
					c0.89,0.89,2.33,0.89,3.22,0C336.25,86.15,336.25,84.71,335.36,83.82z"/>
			</g>
			<g>
				<path style="fill:#FFFFFF;" d="M304.06,83.82c-0.89-0.89-2.33-0.89-3.22,0c-0.89,0.89-0.89,2.33,0,3.22
					c0.89,0.89,2.33,0.89,3.22,0C304.95,86.15,304.95,84.71,304.06,83.82z"/>
				<path style="fill:#FFFFFF;" d="M319.71,68.17c-0.89-0.89-2.33-0.89-3.22,0c-0.89,0.89-0.89,2.33,0,3.22
					c0.89,0.89,2.33,0.89,3.22,0C320.6,70.5,320.6,69.06,319.71,68.17z"/>
			</g>
			<g>
				<path style="fill:#FFFFFF;" d="M288.41,68.17c-0.89-0.89-2.33-0.89-3.22,0c-0.89,0.89-0.89,2.33,0,3.22
					c0.89,0.89,2.33,0.89,3.22,0C289.3,70.5,289.3,69.06,288.41,68.17z"/>
				<circle style="fill:#FFFFFF;" cx="302.45" cy="54.13" r="2.28"/>
			</g>
		</g>
		<g style="clip-path:url(#SVGID_00000057841649812984323560000007739032925054283948_);">
			
				<line style="fill:none;stroke:#FFFFFF;stroke-width:1.0627;stroke-linecap:round;stroke-linejoin:round;stroke-miterlimit:10;" x1="112.75" y1="54.23" x2="112.75" y2="58.36"/>
			
				<line style="fill:none;stroke:#FFFFFF;stroke-width:1.0627;stroke-linecap:round;stroke-linejoin:round;stroke-miterlimit:10;" x1="107.42" y1="53.41" x2="106" y2="57.29"/>
			
				<line style="fill:none;stroke:#FFFFFF;stroke-width:1.0627;stroke-linecap:round;stroke-linejoin:round;stroke-miterlimit:10;" x1="102.68" y1="50.8" x2="100.03" y2="53.96"/>
			
				<line style="fill:none;stroke:#FFFFFF;stroke-width:1.0627;stroke-linecap:round;stroke-linejoin:round;stroke-miterlimit:10;" x1="99.12" y1="46.73" x2="95.55" y2="48.8"/>
			
				<line style="fill:none;stroke:#FFFFFF;stroke-width:1.0627;stroke-linecap:round;stroke-linejoin:round;stroke-miterlimit:10;" x1="97.17" y1="41.69" x2="93.1" y2="42.41"/>
			
				<line style="fill:none;stroke:#FFFFFF;stroke-width:1.0627;stroke-linecap:round;stroke-linejoin:round;stroke-miterlimit:10;" x1="97.06" y1="36.29" x2="92.99" y2="35.57"/>
			
				<line style="fill:none;stroke:#FFFFFF;stroke-width:1.0627;stroke-linecap:round;stroke-linejoin:round;stroke-miterlimit:10;" x1="98.81" y1="31.17" x2="95.23" y2="29.11"/>
			
				<line style="fill:none;stroke:#FFFFFF;stroke-width:1.0627;stroke-linecap:round;stroke-linejoin:round;stroke-miterlimit:10;" x1="102.2" y1="26.96" x2="99.54" y2="23.8"/>
			
				<line style="fill:none;stroke:#FFFFFF;stroke-width:1.0627;stroke-linecap:round;stroke-linejoin:round;stroke-miterlimit:10;" x1="106.82" y1="24.16" x2="105.41" y2="20.28"/>
			
				<line style="fill:none;stroke:#FFFFFF;stroke-width:1.0627;stroke-linecap:round;stroke-linejoin:round;stroke-miterlimit:10;" x1="112.12" y1="18.99" x2="112.12" y2="23.12"/>
			
				<line style="fill:none;stroke:#FFFFFF;stroke-width:1.0627;stroke-linecap:round;stroke-linejoin:round;stroke-miterlimit:10;" x1="118.87" y1="20.07" x2="117.46" y2="23.94"/>
			
				<line style="fill:none;stroke:#FFFFFF;stroke-width:1.0627;stroke-linecap:round;stroke-linejoin:round;stroke-miterlimit:10;" x1="124.85" y1="23.39" x2="122.19" y2="26.55"/>
			
				<line style="fill:none;stroke:#FFFFFF;stroke-width:1.0627;stroke-linecap:round;stroke-linejoin:round;stroke-miterlimit:10;" x1="129.33" y1="28.56" x2="125.75" y2="30.62"/>
			
				<line style="fill:none;stroke:#FFFFFF;stroke-width:1.0627;stroke-linecap:round;stroke-linejoin:round;stroke-miterlimit:10;" x1="131.77" y1="34.94" x2="127.71" y2="35.66"/>
			
				<line style="fill:none;stroke:#FFFFFF;stroke-width:1.0627;stroke-linecap:round;stroke-linejoin:round;stroke-miterlimit:10;" x1="131.88" y1="41.78" x2="127.81" y2="41.07"/>
			
				<line style="fill:none;stroke:#FFFFFF;stroke-width:1.0627;stroke-linecap:round;stroke-linejoin:round;stroke-miterlimit:10;" x1="129.65" y1="48.24" x2="126.07" y2="46.18"/>
			
				<line style="fill:none;stroke:#FFFFFF;stroke-width:1.0627;stroke-linecap:round;stroke-linejoin:round;stroke-miterlimit:10;" x1="125.34" y1="53.55" x2="122.68" y2="50.39"/>
			
				<line style="fill:none;stroke:#FFFFFF;stroke-width:1.0627;stroke-linecap:round;stroke-linejoin:round;stroke-miterlimit:10;" x1="119.47" y1="57.07" x2="118.06" y2="53.19"/>
		</g>
		<g style="clip-path:url(#SVGID_00000057841649812984323560000007739032925054283948_);">
			<g>
				
					<polyline style="fill:none;stroke:#FFFFFF;stroke-width:1.4173;stroke-linecap:round;stroke-linejoin:round;stroke-miterlimit:10;" points="
					497.38,31.36 495.1,22.83 486.57,20.55 484.3,12.02 475.76,9.75 473.49,1.21 464.95,-1.07 462.67,-9.6 454.13,-11.88 
					451.86,-20.42 443.32,-22.69 441.04,-31.24 432.49,-33.52 				"/>
			</g>
			<g>
				
					<polyline style="fill:none;stroke:#FFFFFF;stroke-width:1.4173;stroke-linecap:round;stroke-linejoin:round;stroke-miterlimit:10;" points="
					464.96,23.49 462.69,14.95 454.15,12.68 451.88,4.15 443.35,1.87 441.07,-6.66 432.53,-8.94 430.26,-17.48 421.72,-19.75 
					419.45,-28.29 410.9,-30.57 408.62,-39.11 400.08,-41.39 				"/>
			</g>
		</g>
		<path style="clip-path:url(#SVGID_00000057841649812984323560000007739032925054283948_);fill:#FFFFFF;" d="M194.37,34.34
			c0,2.19,1.78,3.97,3.97,3.97c2.19,0,3.97-1.78,3.97-3.97c0-2.19-1.78-3.97-3.97-3.97C196.15,30.37,194.37,32.15,194.37,34.34z"/>
		<path style="clip-path:url(#SVGID_00000057841649812984323560000007739032925054283948_);fill:#FFFFFF;" d="M13.68,71.88
			c0,2.19,1.78,3.97,3.97,3.97c2.19,0,3.97-1.78,3.97-3.97c0-2.19-1.78-3.97-3.97-3.97C15.46,67.91,13.68,69.69,13.68,71.88z"/>
		<path style="clip-path:url(#SVGID_00000057841649812984323560000007739032925054283948_);fill:#FFFFFF;" d="M336.86,42.45
			c0,3.94,3.19,7.13,7.13,7.13s7.13-3.19,7.13-7.13s-3.19-7.13-7.13-7.13S336.86,38.52,336.86,42.45z"/>
	</g>
</g>
<g id="Layer_12" style="display:none;">
	
		<linearGradient id="SVGID_00000165207470741599615860000011445120743378036397_" gradientUnits="userSpaceOnUse" x1="852.8342" y1="317.829" x2="892.3636" y2="226.3468">
		<stop  offset="0" style="stop-color:#9C0CCA"/>
		<stop  offset="0.5044" style="stop-color:#FA53D6"/>
		<stop  offset="0.8541" style="stop-color:#FDAB68"/>
	</linearGradient>
	<path style="display:inline;fill:url(#SVGID_00000165207470741599615860000011445120743378036397_);" d="M860.66,336.2
		c0,0,5.93-31.34-34.73-61.84c-40.66-30.49-12.71-83.01,48.28-71.15s85.55,57.6,85.55,57.6L860.66,336.2z"/>
	<path style="display:inline;fill:#FFFFFF;" d="M837.61,258.65c0-1.87-1.52-3.39-3.39-3.39c-1.87,0-3.39,1.52-3.39,3.39
		c0,1.87,1.52,3.39,3.39,3.39C836.09,262.03,837.61,260.52,837.61,258.65z"/>
	<path style="display:inline;fill:#FFFFFF;" d="M816.74,230.52c0-3.39-2.75-6.13-6.13-6.13s-6.13,2.75-6.13,6.13
		c0,3.39,2.75,6.13,6.13,6.13S816.74,233.9,816.74,230.52z"/>
	<circle style="display:inline;fill:none;stroke:#FFFFFF;stroke-miterlimit:10;" cx="844.76" cy="204.24" r="12.99"/>
	<path style="display:inline;fill:none;stroke:#B34EF8;stroke-width:0.8837;stroke-miterlimit:10;" d="M915.22,433.89
		c0,0-101.26-98.8-111.07-139.03c-11.14-45.66,14.93-57.47,76.79-107.02s-78.62-9.74-132.37-139.68
		C706.65-53.2,858.94-68.31,806.24-134.74"/>
	<path style="display:inline;fill:none;stroke:#B34EF8;stroke-width:0.8837;stroke-miterlimit:10;" d="M937.24,422.03
		c0,0-101.26-98.8-111.07-139.03c-11.14-45.66,14.93-57.47,76.79-107.02s-78.62-9.74-132.37-139.68
		C728.67-65.05,880.97-80.17,828.27-146.6"/>
</g>
<g id="Layer_8" style="display:none;">
	
		<linearGradient id="SVGID_00000108273859340669156430000002760135623684052632_" gradientUnits="userSpaceOnUse" x1="151.4833" y1="1838.8555" x2="914.0296" y2="1838.8555" gradientTransform="matrix(-1 0 0 1 841.8898 -1879.3374)">
		<stop  offset="0" style="stop-color:#9C0CCA"/>
		<stop  offset="0.5044" style="stop-color:#FA53D6"/>
		<stop  offset="0.8541" style="stop-color:#FDAB68"/>
	</linearGradient>
	<path style="display:inline;fill:url(#SVGID_00000108273859340669156430000002760135623684052632_);" d="M690.41-139.85
		c0,0-11.86,101.65-79.62,96.56c-67.76-5.08-69.65,22.83-127.25,27.91c-57.6,5.08-64.38,83.01-130.45,59.29
		c-66.07-23.72-74.54-86.4-198.21-20.33C31.2,89.67-17.93,54.09-45.03-10.29c-27.11-64.38-27.11-64.38-27.11-64.38L690.41-139.85z"
		/>
</g>
</svg>
